%TF.GenerationSoftware,KiCad,Pcbnew,9.0.1*%
%TF.CreationDate,2025-07-01T21:06:15-04:00*%
%TF.ProjectId,Tiny Solar Power Suppy,54696e79-2053-46f6-9c61-7220506f7765,rev?*%
%TF.SameCoordinates,Original*%
%TF.FileFunction,Copper,L2,Bot*%
%TF.FilePolarity,Positive*%
%FSLAX46Y46*%
G04 Gerber Fmt 4.6, Leading zero omitted, Abs format (unit mm)*
G04 Created by KiCad (PCBNEW 9.0.1) date 2025-07-01 21:06:15*
%MOMM*%
%LPD*%
G01*
G04 APERTURE LIST*
G04 Aperture macros list*
%AMRoundRect*
0 Rectangle with rounded corners*
0 $1 Rounding radius*
0 $2 $3 $4 $5 $6 $7 $8 $9 X,Y pos of 4 corners*
0 Add a 4 corners polygon primitive as box body*
4,1,4,$2,$3,$4,$5,$6,$7,$8,$9,$2,$3,0*
0 Add four circle primitives for the rounded corners*
1,1,$1+$1,$2,$3*
1,1,$1+$1,$4,$5*
1,1,$1+$1,$6,$7*
1,1,$1+$1,$8,$9*
0 Add four rect primitives between the rounded corners*
20,1,$1+$1,$2,$3,$4,$5,0*
20,1,$1+$1,$4,$5,$6,$7,0*
20,1,$1+$1,$6,$7,$8,$9,0*
20,1,$1+$1,$8,$9,$2,$3,0*%
G04 Aperture macros list end*
%TA.AperFunction,ComponentPad*%
%ADD10C,1.700000*%
%TD*%
%TA.AperFunction,ComponentPad*%
%ADD11R,1.700000X1.700000*%
%TD*%
%TA.AperFunction,ComponentPad*%
%ADD12C,1.600000*%
%TD*%
%TA.AperFunction,ComponentPad*%
%ADD13RoundRect,0.250000X0.550000X0.550000X-0.550000X0.550000X-0.550000X-0.550000X0.550000X-0.550000X0*%
%TD*%
%TA.AperFunction,ViaPad*%
%ADD14C,0.800000*%
%TD*%
%TA.AperFunction,Conductor*%
%ADD15C,0.250000*%
%TD*%
G04 APERTURE END LIST*
D10*
%TO.P,J1,2,Pin_2*%
%TO.N,/OUT_P*%
X126200000Y-123340000D03*
D11*
%TO.P,J1,1,Pin_1*%
%TO.N,GNDD*%
X126200000Y-120800000D03*
%TD*%
D12*
%TO.P,J3,2,Pin_2*%
%TO.N,/BAT_P*%
X99355000Y-120687500D03*
D13*
%TO.P,J3,1,Pin_1*%
%TO.N,Net-(J3-Pin_1)*%
X106975000Y-120687500D03*
%TD*%
D11*
%TO.P,J2,1,Pin_1*%
%TO.N,/BAT_P*%
X95085000Y-126900000D03*
D10*
%TO.P,J2,2,Pin_2*%
%TO.N,GNDD*%
X95085000Y-124360000D03*
%TD*%
D11*
%TO.P,J4,1,Pin_1*%
%TO.N,/SOLAR_P*%
X95085000Y-120540000D03*
D10*
%TO.P,J4,2,Pin_2*%
%TO.N,GNDD*%
X95085000Y-118000000D03*
%TD*%
D14*
%TO.N,GNDD*%
X109212500Y-120412500D03*
X108400000Y-129000000D03*
X110650000Y-127100000D03*
X102200000Y-130226000D03*
X123100000Y-124600000D03*
%TO.N,Net-(J3-Pin_1)*%
X111800000Y-118000000D03*
X114107800Y-118400000D03*
X115657800Y-118400000D03*
%TO.N,Net-(U1-FB)*%
X117625000Y-126775000D03*
X108900000Y-127300000D03*
%TD*%
D15*
%TO.N,Net-(J3-Pin_1)*%
X115657800Y-118400000D02*
X114107800Y-118400000D01*
X109200000Y-118000000D02*
X106975000Y-120225000D01*
X106975000Y-120225000D02*
X106975000Y-120687500D01*
X111800000Y-118000000D02*
X109200000Y-118000000D01*
%TO.N,Net-(U1-FB)*%
X117625000Y-126775000D02*
X116125000Y-128275000D01*
X116125000Y-128275000D02*
X109875000Y-128275000D01*
X109875000Y-128275000D02*
X108900000Y-127300000D01*
%TD*%
%TA.AperFunction,Conductor*%
%TO.N,GNDD*%
G36*
X126915031Y-113519685D02*
G01*
X126960786Y-113572489D01*
X126969609Y-113599808D01*
X127009520Y-113800452D01*
X127009523Y-113800462D01*
X127087166Y-113987911D01*
X127087173Y-113987924D01*
X127199897Y-114156626D01*
X127199900Y-114156630D01*
X127343369Y-114300099D01*
X127343373Y-114300102D01*
X127512075Y-114412826D01*
X127512088Y-114412833D01*
X127685718Y-114484752D01*
X127699542Y-114490478D01*
X127835915Y-114517604D01*
X127900191Y-114530390D01*
X127962102Y-114562775D01*
X127996676Y-114623490D01*
X128000000Y-114652007D01*
X128000000Y-130147992D01*
X127980315Y-130215031D01*
X127927511Y-130260786D01*
X127900192Y-130269609D01*
X127699547Y-130309520D01*
X127699537Y-130309523D01*
X127512088Y-130387166D01*
X127512075Y-130387173D01*
X127343373Y-130499897D01*
X127343369Y-130499900D01*
X127199900Y-130643369D01*
X127199897Y-130643373D01*
X127087173Y-130812075D01*
X127087166Y-130812088D01*
X127009523Y-130999537D01*
X127009520Y-130999547D01*
X126969609Y-131200192D01*
X126937224Y-131262103D01*
X126876508Y-131296677D01*
X126847992Y-131300000D01*
X93952008Y-131300000D01*
X93884969Y-131280315D01*
X93839214Y-131227511D01*
X93830391Y-131200192D01*
X93790479Y-130999547D01*
X93790478Y-130999546D01*
X93790478Y-130999542D01*
X93790476Y-130999537D01*
X93712833Y-130812088D01*
X93712826Y-130812075D01*
X93600102Y-130643373D01*
X93600099Y-130643369D01*
X93456630Y-130499900D01*
X93456626Y-130499897D01*
X93287924Y-130387173D01*
X93287911Y-130387166D01*
X93100462Y-130309523D01*
X93100452Y-130309520D01*
X92899808Y-130269609D01*
X92837897Y-130237224D01*
X92803323Y-130176508D01*
X92800000Y-130147992D01*
X92800000Y-129248499D01*
X95548000Y-129248499D01*
X95548000Y-130176000D01*
X97050000Y-130176000D01*
X98048000Y-130176000D01*
X99550000Y-130176000D01*
X100548000Y-130176000D01*
X100876000Y-130176000D01*
X100876000Y-130131558D01*
X100877527Y-130112160D01*
X100907075Y-129925601D01*
X100911617Y-129906681D01*
X100969985Y-129727042D01*
X100977431Y-129709065D01*
X101063183Y-129540768D01*
X101073350Y-129524178D01*
X101184373Y-129371367D01*
X101197010Y-129356571D01*
X101330571Y-129223010D01*
X101345367Y-129210373D01*
X101352001Y-129205553D01*
X103048000Y-129205553D01*
X103054634Y-129210373D01*
X103069429Y-129223010D01*
X103202990Y-129356571D01*
X103215627Y-129371367D01*
X103326650Y-129524178D01*
X103336817Y-129540768D01*
X103422569Y-129709065D01*
X103430015Y-129727042D01*
X103488383Y-129906681D01*
X103492925Y-129925601D01*
X103522473Y-130112160D01*
X103524000Y-130131558D01*
X103524000Y-130176000D01*
X104550000Y-130176000D01*
X105548000Y-130176000D01*
X107050000Y-130176000D01*
X110548000Y-130176000D01*
X112050000Y-130176000D01*
X113048000Y-130176000D01*
X114550000Y-130176000D01*
X114550000Y-129898500D01*
X115548000Y-129898500D01*
X115548000Y-130176000D01*
X117050000Y-130176000D01*
X118048000Y-130176000D01*
X119550000Y-130176000D01*
X120548000Y-130176000D01*
X122050000Y-130176000D01*
X123048000Y-130176000D01*
X124550000Y-130176000D01*
X125548000Y-130176000D01*
X126311901Y-130176000D01*
X126383704Y-130068540D01*
X126387209Y-130063564D01*
X126409142Y-130033991D01*
X126412886Y-130029193D01*
X126443975Y-129991311D01*
X126447949Y-129986704D01*
X126472680Y-129959417D01*
X126476878Y-129955008D01*
X126655008Y-129776878D01*
X126659417Y-129772680D01*
X126686704Y-129747949D01*
X126691311Y-129743975D01*
X126729193Y-129712886D01*
X126733991Y-129709142D01*
X126763564Y-129687209D01*
X126768540Y-129683704D01*
X126876000Y-129611900D01*
X126876000Y-128748000D01*
X125548000Y-128748000D01*
X125548000Y-130176000D01*
X124550000Y-130176000D01*
X124550000Y-128748000D01*
X123048000Y-128748000D01*
X123048000Y-130176000D01*
X122050000Y-130176000D01*
X122050000Y-128748000D01*
X120548000Y-128748000D01*
X120548000Y-130176000D01*
X119550000Y-130176000D01*
X119550000Y-128748000D01*
X118048000Y-128748000D01*
X118048000Y-130176000D01*
X117050000Y-130176000D01*
X117050000Y-129649103D01*
X116894038Y-129713710D01*
X116803838Y-129773981D01*
X116737161Y-129794859D01*
X116722793Y-129794282D01*
X116704005Y-129792431D01*
X116666747Y-129807866D01*
X116661066Y-129810058D01*
X116626367Y-129822474D01*
X116620578Y-129824386D01*
X116573670Y-129838612D01*
X116567811Y-129840233D01*
X116532107Y-129849176D01*
X116526169Y-129850510D01*
X116410030Y-129873610D01*
X116410029Y-129873609D01*
X116357288Y-129884102D01*
X116357222Y-129884112D01*
X116257466Y-129903955D01*
X116197279Y-129900998D01*
X116189044Y-129898500D01*
X115548000Y-129898500D01*
X114550000Y-129898500D01*
X113048000Y-129898500D01*
X113048000Y-130176000D01*
X112050000Y-130176000D01*
X112050000Y-129898500D01*
X110548000Y-129898500D01*
X110548000Y-130176000D01*
X107050000Y-130176000D01*
X107050000Y-128748000D01*
X105548000Y-128748000D01*
X105548000Y-130176000D01*
X104550000Y-130176000D01*
X104550000Y-128748000D01*
X103048000Y-128748000D01*
X103048000Y-129205553D01*
X101352001Y-129205553D01*
X101498178Y-129099350D01*
X101514768Y-129089183D01*
X101683065Y-129003431D01*
X101701042Y-128995985D01*
X101880681Y-128937617D01*
X101899601Y-128933075D01*
X102050000Y-128909254D01*
X102050000Y-128748000D01*
X100548000Y-128748000D01*
X100548000Y-130176000D01*
X99550000Y-130176000D01*
X99550000Y-128748000D01*
X98048000Y-128748000D01*
X98048000Y-130176000D01*
X97050000Y-130176000D01*
X97050000Y-128757868D01*
X97029481Y-128781549D01*
X97023449Y-128788028D01*
X96973028Y-128838449D01*
X96966549Y-128844481D01*
X96926064Y-128879561D01*
X96919173Y-128885114D01*
X96746874Y-129014098D01*
X96739604Y-129019146D01*
X96694537Y-129048110D01*
X96686923Y-129052628D01*
X96624333Y-129086805D01*
X96616419Y-129090767D01*
X96567682Y-129113025D01*
X96559502Y-129116413D01*
X96362018Y-129190069D01*
X96354679Y-129192548D01*
X96309828Y-129206153D01*
X96302352Y-129208168D01*
X96241637Y-129222516D01*
X96234045Y-129224061D01*
X96187840Y-129231972D01*
X96180167Y-129233041D01*
X96076245Y-129244212D01*
X96072936Y-129244523D01*
X96052899Y-129246135D01*
X96049587Y-129246357D01*
X96022905Y-129247786D01*
X96019587Y-129247919D01*
X95999536Y-129248455D01*
X95996222Y-129248499D01*
X95548000Y-129248499D01*
X92800000Y-129248499D01*
X92800000Y-126002135D01*
X93734500Y-126002135D01*
X93734500Y-127797870D01*
X93734501Y-127797876D01*
X93740908Y-127857483D01*
X93791202Y-127992328D01*
X93791206Y-127992335D01*
X93877452Y-128107544D01*
X93877455Y-128107547D01*
X93992664Y-128193793D01*
X93992671Y-128193797D01*
X94127517Y-128244091D01*
X94127516Y-128244091D01*
X94134444Y-128244835D01*
X94187127Y-128250500D01*
X95982872Y-128250499D01*
X96042483Y-128244091D01*
X96177331Y-128193796D01*
X96292546Y-128107546D01*
X96378796Y-127992331D01*
X96429091Y-127857483D01*
X96435500Y-127797873D01*
X96435500Y-127750000D01*
X98048000Y-127750000D01*
X99550000Y-127750000D01*
X100548000Y-127750000D01*
X102050000Y-127750000D01*
X103048000Y-127750000D01*
X104550000Y-127750000D01*
X105548000Y-127750000D01*
X107050000Y-127750000D01*
X107050000Y-127730807D01*
X107015896Y-127559357D01*
X107014855Y-127553360D01*
X107009451Y-127516929D01*
X107008706Y-127510888D01*
X107003903Y-127462116D01*
X107003455Y-127456046D01*
X107001649Y-127419274D01*
X107001500Y-127413191D01*
X107001500Y-127211304D01*
X107999500Y-127211304D01*
X107999500Y-127388695D01*
X108034103Y-127562658D01*
X108034106Y-127562667D01*
X108101983Y-127726540D01*
X108101990Y-127726553D01*
X108200535Y-127874034D01*
X108200538Y-127874038D01*
X108325961Y-127999461D01*
X108325965Y-127999464D01*
X108473446Y-128098009D01*
X108473459Y-128098016D01*
X108596363Y-128148923D01*
X108637334Y-128165894D01*
X108637336Y-128165894D01*
X108637341Y-128165896D01*
X108811304Y-128200499D01*
X108811307Y-128200500D01*
X108811309Y-128200500D01*
X108864548Y-128200500D01*
X108931587Y-128220185D01*
X108952229Y-128236819D01*
X109386016Y-128670606D01*
X109386045Y-128670637D01*
X109476263Y-128760855D01*
X109476267Y-128760858D01*
X109578707Y-128829307D01*
X109578711Y-128829309D01*
X109578714Y-128829311D01*
X109692548Y-128876463D01*
X109752971Y-128888481D01*
X109813393Y-128900500D01*
X116186607Y-128900500D01*
X116247029Y-128888481D01*
X116307452Y-128876463D01*
X116307455Y-128876461D01*
X116307458Y-128876461D01*
X116340787Y-128862654D01*
X116340786Y-128862654D01*
X116340792Y-128862652D01*
X116421286Y-128829312D01*
X116472509Y-128795084D01*
X116523733Y-128760858D01*
X116610858Y-128673733D01*
X116610858Y-128673731D01*
X116621066Y-128663524D01*
X116621067Y-128663521D01*
X117534591Y-127750000D01*
X120548000Y-127750000D01*
X122050000Y-127750000D01*
X123048000Y-127750000D01*
X124550000Y-127750000D01*
X125548000Y-127750000D01*
X126876000Y-127750000D01*
X126876000Y-126248000D01*
X125548000Y-126248000D01*
X125548000Y-127750000D01*
X124550000Y-127750000D01*
X124550000Y-126248000D01*
X123048000Y-126248000D01*
X123048000Y-127750000D01*
X122050000Y-127750000D01*
X122050000Y-126248000D01*
X120548000Y-126248000D01*
X120548000Y-127750000D01*
X117534591Y-127750000D01*
X117572772Y-127711819D01*
X117634095Y-127678334D01*
X117660453Y-127675500D01*
X117713693Y-127675500D01*
X117713694Y-127675499D01*
X117771682Y-127663964D01*
X117887658Y-127640896D01*
X117887661Y-127640894D01*
X117887666Y-127640894D01*
X118051547Y-127573013D01*
X118199035Y-127474464D01*
X118324464Y-127349035D01*
X118423013Y-127201547D01*
X118490894Y-127037666D01*
X118490961Y-127037332D01*
X118523558Y-126873453D01*
X118525500Y-126863691D01*
X118525500Y-126686309D01*
X118525500Y-126686306D01*
X118525499Y-126686304D01*
X118490896Y-126512341D01*
X118490893Y-126512332D01*
X118486606Y-126501983D01*
X118444157Y-126399500D01*
X118423016Y-126348459D01*
X118423009Y-126348446D01*
X118324464Y-126200965D01*
X118324461Y-126200961D01*
X118199038Y-126075538D01*
X118199034Y-126075535D01*
X118051553Y-125976990D01*
X118051540Y-125976983D01*
X117887667Y-125909106D01*
X117887658Y-125909103D01*
X117713694Y-125874500D01*
X117713691Y-125874500D01*
X117536309Y-125874500D01*
X117536306Y-125874500D01*
X117362341Y-125909103D01*
X117362332Y-125909106D01*
X117198459Y-125976983D01*
X117198446Y-125976990D01*
X117050965Y-126075535D01*
X117050961Y-126075538D01*
X116925538Y-126200961D01*
X116925535Y-126200965D01*
X116826990Y-126348446D01*
X116826983Y-126348459D01*
X116759106Y-126512332D01*
X116759103Y-126512341D01*
X116724500Y-126686304D01*
X116724500Y-126739547D01*
X116704815Y-126806586D01*
X116688181Y-126827228D01*
X115902229Y-127613181D01*
X115840906Y-127646666D01*
X115814548Y-127649500D01*
X110185452Y-127649500D01*
X110118413Y-127629815D01*
X110097771Y-127613181D01*
X109836819Y-127352229D01*
X109803334Y-127290906D01*
X109800500Y-127264548D01*
X109800500Y-127211306D01*
X109800499Y-127211304D01*
X109765896Y-127037341D01*
X109765893Y-127037332D01*
X109698016Y-126873459D01*
X109698009Y-126873446D01*
X109599464Y-126725965D01*
X109599461Y-126725961D01*
X109525000Y-126651500D01*
X113048000Y-126651500D01*
X114550000Y-126651500D01*
X114550000Y-126248000D01*
X113048000Y-126248000D01*
X113048000Y-126651500D01*
X109525000Y-126651500D01*
X109474038Y-126600538D01*
X109474034Y-126600535D01*
X109326553Y-126501990D01*
X109326540Y-126501983D01*
X109162667Y-126434106D01*
X109162658Y-126434103D01*
X108988694Y-126399500D01*
X108988691Y-126399500D01*
X108811309Y-126399500D01*
X108811306Y-126399500D01*
X108637341Y-126434103D01*
X108637332Y-126434106D01*
X108473459Y-126501983D01*
X108473446Y-126501990D01*
X108325965Y-126600535D01*
X108325961Y-126600538D01*
X108200538Y-126725961D01*
X108200535Y-126725965D01*
X108101990Y-126873446D01*
X108101983Y-126873459D01*
X108034106Y-127037332D01*
X108034103Y-127037341D01*
X107999500Y-127211304D01*
X107001500Y-127211304D01*
X107001500Y-127186809D01*
X107001649Y-127180726D01*
X107003455Y-127143954D01*
X107003903Y-127137884D01*
X107008706Y-127089112D01*
X107009451Y-127083071D01*
X107014855Y-127046640D01*
X107015896Y-127040643D01*
X107050000Y-126869191D01*
X107050000Y-126248000D01*
X105548000Y-126248000D01*
X105548000Y-127750000D01*
X104550000Y-127750000D01*
X104550000Y-126248000D01*
X103048000Y-126248000D01*
X103048000Y-127750000D01*
X102050000Y-127750000D01*
X102050000Y-126248000D01*
X100548000Y-126248000D01*
X100548000Y-127750000D01*
X99550000Y-127750000D01*
X99550000Y-126248000D01*
X98048000Y-126248000D01*
X98048000Y-127750000D01*
X96435500Y-127750000D01*
X96435499Y-126002128D01*
X96429091Y-125942517D01*
X96416628Y-125909103D01*
X96378797Y-125807671D01*
X96378793Y-125807664D01*
X96292547Y-125692455D01*
X96292544Y-125692452D01*
X96177335Y-125606206D01*
X96177328Y-125606202D01*
X96042482Y-125555908D01*
X96042483Y-125555908D01*
X95982883Y-125549501D01*
X95982881Y-125549500D01*
X95982873Y-125549500D01*
X95982865Y-125549500D01*
X95972309Y-125549500D01*
X95905270Y-125529815D01*
X95884628Y-125513181D01*
X95621447Y-125250000D01*
X98048000Y-125250000D01*
X99550000Y-125250000D01*
X100548000Y-125250000D01*
X102050000Y-125250000D01*
X103048000Y-125250000D01*
X104550000Y-125250000D01*
X105548000Y-125250000D01*
X107050000Y-125250000D01*
X108048000Y-125250000D01*
X109550000Y-125250000D01*
X110548000Y-125250000D01*
X112050000Y-125250000D01*
X113048000Y-125250000D01*
X114550000Y-125250000D01*
X115548000Y-125250000D01*
X116490114Y-125250000D01*
X116664368Y-125133566D01*
X116669512Y-125130309D01*
X116701106Y-125111373D01*
X116706401Y-125108373D01*
X116749623Y-125085271D01*
X116755062Y-125082534D01*
X116788344Y-125066794D01*
X116793905Y-125064329D01*
X117003051Y-124977699D01*
X117008728Y-124975509D01*
X117043380Y-124963110D01*
X117049155Y-124961202D01*
X117050000Y-124960945D01*
X117050000Y-124923446D01*
X118048000Y-124923446D01*
X118106409Y-124935065D01*
X118112349Y-124936399D01*
X118148084Y-124945351D01*
X118153952Y-124946975D01*
X118200845Y-124961202D01*
X118206620Y-124963110D01*
X118241272Y-124975509D01*
X118246949Y-124977699D01*
X118456095Y-125064329D01*
X118461656Y-125066794D01*
X118494938Y-125082534D01*
X118500377Y-125085271D01*
X118543599Y-125108373D01*
X118548894Y-125111373D01*
X118580488Y-125130309D01*
X118585632Y-125133566D01*
X118759886Y-125250000D01*
X119550000Y-125250000D01*
X120548000Y-125250000D01*
X121945231Y-125250000D01*
X121877431Y-125116935D01*
X121869985Y-125098958D01*
X121811617Y-124919319D01*
X121807075Y-124900399D01*
X121777527Y-124713840D01*
X121776000Y-124694442D01*
X121776000Y-124505558D01*
X121777527Y-124486160D01*
X121807075Y-124299601D01*
X121811617Y-124280681D01*
X121869985Y-124101042D01*
X121877431Y-124083065D01*
X121963183Y-123914768D01*
X121973349Y-123898178D01*
X122050000Y-123792675D01*
X122050000Y-123748000D01*
X120548000Y-123748000D01*
X120548000Y-125250000D01*
X119550000Y-125250000D01*
X119550000Y-123748000D01*
X118048000Y-123748000D01*
X118048000Y-124923446D01*
X117050000Y-124923446D01*
X117050000Y-123748000D01*
X115548000Y-123748000D01*
X115548000Y-125250000D01*
X114550000Y-125250000D01*
X114550000Y-123748000D01*
X113048000Y-123748000D01*
X113048000Y-125250000D01*
X112050000Y-125250000D01*
X112050000Y-123748000D01*
X110548000Y-123748000D01*
X110548000Y-125250000D01*
X109550000Y-125250000D01*
X109550000Y-123748000D01*
X108048000Y-123748000D01*
X108048000Y-125250000D01*
X107050000Y-125250000D01*
X107050000Y-123748000D01*
X105548000Y-123748000D01*
X105548000Y-125250000D01*
X104550000Y-125250000D01*
X104550000Y-123748000D01*
X103048000Y-123748000D01*
X103048000Y-125250000D01*
X102050000Y-125250000D01*
X102050000Y-123748000D01*
X100548000Y-123748000D01*
X100548000Y-125250000D01*
X99550000Y-125250000D01*
X99550000Y-123748000D01*
X98048000Y-123748000D01*
X98048000Y-125250000D01*
X95621447Y-125250000D01*
X95214408Y-124842962D01*
X95277993Y-124825925D01*
X95392007Y-124760099D01*
X95485099Y-124667007D01*
X95550925Y-124552993D01*
X95567962Y-124489409D01*
X96200270Y-125121717D01*
X96200270Y-125121716D01*
X96239622Y-125067554D01*
X96336095Y-124878217D01*
X96401757Y-124676130D01*
X96401757Y-124676127D01*
X96435000Y-124466246D01*
X96435000Y-124253753D01*
X96401757Y-124043872D01*
X96401757Y-124043869D01*
X96336095Y-123841782D01*
X96239624Y-123652449D01*
X96200270Y-123598282D01*
X96200269Y-123598282D01*
X95567962Y-124230590D01*
X95550925Y-124167007D01*
X95485099Y-124052993D01*
X95392007Y-123959901D01*
X95277993Y-123894075D01*
X95214409Y-123877037D01*
X95846716Y-123244728D01*
X95831555Y-123233713D01*
X124849500Y-123233713D01*
X124849500Y-123446286D01*
X124882753Y-123656239D01*
X124948444Y-123858414D01*
X125044951Y-124047820D01*
X125169890Y-124219786D01*
X125320213Y-124370109D01*
X125492179Y-124495048D01*
X125492181Y-124495049D01*
X125492184Y-124495051D01*
X125681588Y-124591557D01*
X125883757Y-124657246D01*
X126093713Y-124690500D01*
X126093714Y-124690500D01*
X126306286Y-124690500D01*
X126306287Y-124690500D01*
X126516243Y-124657246D01*
X126718412Y-124591557D01*
X126907816Y-124495051D01*
X127003097Y-124425826D01*
X127079786Y-124370109D01*
X127079788Y-124370106D01*
X127079792Y-124370104D01*
X127230104Y-124219792D01*
X127230106Y-124219788D01*
X127230109Y-124219786D01*
X127355048Y-124047820D01*
X127355047Y-124047820D01*
X127355051Y-124047816D01*
X127451557Y-123858412D01*
X127517246Y-123656243D01*
X127550500Y-123446287D01*
X127550500Y-123233713D01*
X127517246Y-123023757D01*
X127451557Y-122821588D01*
X127355051Y-122632184D01*
X127355049Y-122632181D01*
X127355048Y-122632179D01*
X127230109Y-122460213D01*
X127116181Y-122346285D01*
X127082696Y-122284962D01*
X127087680Y-122215270D01*
X127129552Y-122159337D01*
X127160529Y-122142422D01*
X127292086Y-122093354D01*
X127292093Y-122093350D01*
X127407187Y-122007190D01*
X127407190Y-122007187D01*
X127493350Y-121892093D01*
X127493354Y-121892086D01*
X127543596Y-121757379D01*
X127543598Y-121757372D01*
X127549999Y-121697844D01*
X127550000Y-121697827D01*
X127550000Y-121050000D01*
X126633012Y-121050000D01*
X126665925Y-120992993D01*
X126700000Y-120865826D01*
X126700000Y-120734174D01*
X126665925Y-120607007D01*
X126633012Y-120550000D01*
X127550000Y-120550000D01*
X127550000Y-119902172D01*
X127549999Y-119902155D01*
X127543598Y-119842627D01*
X127543596Y-119842620D01*
X127493354Y-119707913D01*
X127493350Y-119707906D01*
X127407190Y-119592812D01*
X127407187Y-119592809D01*
X127292093Y-119506649D01*
X127292086Y-119506645D01*
X127157379Y-119456403D01*
X127157372Y-119456401D01*
X127097844Y-119450000D01*
X126450000Y-119450000D01*
X126450000Y-120366988D01*
X126392993Y-120334075D01*
X126265826Y-120300000D01*
X126134174Y-120300000D01*
X126007007Y-120334075D01*
X125950000Y-120366988D01*
X125950000Y-119450000D01*
X125302155Y-119450000D01*
X125242627Y-119456401D01*
X125242620Y-119456403D01*
X125107913Y-119506645D01*
X125107906Y-119506649D01*
X124992812Y-119592809D01*
X124992809Y-119592812D01*
X124906649Y-119707906D01*
X124906645Y-119707913D01*
X124856403Y-119842620D01*
X124856401Y-119842627D01*
X124850000Y-119902155D01*
X124850000Y-120550000D01*
X125766988Y-120550000D01*
X125734075Y-120607007D01*
X125700000Y-120734174D01*
X125700000Y-120865826D01*
X125734075Y-120992993D01*
X125766988Y-121050000D01*
X124850000Y-121050000D01*
X124850000Y-121697844D01*
X124856401Y-121757372D01*
X124856403Y-121757379D01*
X124906645Y-121892086D01*
X124906649Y-121892093D01*
X124992809Y-122007187D01*
X124992812Y-122007190D01*
X125107906Y-122093350D01*
X125107913Y-122093354D01*
X125239470Y-122142422D01*
X125295404Y-122184293D01*
X125319821Y-122249758D01*
X125304969Y-122318031D01*
X125283819Y-122346285D01*
X125169889Y-122460215D01*
X125044951Y-122632179D01*
X124948444Y-122821585D01*
X124882753Y-123023760D01*
X124849500Y-123233713D01*
X95831555Y-123233713D01*
X95792550Y-123205375D01*
X95603217Y-123108904D01*
X95401129Y-123043242D01*
X95191246Y-123010000D01*
X94978754Y-123010000D01*
X94768872Y-123043242D01*
X94768869Y-123043242D01*
X94566782Y-123108904D01*
X94377439Y-123205380D01*
X94323282Y-123244727D01*
X94323282Y-123244728D01*
X94955591Y-123877037D01*
X94892007Y-123894075D01*
X94777993Y-123959901D01*
X94684901Y-124052993D01*
X94619075Y-124167007D01*
X94602037Y-124230591D01*
X93969728Y-123598282D01*
X93969727Y-123598282D01*
X93930380Y-123652439D01*
X93833904Y-123841782D01*
X93768242Y-124043869D01*
X93768242Y-124043872D01*
X93735000Y-124253753D01*
X93735000Y-124466246D01*
X93768242Y-124676127D01*
X93768242Y-124676130D01*
X93833904Y-124878217D01*
X93930375Y-125067550D01*
X93969728Y-125121716D01*
X94602037Y-124489408D01*
X94619075Y-124552993D01*
X94684901Y-124667007D01*
X94777993Y-124760099D01*
X94892007Y-124825925D01*
X94955590Y-124842962D01*
X94285370Y-125513181D01*
X94224047Y-125546666D01*
X94197698Y-125549500D01*
X94187134Y-125549500D01*
X94187123Y-125549501D01*
X94127516Y-125555908D01*
X93992671Y-125606202D01*
X93992664Y-125606206D01*
X93877455Y-125692452D01*
X93877452Y-125692455D01*
X93791206Y-125807664D01*
X93791202Y-125807671D01*
X93740908Y-125942517D01*
X93734501Y-126002116D01*
X93734501Y-126002123D01*
X93734500Y-126002135D01*
X92800000Y-126002135D01*
X92800000Y-122656888D01*
X100548000Y-122656888D01*
X100548000Y-122750000D01*
X102050000Y-122750000D01*
X103048000Y-122750000D01*
X104550000Y-122750000D01*
X108403488Y-122750000D01*
X109550000Y-122750000D01*
X110548000Y-122750000D01*
X112050000Y-122750000D01*
X113048000Y-122750000D01*
X114550000Y-122750000D01*
X115548000Y-122750000D01*
X117050000Y-122750000D01*
X118048000Y-122750000D01*
X119550000Y-122750000D01*
X120548000Y-122750000D01*
X122050000Y-122750000D01*
X123048000Y-122750000D01*
X123922931Y-122750000D01*
X123926131Y-122738653D01*
X123927545Y-122733993D01*
X124005342Y-122494560D01*
X124006936Y-122489963D01*
X124017121Y-122462353D01*
X124018893Y-122457825D01*
X124033891Y-122421608D01*
X124035846Y-122417139D01*
X124045188Y-122396871D01*
X124013638Y-122339091D01*
X124009677Y-122331177D01*
X123987419Y-122282441D01*
X123984030Y-122274261D01*
X123910421Y-122076904D01*
X123907942Y-122069564D01*
X123894332Y-122024695D01*
X123892315Y-122017212D01*
X123877972Y-121956501D01*
X123876428Y-121948916D01*
X123868522Y-121902738D01*
X123867455Y-121895069D01*
X123856289Y-121791217D01*
X123855977Y-121787905D01*
X123854364Y-121767856D01*
X123854142Y-121764542D01*
X123852713Y-121737855D01*
X123852580Y-121734539D01*
X123852044Y-121714491D01*
X123852000Y-121711177D01*
X123852000Y-121248000D01*
X123048000Y-121248000D01*
X123048000Y-122750000D01*
X122050000Y-122750000D01*
X122050000Y-121248000D01*
X120548000Y-121248000D01*
X120548000Y-122750000D01*
X119550000Y-122750000D01*
X119550000Y-121248000D01*
X118048000Y-121248000D01*
X118048000Y-122750000D01*
X117050000Y-122750000D01*
X117050000Y-121248000D01*
X115548000Y-121248000D01*
X115548000Y-122750000D01*
X114550000Y-122750000D01*
X114550000Y-121248000D01*
X113048000Y-121248000D01*
X113048000Y-122750000D01*
X112050000Y-122750000D01*
X112050000Y-121248000D01*
X110548000Y-121248000D01*
X110548000Y-122750000D01*
X109550000Y-122750000D01*
X109550000Y-121694975D01*
X109531819Y-121700883D01*
X109512899Y-121705425D01*
X109326340Y-121734973D01*
X109306942Y-121736500D01*
X109201644Y-121736500D01*
X109148023Y-121898318D01*
X109145556Y-121905096D01*
X109129446Y-121945647D01*
X109126591Y-121952266D01*
X109102044Y-122004912D01*
X109098806Y-122011360D01*
X109078088Y-122049785D01*
X109074481Y-122056032D01*
X108951879Y-122254803D01*
X108947913Y-122260833D01*
X108922872Y-122296593D01*
X108918566Y-122302377D01*
X108882536Y-122347944D01*
X108877898Y-122353471D01*
X108848887Y-122386069D01*
X108843939Y-122391313D01*
X108678813Y-122556439D01*
X108673569Y-122561387D01*
X108640971Y-122590398D01*
X108635444Y-122595036D01*
X108589877Y-122631066D01*
X108584093Y-122635372D01*
X108548333Y-122660413D01*
X108542303Y-122664379D01*
X108403488Y-122750000D01*
X104550000Y-122750000D01*
X104550000Y-121248000D01*
X103048000Y-121248000D01*
X103048000Y-122750000D01*
X102050000Y-122750000D01*
X102050000Y-121248000D01*
X101588302Y-121248000D01*
X101588109Y-121248741D01*
X101580106Y-121277120D01*
X101578692Y-121281783D01*
X101503320Y-121513750D01*
X101501727Y-121518344D01*
X101491543Y-121545953D01*
X101489770Y-121550484D01*
X101474772Y-121586700D01*
X101472818Y-121591167D01*
X101460475Y-121617943D01*
X101458349Y-121622327D01*
X101347614Y-121839655D01*
X101345319Y-121843948D01*
X101330929Y-121869644D01*
X101328467Y-121873844D01*
X101307986Y-121907267D01*
X101305361Y-121911369D01*
X101288995Y-121935863D01*
X101286210Y-121939858D01*
X101142837Y-122137196D01*
X101139894Y-122141084D01*
X101121635Y-122164243D01*
X101118545Y-122168008D01*
X101093084Y-122197815D01*
X101089850Y-122201454D01*
X101069876Y-122223059D01*
X101066506Y-122226563D01*
X100894063Y-122399006D01*
X100890559Y-122402376D01*
X100868954Y-122422350D01*
X100865315Y-122425584D01*
X100835508Y-122451045D01*
X100831743Y-122454135D01*
X100808584Y-122472394D01*
X100804696Y-122475337D01*
X100607358Y-122618710D01*
X100603363Y-122621495D01*
X100578869Y-122637861D01*
X100574767Y-122640486D01*
X100548000Y-122656888D01*
X92800000Y-122656888D01*
X92800000Y-119642135D01*
X93734500Y-119642135D01*
X93734500Y-121437870D01*
X93734501Y-121437876D01*
X93740908Y-121497483D01*
X93791202Y-121632328D01*
X93791206Y-121632335D01*
X93877452Y-121747544D01*
X93877455Y-121747547D01*
X93992664Y-121833793D01*
X93992671Y-121833797D01*
X94127517Y-121884091D01*
X94127516Y-121884091D01*
X94134444Y-121884835D01*
X94187127Y-121890500D01*
X95982872Y-121890499D01*
X96042483Y-121884091D01*
X96177331Y-121833796D01*
X96292546Y-121747546D01*
X96378796Y-121632331D01*
X96429091Y-121497483D01*
X96435500Y-121437873D01*
X96435500Y-120585148D01*
X98054500Y-120585148D01*
X98054500Y-120789851D01*
X98086522Y-120992034D01*
X98149781Y-121186723D01*
X98242715Y-121369113D01*
X98363028Y-121534713D01*
X98507786Y-121679471D01*
X98624879Y-121764542D01*
X98673390Y-121799787D01*
X98760061Y-121843948D01*
X98855776Y-121892718D01*
X98855778Y-121892718D01*
X98855781Y-121892720D01*
X98913177Y-121911369D01*
X99050465Y-121955977D01*
X99151557Y-121971988D01*
X99252648Y-121988000D01*
X99252649Y-121988000D01*
X99457351Y-121988000D01*
X99457352Y-121988000D01*
X99659534Y-121955977D01*
X99854219Y-121892720D01*
X100036610Y-121799787D01*
X100154011Y-121714491D01*
X100202213Y-121679471D01*
X100202215Y-121679468D01*
X100202219Y-121679466D01*
X100346966Y-121534719D01*
X100346968Y-121534715D01*
X100346971Y-121534713D01*
X100417330Y-121437870D01*
X100467287Y-121369110D01*
X100560220Y-121186719D01*
X100623477Y-120992034D01*
X100655500Y-120789852D01*
X100655500Y-120585148D01*
X100623477Y-120382966D01*
X100560220Y-120188281D01*
X100560218Y-120188278D01*
X100560218Y-120188276D01*
X100508865Y-120087491D01*
X100467287Y-120005890D01*
X100451894Y-119984703D01*
X100346971Y-119840286D01*
X100202213Y-119695528D01*
X100036613Y-119575215D01*
X100036612Y-119575214D01*
X100036610Y-119575213D01*
X99958365Y-119535345D01*
X99854223Y-119482281D01*
X99659534Y-119419022D01*
X99484995Y-119391378D01*
X99457352Y-119387000D01*
X99252648Y-119387000D01*
X99228329Y-119390851D01*
X99050465Y-119419022D01*
X98855776Y-119482281D01*
X98673386Y-119575215D01*
X98507786Y-119695528D01*
X98363028Y-119840286D01*
X98242715Y-120005886D01*
X98149781Y-120188276D01*
X98086522Y-120382965D01*
X98054500Y-120585148D01*
X96435500Y-120585148D01*
X96435499Y-119642128D01*
X96429091Y-119582517D01*
X96415019Y-119544789D01*
X96378797Y-119447671D01*
X96378793Y-119447664D01*
X96292547Y-119332455D01*
X96292544Y-119332452D01*
X96177335Y-119246206D01*
X96177328Y-119246202D01*
X96042482Y-119195908D01*
X96042483Y-119195908D01*
X95982883Y-119189501D01*
X95982881Y-119189500D01*
X95982873Y-119189500D01*
X95982865Y-119189500D01*
X95972309Y-119189500D01*
X95905270Y-119169815D01*
X95884628Y-119153181D01*
X95214408Y-118482962D01*
X95277993Y-118465925D01*
X95392007Y-118400099D01*
X95485099Y-118307007D01*
X95550925Y-118192993D01*
X95567962Y-118129409D01*
X96200270Y-118761717D01*
X96200270Y-118761716D01*
X96210236Y-118748000D01*
X100595124Y-118748000D01*
X100603363Y-118753505D01*
X100607358Y-118756290D01*
X100804696Y-118899663D01*
X100808584Y-118902606D01*
X100831743Y-118920865D01*
X100835508Y-118923955D01*
X100865315Y-118949416D01*
X100868954Y-118952650D01*
X100890559Y-118972624D01*
X100894063Y-118975994D01*
X101066506Y-119148437D01*
X101069876Y-119151941D01*
X101089850Y-119173546D01*
X101093084Y-119177185D01*
X101118545Y-119206992D01*
X101121635Y-119210757D01*
X101139894Y-119233916D01*
X101142837Y-119237804D01*
X101286210Y-119435142D01*
X101288995Y-119439137D01*
X101305361Y-119463631D01*
X101307986Y-119467733D01*
X101328467Y-119501156D01*
X101330929Y-119505356D01*
X101345319Y-119531052D01*
X101347614Y-119535345D01*
X101458349Y-119752673D01*
X101460475Y-119757057D01*
X101472818Y-119783833D01*
X101474772Y-119788300D01*
X101489770Y-119824516D01*
X101491543Y-119829047D01*
X101501727Y-119856656D01*
X101503320Y-119861250D01*
X101578692Y-120093217D01*
X101580106Y-120097880D01*
X101588109Y-120126259D01*
X101589340Y-120130978D01*
X101598488Y-120169097D01*
X101599530Y-120173848D01*
X101605270Y-120202711D01*
X101606125Y-120207499D01*
X101612857Y-120250000D01*
X102050000Y-120250000D01*
X103048000Y-120250000D01*
X104550000Y-120250000D01*
X104550000Y-120087483D01*
X105674500Y-120087483D01*
X105674500Y-121287501D01*
X105674501Y-121287518D01*
X105685000Y-121390296D01*
X105685001Y-121390299D01*
X105732856Y-121534713D01*
X105740186Y-121556834D01*
X105832288Y-121706156D01*
X105956344Y-121830212D01*
X106105666Y-121922314D01*
X106272203Y-121977499D01*
X106374991Y-121988000D01*
X107575008Y-121987999D01*
X107677797Y-121977499D01*
X107844334Y-121922314D01*
X107993656Y-121830212D01*
X108117712Y-121706156D01*
X108209814Y-121556834D01*
X108264999Y-121390297D01*
X108275500Y-121287509D01*
X108275499Y-120250000D01*
X110548000Y-120250000D01*
X112050000Y-120250000D01*
X118048000Y-120250000D01*
X119550000Y-120250000D01*
X120548000Y-120250000D01*
X122050000Y-120250000D01*
X123048000Y-120250000D01*
X123852000Y-120250000D01*
X123852000Y-119888823D01*
X123852044Y-119885509D01*
X123852580Y-119865461D01*
X123852713Y-119862145D01*
X123854142Y-119835458D01*
X123854364Y-119832144D01*
X123855977Y-119812095D01*
X123856289Y-119808783D01*
X123867455Y-119704931D01*
X123868522Y-119697262D01*
X123876428Y-119651084D01*
X123877972Y-119643499D01*
X123892315Y-119582788D01*
X123894332Y-119575305D01*
X123907942Y-119530436D01*
X123910421Y-119523096D01*
X123984030Y-119325739D01*
X123987419Y-119317559D01*
X124009677Y-119268823D01*
X124013638Y-119260909D01*
X124047815Y-119198319D01*
X124052333Y-119190705D01*
X124081297Y-119145638D01*
X124086345Y-119138368D01*
X124215243Y-118966184D01*
X124220796Y-118959293D01*
X124255876Y-118918808D01*
X124261908Y-118912329D01*
X124312329Y-118861908D01*
X124318808Y-118855876D01*
X124359293Y-118820796D01*
X124366184Y-118815243D01*
X124456008Y-118748000D01*
X123048000Y-118748000D01*
X123048000Y-120250000D01*
X122050000Y-120250000D01*
X122050000Y-118748000D01*
X120548000Y-118748000D01*
X120548000Y-120250000D01*
X119550000Y-120250000D01*
X119550000Y-118748000D01*
X118048000Y-118748000D01*
X118048000Y-120250000D01*
X112050000Y-120250000D01*
X112050000Y-119885643D01*
X112016929Y-119890549D01*
X112010888Y-119891294D01*
X111962116Y-119896097D01*
X111956046Y-119896545D01*
X111919274Y-119898351D01*
X111913191Y-119898500D01*
X111686809Y-119898500D01*
X111680726Y-119898351D01*
X111643954Y-119896545D01*
X111637884Y-119896097D01*
X111589112Y-119891294D01*
X111583071Y-119890549D01*
X111546640Y-119885145D01*
X111540643Y-119884104D01*
X111318592Y-119839935D01*
X111312651Y-119838601D01*
X111276916Y-119829649D01*
X111271048Y-119828025D01*
X111224155Y-119813798D01*
X111218380Y-119811890D01*
X111183728Y-119799491D01*
X111178051Y-119797301D01*
X110968905Y-119710671D01*
X110963344Y-119708206D01*
X110930062Y-119692466D01*
X110924623Y-119689729D01*
X110881401Y-119666627D01*
X110876106Y-119663627D01*
X110844512Y-119644691D01*
X110839368Y-119641434D01*
X110812528Y-119623500D01*
X110548000Y-119623500D01*
X110548000Y-120250000D01*
X108275499Y-120250000D01*
X108275499Y-120087492D01*
X108264999Y-119984703D01*
X108247960Y-119933286D01*
X108245559Y-119863459D01*
X108277984Y-119806604D01*
X109422771Y-118661819D01*
X109484094Y-118628334D01*
X109510452Y-118625500D01*
X111100639Y-118625500D01*
X111167678Y-118645185D01*
X111188321Y-118661820D01*
X111225961Y-118699461D01*
X111225965Y-118699464D01*
X111373446Y-118798009D01*
X111373459Y-118798016D01*
X111442355Y-118826553D01*
X111537334Y-118865894D01*
X111537336Y-118865894D01*
X111537341Y-118865896D01*
X111711304Y-118900499D01*
X111711307Y-118900500D01*
X111711309Y-118900500D01*
X111888693Y-118900500D01*
X111888694Y-118900499D01*
X111946682Y-118888964D01*
X112062658Y-118865896D01*
X112062661Y-118865894D01*
X112062666Y-118865894D01*
X112226547Y-118798013D01*
X112374035Y-118699464D01*
X112499464Y-118574035D01*
X112598013Y-118426547D01*
X112645748Y-118311304D01*
X113207300Y-118311304D01*
X113207300Y-118488695D01*
X113241903Y-118662658D01*
X113241906Y-118662667D01*
X113309783Y-118826540D01*
X113309790Y-118826553D01*
X113408335Y-118974034D01*
X113408338Y-118974038D01*
X113533761Y-119099461D01*
X113533765Y-119099464D01*
X113681246Y-119198009D01*
X113681259Y-119198016D01*
X113767931Y-119233916D01*
X113845134Y-119265894D01*
X113845136Y-119265894D01*
X113845141Y-119265896D01*
X114019104Y-119300499D01*
X114019107Y-119300500D01*
X114019109Y-119300500D01*
X114196493Y-119300500D01*
X114196494Y-119300499D01*
X114254482Y-119288964D01*
X114370458Y-119265896D01*
X114370461Y-119265894D01*
X114370466Y-119265894D01*
X114534347Y-119198013D01*
X114681835Y-119099464D01*
X114719479Y-119061820D01*
X114780801Y-119028334D01*
X114807161Y-119025500D01*
X114958439Y-119025500D01*
X115025478Y-119045185D01*
X115046121Y-119061820D01*
X115083761Y-119099461D01*
X115083765Y-119099464D01*
X115231246Y-119198009D01*
X115231259Y-119198016D01*
X115317931Y-119233916D01*
X115395134Y-119265894D01*
X115395136Y-119265894D01*
X115395141Y-119265896D01*
X115569104Y-119300499D01*
X115569107Y-119300500D01*
X115569109Y-119300500D01*
X115746493Y-119300500D01*
X115746494Y-119300499D01*
X115804482Y-119288964D01*
X115920458Y-119265896D01*
X115920461Y-119265894D01*
X115920466Y-119265894D01*
X116084347Y-119198013D01*
X116231835Y-119099464D01*
X116357264Y-118974035D01*
X116455813Y-118826547D01*
X116523694Y-118662666D01*
X116523863Y-118661820D01*
X116558299Y-118488695D01*
X116558300Y-118488693D01*
X116558300Y-118311306D01*
X116558299Y-118311304D01*
X116523696Y-118137341D01*
X116523693Y-118137332D01*
X116455816Y-117973459D01*
X116455809Y-117973446D01*
X116357264Y-117825965D01*
X116357261Y-117825961D01*
X116281300Y-117750000D01*
X118048000Y-117750000D01*
X119550000Y-117750000D01*
X120548000Y-117750000D01*
X122050000Y-117750000D01*
X123048000Y-117750000D01*
X124550000Y-117750000D01*
X125548000Y-117750000D01*
X126876000Y-117750000D01*
X126876000Y-116248000D01*
X125548000Y-116248000D01*
X125548000Y-117750000D01*
X124550000Y-117750000D01*
X124550000Y-116248000D01*
X123048000Y-116248000D01*
X123048000Y-117750000D01*
X122050000Y-117750000D01*
X122050000Y-116248000D01*
X120548000Y-116248000D01*
X120548000Y-117750000D01*
X119550000Y-117750000D01*
X119550000Y-116248000D01*
X118048000Y-116248000D01*
X118048000Y-117750000D01*
X116281300Y-117750000D01*
X116231838Y-117700538D01*
X116231834Y-117700535D01*
X116084353Y-117601990D01*
X116084340Y-117601983D01*
X115920467Y-117534106D01*
X115920458Y-117534103D01*
X115746494Y-117499500D01*
X115746491Y-117499500D01*
X115569109Y-117499500D01*
X115569106Y-117499500D01*
X115395141Y-117534103D01*
X115395132Y-117534106D01*
X115231259Y-117601983D01*
X115231246Y-117601990D01*
X115083765Y-117700535D01*
X115083761Y-117700538D01*
X115046121Y-117738180D01*
X114984799Y-117771666D01*
X114958439Y-117774500D01*
X114807161Y-117774500D01*
X114740122Y-117754815D01*
X114719479Y-117738180D01*
X114681838Y-117700538D01*
X114681834Y-117700535D01*
X114534353Y-117601990D01*
X114534340Y-117601983D01*
X114370467Y-117534106D01*
X114370458Y-117534103D01*
X114196494Y-117499500D01*
X114196491Y-117499500D01*
X114019109Y-117499500D01*
X114019106Y-117499500D01*
X113845141Y-117534103D01*
X113845132Y-117534106D01*
X113681259Y-117601983D01*
X113681246Y-117601990D01*
X113533765Y-117700535D01*
X113533761Y-117700538D01*
X113408338Y-117825961D01*
X113408335Y-117825965D01*
X113309790Y-117973446D01*
X113309783Y-117973459D01*
X113241906Y-118137332D01*
X113241903Y-118137341D01*
X113207300Y-118311304D01*
X112645748Y-118311304D01*
X112665894Y-118262666D01*
X112700500Y-118088691D01*
X112700500Y-117911309D01*
X112700500Y-117911306D01*
X112700499Y-117911304D01*
X112665896Y-117737341D01*
X112665893Y-117737332D01*
X112598016Y-117573459D01*
X112598009Y-117573446D01*
X112499464Y-117425965D01*
X112499461Y-117425961D01*
X112374038Y-117300538D01*
X112374034Y-117300535D01*
X112226553Y-117201990D01*
X112226540Y-117201983D01*
X112062667Y-117134106D01*
X112062658Y-117134103D01*
X111888694Y-117099500D01*
X111888691Y-117099500D01*
X111711309Y-117099500D01*
X111711306Y-117099500D01*
X111537341Y-117134103D01*
X111537332Y-117134106D01*
X111373459Y-117201983D01*
X111373446Y-117201990D01*
X111225965Y-117300535D01*
X111225961Y-117300538D01*
X111188321Y-117338180D01*
X111126999Y-117371666D01*
X111100639Y-117374500D01*
X109138389Y-117374500D01*
X109077971Y-117386518D01*
X109034743Y-117395116D01*
X109017546Y-117398537D01*
X108903716Y-117445687D01*
X108903707Y-117445692D01*
X108801268Y-117514140D01*
X108757705Y-117557703D01*
X108714142Y-117601267D01*
X108714139Y-117601270D01*
X106964727Y-119350681D01*
X106903404Y-119384166D01*
X106877046Y-119387000D01*
X106374998Y-119387000D01*
X106374980Y-119387001D01*
X106272203Y-119397500D01*
X106272200Y-119397501D01*
X106105668Y-119452685D01*
X106105663Y-119452687D01*
X105956342Y-119544789D01*
X105832289Y-119668842D01*
X105740187Y-119818163D01*
X105740185Y-119818168D01*
X105716201Y-119890549D01*
X105685001Y-119984703D01*
X105685001Y-119984704D01*
X105685000Y-119984704D01*
X105674500Y-120087483D01*
X104550000Y-120087483D01*
X104550000Y-118748000D01*
X103048000Y-118748000D01*
X103048000Y-120250000D01*
X102050000Y-120250000D01*
X102050000Y-118748000D01*
X100595124Y-118748000D01*
X96210236Y-118748000D01*
X96239622Y-118707554D01*
X96336095Y-118518217D01*
X96401757Y-118316130D01*
X96401757Y-118316127D01*
X96435000Y-118106246D01*
X96435000Y-117893753D01*
X96412231Y-117750000D01*
X98048000Y-117750000D01*
X99550000Y-117750000D01*
X100548000Y-117750000D01*
X102050000Y-117750000D01*
X103048000Y-117750000D01*
X104550000Y-117750000D01*
X105548000Y-117750000D01*
X107050000Y-117750000D01*
X107050000Y-116856023D01*
X108048000Y-116856023D01*
X108112899Y-116791124D01*
X108117307Y-116786928D01*
X108144595Y-116762195D01*
X108149205Y-116758218D01*
X108187088Y-116727129D01*
X108191887Y-116723384D01*
X108221460Y-116701452D01*
X108226434Y-116697949D01*
X108369630Y-116602267D01*
X108374775Y-116599009D01*
X108406368Y-116580074D01*
X108411663Y-116577075D01*
X108435636Y-116564262D01*
X113048000Y-116564262D01*
X113057991Y-116573318D01*
X113062400Y-116577516D01*
X113208136Y-116723252D01*
X113232423Y-116710271D01*
X113237862Y-116707534D01*
X113271144Y-116691794D01*
X113276705Y-116689329D01*
X113485851Y-116602699D01*
X113491528Y-116600509D01*
X113526180Y-116588110D01*
X113531955Y-116586202D01*
X113578848Y-116571975D01*
X113584716Y-116570351D01*
X113620451Y-116561399D01*
X113626392Y-116560065D01*
X113848443Y-116515896D01*
X113854440Y-116514855D01*
X113890871Y-116509451D01*
X113896912Y-116508706D01*
X113945684Y-116503903D01*
X113951754Y-116503455D01*
X113988526Y-116501649D01*
X113994609Y-116501500D01*
X114220991Y-116501500D01*
X114227074Y-116501649D01*
X114263846Y-116503455D01*
X114269916Y-116503903D01*
X114318688Y-116508706D01*
X114324729Y-116509451D01*
X114361160Y-116514855D01*
X114367157Y-116515896D01*
X114550000Y-116552265D01*
X114550000Y-116501500D01*
X115548000Y-116501500D01*
X115770991Y-116501500D01*
X115777074Y-116501649D01*
X115813846Y-116503455D01*
X115819916Y-116503903D01*
X115868688Y-116508706D01*
X115874729Y-116509451D01*
X115911160Y-116514855D01*
X115917157Y-116515896D01*
X116139208Y-116560065D01*
X116145149Y-116561399D01*
X116180884Y-116570351D01*
X116186752Y-116571975D01*
X116233645Y-116586202D01*
X116239420Y-116588110D01*
X116274072Y-116600509D01*
X116279749Y-116602699D01*
X116488895Y-116689329D01*
X116494456Y-116691794D01*
X116527738Y-116707534D01*
X116533177Y-116710271D01*
X116576399Y-116733373D01*
X116581694Y-116736373D01*
X116613288Y-116755309D01*
X116618432Y-116758566D01*
X116806669Y-116884343D01*
X116811645Y-116887847D01*
X116841217Y-116909779D01*
X116846015Y-116913524D01*
X116883897Y-116944613D01*
X116888504Y-116948587D01*
X116915791Y-116973318D01*
X116920200Y-116977516D01*
X117050000Y-117107316D01*
X117050000Y-116248000D01*
X115548000Y-116248000D01*
X115548000Y-116501500D01*
X114550000Y-116501500D01*
X114550000Y-116248000D01*
X113048000Y-116248000D01*
X113048000Y-116564262D01*
X108435636Y-116564262D01*
X108454884Y-116553974D01*
X108460318Y-116551239D01*
X108493597Y-116535499D01*
X108499161Y-116533032D01*
X108658263Y-116467130D01*
X108663941Y-116464940D01*
X108698604Y-116452537D01*
X108704381Y-116450628D01*
X108751278Y-116436401D01*
X108757146Y-116434777D01*
X108792876Y-116425827D01*
X108798815Y-116424494D01*
X108883275Y-116407694D01*
X108967731Y-116390895D01*
X108973730Y-116389854D01*
X109010159Y-116384451D01*
X109016198Y-116383706D01*
X109064969Y-116378903D01*
X109071039Y-116378455D01*
X109107811Y-116376649D01*
X109113894Y-116376500D01*
X109550000Y-116376500D01*
X109550000Y-116248000D01*
X108048000Y-116248000D01*
X108048000Y-116856023D01*
X107050000Y-116856023D01*
X107050000Y-116248000D01*
X105548000Y-116248000D01*
X105548000Y-117750000D01*
X104550000Y-117750000D01*
X104550000Y-116248000D01*
X103048000Y-116248000D01*
X103048000Y-117750000D01*
X102050000Y-117750000D01*
X102050000Y-116248000D01*
X100548000Y-116248000D01*
X100548000Y-117750000D01*
X99550000Y-117750000D01*
X99550000Y-116248000D01*
X98048000Y-116248000D01*
X98048000Y-117750000D01*
X96412231Y-117750000D01*
X96401757Y-117683872D01*
X96401757Y-117683869D01*
X96336095Y-117481782D01*
X96239624Y-117292449D01*
X96200270Y-117238282D01*
X96200269Y-117238282D01*
X95567962Y-117870590D01*
X95550925Y-117807007D01*
X95485099Y-117692993D01*
X95392007Y-117599901D01*
X95277993Y-117534075D01*
X95214409Y-117517037D01*
X95846716Y-116884728D01*
X95792550Y-116845375D01*
X95603217Y-116748904D01*
X95401129Y-116683242D01*
X95191246Y-116650000D01*
X94978754Y-116650000D01*
X94768872Y-116683242D01*
X94768869Y-116683242D01*
X94566782Y-116748904D01*
X94377439Y-116845380D01*
X94323282Y-116884727D01*
X94323282Y-116884728D01*
X94955591Y-117517037D01*
X94892007Y-117534075D01*
X94777993Y-117599901D01*
X94684901Y-117692993D01*
X94619075Y-117807007D01*
X94602037Y-117870591D01*
X93969728Y-117238282D01*
X93969727Y-117238282D01*
X93930380Y-117292439D01*
X93833904Y-117481782D01*
X93768242Y-117683869D01*
X93768242Y-117683872D01*
X93735000Y-117893753D01*
X93735000Y-118106246D01*
X93768242Y-118316127D01*
X93768242Y-118316130D01*
X93833904Y-118518217D01*
X93930375Y-118707550D01*
X93969728Y-118761716D01*
X94602037Y-118129408D01*
X94619075Y-118192993D01*
X94684901Y-118307007D01*
X94777993Y-118400099D01*
X94892007Y-118465925D01*
X94955590Y-118482962D01*
X94285370Y-119153181D01*
X94224047Y-119186666D01*
X94197698Y-119189500D01*
X94187134Y-119189500D01*
X94187123Y-119189501D01*
X94127516Y-119195908D01*
X93992671Y-119246202D01*
X93992664Y-119246206D01*
X93877455Y-119332452D01*
X93877452Y-119332455D01*
X93791206Y-119447664D01*
X93791202Y-119447671D01*
X93740908Y-119582517D01*
X93734501Y-119642116D01*
X93734501Y-119642123D01*
X93734500Y-119642135D01*
X92800000Y-119642135D01*
X92800000Y-115250000D01*
X95548000Y-115250000D01*
X97050000Y-115250000D01*
X98048000Y-115250000D01*
X99550000Y-115250000D01*
X100548000Y-115250000D01*
X102050000Y-115250000D01*
X103048000Y-115250000D01*
X104550000Y-115250000D01*
X105548000Y-115250000D01*
X107050000Y-115250000D01*
X108048000Y-115250000D01*
X109550000Y-115250000D01*
X110548000Y-115250000D01*
X112050000Y-115250000D01*
X113048000Y-115250000D01*
X114550000Y-115250000D01*
X115548000Y-115250000D01*
X117050000Y-115250000D01*
X118048000Y-115250000D01*
X119550000Y-115250000D01*
X120548000Y-115250000D01*
X122050000Y-115250000D01*
X123048000Y-115250000D01*
X124550000Y-115250000D01*
X125548000Y-115250000D01*
X126876000Y-115250000D01*
X126876000Y-115188098D01*
X126768540Y-115116296D01*
X126763564Y-115112791D01*
X126733991Y-115090858D01*
X126729193Y-115087114D01*
X126691311Y-115056025D01*
X126686704Y-115052051D01*
X126659417Y-115027320D01*
X126655008Y-115023122D01*
X126476878Y-114844992D01*
X126472680Y-114840583D01*
X126447949Y-114813296D01*
X126443975Y-114808689D01*
X126412886Y-114770807D01*
X126409142Y-114766009D01*
X126387209Y-114736436D01*
X126383704Y-114731460D01*
X126311901Y-114624000D01*
X125548000Y-114624000D01*
X125548000Y-115250000D01*
X124550000Y-115250000D01*
X124550000Y-114624000D01*
X123048000Y-114624000D01*
X123048000Y-115250000D01*
X122050000Y-115250000D01*
X122050000Y-114624000D01*
X120548000Y-114624000D01*
X120548000Y-115250000D01*
X119550000Y-115250000D01*
X119550000Y-114624000D01*
X118048000Y-114624000D01*
X118048000Y-115250000D01*
X117050000Y-115250000D01*
X117050000Y-114624000D01*
X115548000Y-114624000D01*
X115548000Y-115250000D01*
X114550000Y-115250000D01*
X114550000Y-114624000D01*
X113048000Y-114624000D01*
X113048000Y-115250000D01*
X112050000Y-115250000D01*
X112050000Y-114624000D01*
X110548000Y-114624000D01*
X110548000Y-115250000D01*
X109550000Y-115250000D01*
X109550000Y-114624000D01*
X108048000Y-114624000D01*
X108048000Y-115250000D01*
X107050000Y-115250000D01*
X107050000Y-114624000D01*
X105548000Y-114624000D01*
X105548000Y-115250000D01*
X104550000Y-115250000D01*
X104550000Y-114624000D01*
X103048000Y-114624000D01*
X103048000Y-115250000D01*
X102050000Y-115250000D01*
X102050000Y-114624000D01*
X100548000Y-114624000D01*
X100548000Y-115250000D01*
X99550000Y-115250000D01*
X99550000Y-114624000D01*
X98048000Y-114624000D01*
X98048000Y-115250000D01*
X97050000Y-115250000D01*
X97050000Y-114624000D01*
X95548000Y-114624000D01*
X95548000Y-115250000D01*
X92800000Y-115250000D01*
X92800000Y-114652007D01*
X92819685Y-114584968D01*
X92872489Y-114539213D01*
X92899809Y-114530390D01*
X92947614Y-114520880D01*
X93100458Y-114490478D01*
X93287918Y-114412830D01*
X93456627Y-114300102D01*
X93600102Y-114156627D01*
X93712830Y-113987918D01*
X93713999Y-113985097D01*
X93790476Y-113800462D01*
X93790478Y-113800458D01*
X93797025Y-113767539D01*
X93830391Y-113599808D01*
X93862776Y-113537897D01*
X93923492Y-113503323D01*
X93952008Y-113500000D01*
X126847992Y-113500000D01*
X126915031Y-113519685D01*
G37*
%TD.AperFunction*%
%TD*%
M02*
