%TF.GenerationSoftware,KiCad,Pcbnew,9.0.1*%
%TF.CreationDate,2025-07-01T21:06:53-04:00*%
%TF.ProjectId,Tiny Solar Power Suppy,54696e79-2053-46f6-9c61-7220506f7765,rev?*%
%TF.SameCoordinates,Original*%
%TF.FileFunction,Drillmap*%
%TF.FilePolarity,Positive*%
%FSLAX45Y45*%
G04 Gerber Fmt 4.5, Leading zero omitted, Abs format (unit mm)*
G04 Created by KiCad (PCBNEW 9.0.1) date 2025-07-01 21:06:53*
%MOMM*%
%LPD*%
G01*
G04 APERTURE LIST*
%ADD10C,0.050000*%
%ADD11C,0.200000*%
%ADD12C,0.100000*%
G04 APERTURE END LIST*
D10*
X9090000Y-13130000D02*
X9090000Y-11350000D01*
X12800000Y-13320000D02*
X9280000Y-13320000D01*
X12990000Y-11350000D02*
X12990000Y-13130000D01*
X9280000Y-11160000D02*
X12800000Y-11160000D01*
X9090000Y-11350000D02*
G75*
G02*
X9280000Y-11160000I190000J0D01*
G01*
X9280000Y-13320000D02*
G75*
G02*
X9090000Y-13130000I0J190000D01*
G01*
X12990000Y-13130000D02*
G75*
G02*
X12800000Y-13320000I-190000J0D01*
G01*
X12800000Y-11160000D02*
G75*
G02*
X12990000Y-11350000I0J-190000D01*
G01*
X9382956Y-13130000D02*
G75*
G02*
X9177044Y-13130000I-102956J0D01*
G01*
X9177044Y-13130000D02*
G75*
G02*
X9382956Y-13130000I102956J0D01*
G01*
X12902956Y-11350000D02*
G75*
G02*
X12697044Y-11350000I-102956J0D01*
G01*
X12697044Y-11350000D02*
G75*
G02*
X12902956Y-11350000I102956J0D01*
G01*
X9382956Y-11350000D02*
G75*
G02*
X9177044Y-11350000I-102956J0D01*
G01*
X9177044Y-11350000D02*
G75*
G02*
X9382956Y-11350000I102956J0D01*
G01*
X12902956Y-13130000D02*
G75*
G02*
X12697044Y-13130000I-102956J0D01*
G01*
X12697044Y-13130000D02*
G75*
G02*
X12902956Y-13130000I102956J0D01*
G01*
D11*
D12*
X10200000Y-13002600D02*
X10240000Y-13042600D01*
X10240000Y-13002600D02*
X10200000Y-13042600D01*
X10820000Y-12880000D02*
X10860000Y-12920000D01*
X10860000Y-12880000D02*
X10820000Y-12920000D01*
X10870000Y-12710000D02*
X10910000Y-12750000D01*
X10910000Y-12710000D02*
X10870000Y-12750000D01*
X10901250Y-12021250D02*
X10941250Y-12061250D01*
X10941250Y-12021250D02*
X10901250Y-12061250D01*
X11045000Y-12690000D02*
X11085000Y-12730000D01*
X11085000Y-12690000D02*
X11045000Y-12730000D01*
X11160000Y-11780000D02*
X11200000Y-11820000D01*
X11200000Y-11780000D02*
X11160000Y-11820000D01*
X11390780Y-11820000D02*
X11430780Y-11860000D01*
X11430780Y-11820000D02*
X11390780Y-11860000D01*
X11545780Y-11820000D02*
X11585780Y-11860000D01*
X11585780Y-11820000D02*
X11545780Y-11860000D01*
X11742500Y-12657500D02*
X11782500Y-12697500D01*
X11782500Y-12657500D02*
X11742500Y-12697500D01*
X12290000Y-12440000D02*
X12330000Y-12480000D01*
X12330000Y-12440000D02*
X12290000Y-12480000D01*
X9975500Y-12068750D02*
G75*
G02*
X9895500Y-12068750I-40000J0D01*
G01*
X9895500Y-12068750D02*
G75*
G02*
X9975500Y-12068750I40000J0D01*
G01*
X10737500Y-12068750D02*
G75*
G02*
X10657500Y-12068750I-40000J0D01*
G01*
X10657500Y-12068750D02*
G75*
G02*
X10737500Y-12068750I40000J0D01*
G01*
X9508500Y-11750000D02*
X9508500Y-11850000D01*
X9458500Y-11800000D02*
X9558500Y-11800000D01*
X9508500Y-12004000D02*
X9508500Y-12104000D01*
X9458500Y-12054000D02*
X9558500Y-12054000D01*
X9508500Y-12386000D02*
X9508500Y-12486000D01*
X9458500Y-12436000D02*
X9558500Y-12436000D01*
X9508500Y-12640000D02*
X9508500Y-12740000D01*
X9458500Y-12690000D02*
X9558500Y-12690000D01*
X12620000Y-12030000D02*
X12620000Y-12130000D01*
X12570000Y-12080000D02*
X12670000Y-12080000D01*
X12620000Y-12284000D02*
X12620000Y-12384000D01*
X12570000Y-12334000D02*
X12670000Y-12334000D01*
D11*
X9348277Y-13633984D02*
X9348277Y-13433984D01*
X9348277Y-13433984D02*
X9395896Y-13433984D01*
X9395896Y-13433984D02*
X9424467Y-13443508D01*
X9424467Y-13443508D02*
X9443515Y-13462555D01*
X9443515Y-13462555D02*
X9453039Y-13481603D01*
X9453039Y-13481603D02*
X9462563Y-13519698D01*
X9462563Y-13519698D02*
X9462563Y-13548269D01*
X9462563Y-13548269D02*
X9453039Y-13586365D01*
X9453039Y-13586365D02*
X9443515Y-13605412D01*
X9443515Y-13605412D02*
X9424467Y-13624460D01*
X9424467Y-13624460D02*
X9395896Y-13633984D01*
X9395896Y-13633984D02*
X9348277Y-13633984D01*
X9548277Y-13633984D02*
X9548277Y-13500650D01*
X9548277Y-13538746D02*
X9557801Y-13519698D01*
X9557801Y-13519698D02*
X9567324Y-13510174D01*
X9567324Y-13510174D02*
X9586372Y-13500650D01*
X9586372Y-13500650D02*
X9605420Y-13500650D01*
X9672086Y-13633984D02*
X9672086Y-13500650D01*
X9672086Y-13433984D02*
X9662563Y-13443508D01*
X9662563Y-13443508D02*
X9672086Y-13453031D01*
X9672086Y-13453031D02*
X9681610Y-13443508D01*
X9681610Y-13443508D02*
X9672086Y-13433984D01*
X9672086Y-13433984D02*
X9672086Y-13453031D01*
X9795896Y-13633984D02*
X9776848Y-13624460D01*
X9776848Y-13624460D02*
X9767324Y-13605412D01*
X9767324Y-13605412D02*
X9767324Y-13433984D01*
X9900658Y-13633984D02*
X9881610Y-13624460D01*
X9881610Y-13624460D02*
X9872086Y-13605412D01*
X9872086Y-13605412D02*
X9872086Y-13433984D01*
X10129229Y-13633984D02*
X10129229Y-13433984D01*
X10129229Y-13433984D02*
X10195896Y-13576841D01*
X10195896Y-13576841D02*
X10262563Y-13433984D01*
X10262563Y-13433984D02*
X10262563Y-13633984D01*
X10443515Y-13633984D02*
X10443515Y-13529222D01*
X10443515Y-13529222D02*
X10433991Y-13510174D01*
X10433991Y-13510174D02*
X10414944Y-13500650D01*
X10414944Y-13500650D02*
X10376848Y-13500650D01*
X10376848Y-13500650D02*
X10357801Y-13510174D01*
X10443515Y-13624460D02*
X10424467Y-13633984D01*
X10424467Y-13633984D02*
X10376848Y-13633984D01*
X10376848Y-13633984D02*
X10357801Y-13624460D01*
X10357801Y-13624460D02*
X10348277Y-13605412D01*
X10348277Y-13605412D02*
X10348277Y-13586365D01*
X10348277Y-13586365D02*
X10357801Y-13567317D01*
X10357801Y-13567317D02*
X10376848Y-13557793D01*
X10376848Y-13557793D02*
X10424467Y-13557793D01*
X10424467Y-13557793D02*
X10443515Y-13548269D01*
X10538753Y-13500650D02*
X10538753Y-13700650D01*
X10538753Y-13510174D02*
X10557801Y-13500650D01*
X10557801Y-13500650D02*
X10595896Y-13500650D01*
X10595896Y-13500650D02*
X10614944Y-13510174D01*
X10614944Y-13510174D02*
X10624467Y-13519698D01*
X10624467Y-13519698D02*
X10633991Y-13538746D01*
X10633991Y-13538746D02*
X10633991Y-13595888D01*
X10633991Y-13595888D02*
X10624467Y-13614936D01*
X10624467Y-13614936D02*
X10614944Y-13624460D01*
X10614944Y-13624460D02*
X10595896Y-13633984D01*
X10595896Y-13633984D02*
X10557801Y-13633984D01*
X10557801Y-13633984D02*
X10538753Y-13624460D01*
X10719705Y-13614936D02*
X10729229Y-13624460D01*
X10729229Y-13624460D02*
X10719705Y-13633984D01*
X10719705Y-13633984D02*
X10710182Y-13624460D01*
X10710182Y-13624460D02*
X10719705Y-13614936D01*
X10719705Y-13614936D02*
X10719705Y-13633984D01*
X10719705Y-13510174D02*
X10729229Y-13519698D01*
X10729229Y-13519698D02*
X10719705Y-13529222D01*
X10719705Y-13529222D02*
X10710182Y-13519698D01*
X10710182Y-13519698D02*
X10719705Y-13510174D01*
X10719705Y-13510174D02*
X10719705Y-13529222D01*
D12*
X9047500Y-13942500D02*
X9087500Y-13982500D01*
X9087500Y-13942500D02*
X9047500Y-13982500D01*
D11*
X9386372Y-13853984D02*
X9405420Y-13853984D01*
X9405420Y-13853984D02*
X9424467Y-13863508D01*
X9424467Y-13863508D02*
X9433991Y-13873031D01*
X9433991Y-13873031D02*
X9443515Y-13892079D01*
X9443515Y-13892079D02*
X9453039Y-13930174D01*
X9453039Y-13930174D02*
X9453039Y-13977793D01*
X9453039Y-13977793D02*
X9443515Y-14015888D01*
X9443515Y-14015888D02*
X9433991Y-14034936D01*
X9433991Y-14034936D02*
X9424467Y-14044460D01*
X9424467Y-14044460D02*
X9405420Y-14053984D01*
X9405420Y-14053984D02*
X9386372Y-14053984D01*
X9386372Y-14053984D02*
X9367324Y-14044460D01*
X9367324Y-14044460D02*
X9357801Y-14034936D01*
X9357801Y-14034936D02*
X9348277Y-14015888D01*
X9348277Y-14015888D02*
X9338753Y-13977793D01*
X9338753Y-13977793D02*
X9338753Y-13930174D01*
X9338753Y-13930174D02*
X9348277Y-13892079D01*
X9348277Y-13892079D02*
X9357801Y-13873031D01*
X9357801Y-13873031D02*
X9367324Y-13863508D01*
X9367324Y-13863508D02*
X9386372Y-13853984D01*
X9538753Y-14034936D02*
X9548277Y-14044460D01*
X9548277Y-14044460D02*
X9538753Y-14053984D01*
X9538753Y-14053984D02*
X9529229Y-14044460D01*
X9529229Y-14044460D02*
X9538753Y-14034936D01*
X9538753Y-14034936D02*
X9538753Y-14053984D01*
X9719705Y-13920650D02*
X9719705Y-14053984D01*
X9672086Y-13844460D02*
X9624467Y-13987317D01*
X9624467Y-13987317D02*
X9748277Y-13987317D01*
X9862563Y-13853984D02*
X9881610Y-13853984D01*
X9881610Y-13853984D02*
X9900658Y-13863508D01*
X9900658Y-13863508D02*
X9910182Y-13873031D01*
X9910182Y-13873031D02*
X9919705Y-13892079D01*
X9919705Y-13892079D02*
X9929229Y-13930174D01*
X9929229Y-13930174D02*
X9929229Y-13977793D01*
X9929229Y-13977793D02*
X9919705Y-14015888D01*
X9919705Y-14015888D02*
X9910182Y-14034936D01*
X9910182Y-14034936D02*
X9900658Y-14044460D01*
X9900658Y-14044460D02*
X9881610Y-14053984D01*
X9881610Y-14053984D02*
X9862563Y-14053984D01*
X9862563Y-14053984D02*
X9843515Y-14044460D01*
X9843515Y-14044460D02*
X9833991Y-14034936D01*
X9833991Y-14034936D02*
X9824467Y-14015888D01*
X9824467Y-14015888D02*
X9814944Y-13977793D01*
X9814944Y-13977793D02*
X9814944Y-13930174D01*
X9814944Y-13930174D02*
X9824467Y-13892079D01*
X9824467Y-13892079D02*
X9833991Y-13873031D01*
X9833991Y-13873031D02*
X9843515Y-13863508D01*
X9843515Y-13863508D02*
X9862563Y-13853984D01*
X10053039Y-13853984D02*
X10072086Y-13853984D01*
X10072086Y-13853984D02*
X10091134Y-13863508D01*
X10091134Y-13863508D02*
X10100658Y-13873031D01*
X10100658Y-13873031D02*
X10110182Y-13892079D01*
X10110182Y-13892079D02*
X10119705Y-13930174D01*
X10119705Y-13930174D02*
X10119705Y-13977793D01*
X10119705Y-13977793D02*
X10110182Y-14015888D01*
X10110182Y-14015888D02*
X10100658Y-14034936D01*
X10100658Y-14034936D02*
X10091134Y-14044460D01*
X10091134Y-14044460D02*
X10072086Y-14053984D01*
X10072086Y-14053984D02*
X10053039Y-14053984D01*
X10053039Y-14053984D02*
X10033991Y-14044460D01*
X10033991Y-14044460D02*
X10024467Y-14034936D01*
X10024467Y-14034936D02*
X10014944Y-14015888D01*
X10014944Y-14015888D02*
X10005420Y-13977793D01*
X10005420Y-13977793D02*
X10005420Y-13930174D01*
X10005420Y-13930174D02*
X10014944Y-13892079D01*
X10014944Y-13892079D02*
X10024467Y-13873031D01*
X10024467Y-13873031D02*
X10033991Y-13863508D01*
X10033991Y-13863508D02*
X10053039Y-13853984D01*
X10205420Y-14053984D02*
X10205420Y-13920650D01*
X10205420Y-13939698D02*
X10214944Y-13930174D01*
X10214944Y-13930174D02*
X10233991Y-13920650D01*
X10233991Y-13920650D02*
X10262563Y-13920650D01*
X10262563Y-13920650D02*
X10281610Y-13930174D01*
X10281610Y-13930174D02*
X10291134Y-13949222D01*
X10291134Y-13949222D02*
X10291134Y-14053984D01*
X10291134Y-13949222D02*
X10300658Y-13930174D01*
X10300658Y-13930174D02*
X10319705Y-13920650D01*
X10319705Y-13920650D02*
X10348277Y-13920650D01*
X10348277Y-13920650D02*
X10367325Y-13930174D01*
X10367325Y-13930174D02*
X10376848Y-13949222D01*
X10376848Y-13949222D02*
X10376848Y-14053984D01*
X10472086Y-14053984D02*
X10472086Y-13920650D01*
X10472086Y-13939698D02*
X10481610Y-13930174D01*
X10481610Y-13930174D02*
X10500658Y-13920650D01*
X10500658Y-13920650D02*
X10529229Y-13920650D01*
X10529229Y-13920650D02*
X10548277Y-13930174D01*
X10548277Y-13930174D02*
X10557801Y-13949222D01*
X10557801Y-13949222D02*
X10557801Y-14053984D01*
X10557801Y-13949222D02*
X10567325Y-13930174D01*
X10567325Y-13930174D02*
X10586372Y-13920650D01*
X10586372Y-13920650D02*
X10614944Y-13920650D01*
X10614944Y-13920650D02*
X10633991Y-13930174D01*
X10633991Y-13930174D02*
X10643515Y-13949222D01*
X10643515Y-13949222D02*
X10643515Y-14053984D01*
X11033991Y-13844460D02*
X10862563Y-14101603D01*
X11291134Y-13853984D02*
X11310182Y-13853984D01*
X11310182Y-13853984D02*
X11329229Y-13863508D01*
X11329229Y-13863508D02*
X11338753Y-13873031D01*
X11338753Y-13873031D02*
X11348277Y-13892079D01*
X11348277Y-13892079D02*
X11357801Y-13930174D01*
X11357801Y-13930174D02*
X11357801Y-13977793D01*
X11357801Y-13977793D02*
X11348277Y-14015888D01*
X11348277Y-14015888D02*
X11338753Y-14034936D01*
X11338753Y-14034936D02*
X11329229Y-14044460D01*
X11329229Y-14044460D02*
X11310182Y-14053984D01*
X11310182Y-14053984D02*
X11291134Y-14053984D01*
X11291134Y-14053984D02*
X11272086Y-14044460D01*
X11272086Y-14044460D02*
X11262563Y-14034936D01*
X11262563Y-14034936D02*
X11253039Y-14015888D01*
X11253039Y-14015888D02*
X11243515Y-13977793D01*
X11243515Y-13977793D02*
X11243515Y-13930174D01*
X11243515Y-13930174D02*
X11253039Y-13892079D01*
X11253039Y-13892079D02*
X11262563Y-13873031D01*
X11262563Y-13873031D02*
X11272086Y-13863508D01*
X11272086Y-13863508D02*
X11291134Y-13853984D01*
X11443515Y-14034936D02*
X11453039Y-14044460D01*
X11453039Y-14044460D02*
X11443515Y-14053984D01*
X11443515Y-14053984D02*
X11433991Y-14044460D01*
X11433991Y-14044460D02*
X11443515Y-14034936D01*
X11443515Y-14034936D02*
X11443515Y-14053984D01*
X11576848Y-13853984D02*
X11595896Y-13853984D01*
X11595896Y-13853984D02*
X11614944Y-13863508D01*
X11614944Y-13863508D02*
X11624467Y-13873031D01*
X11624467Y-13873031D02*
X11633991Y-13892079D01*
X11633991Y-13892079D02*
X11643515Y-13930174D01*
X11643515Y-13930174D02*
X11643515Y-13977793D01*
X11643515Y-13977793D02*
X11633991Y-14015888D01*
X11633991Y-14015888D02*
X11624467Y-14034936D01*
X11624467Y-14034936D02*
X11614944Y-14044460D01*
X11614944Y-14044460D02*
X11595896Y-14053984D01*
X11595896Y-14053984D02*
X11576848Y-14053984D01*
X11576848Y-14053984D02*
X11557801Y-14044460D01*
X11557801Y-14044460D02*
X11548277Y-14034936D01*
X11548277Y-14034936D02*
X11538753Y-14015888D01*
X11538753Y-14015888D02*
X11529229Y-13977793D01*
X11529229Y-13977793D02*
X11529229Y-13930174D01*
X11529229Y-13930174D02*
X11538753Y-13892079D01*
X11538753Y-13892079D02*
X11548277Y-13873031D01*
X11548277Y-13873031D02*
X11557801Y-13863508D01*
X11557801Y-13863508D02*
X11576848Y-13853984D01*
X11833991Y-14053984D02*
X11719706Y-14053984D01*
X11776848Y-14053984D02*
X11776848Y-13853984D01*
X11776848Y-13853984D02*
X11757801Y-13882555D01*
X11757801Y-13882555D02*
X11738753Y-13901603D01*
X11738753Y-13901603D02*
X11719706Y-13911127D01*
X12014944Y-13853984D02*
X11919706Y-13853984D01*
X11919706Y-13853984D02*
X11910182Y-13949222D01*
X11910182Y-13949222D02*
X11919706Y-13939698D01*
X11919706Y-13939698D02*
X11938753Y-13930174D01*
X11938753Y-13930174D02*
X11986372Y-13930174D01*
X11986372Y-13930174D02*
X12005420Y-13939698D01*
X12005420Y-13939698D02*
X12014944Y-13949222D01*
X12014944Y-13949222D02*
X12024467Y-13968269D01*
X12024467Y-13968269D02*
X12024467Y-14015888D01*
X12024467Y-14015888D02*
X12014944Y-14034936D01*
X12014944Y-14034936D02*
X12005420Y-14044460D01*
X12005420Y-14044460D02*
X11986372Y-14053984D01*
X11986372Y-14053984D02*
X11938753Y-14053984D01*
X11938753Y-14053984D02*
X11919706Y-14044460D01*
X11919706Y-14044460D02*
X11910182Y-14034936D01*
X12091134Y-13853984D02*
X12224467Y-13853984D01*
X12224467Y-13853984D02*
X12138753Y-14053984D01*
X12291134Y-13853984D02*
X12291134Y-13892079D01*
X12367325Y-13853984D02*
X12367325Y-13892079D01*
X12662563Y-14130174D02*
X12653039Y-14120650D01*
X12653039Y-14120650D02*
X12633991Y-14092079D01*
X12633991Y-14092079D02*
X12624468Y-14073031D01*
X12624468Y-14073031D02*
X12614944Y-14044460D01*
X12614944Y-14044460D02*
X12605420Y-13996841D01*
X12605420Y-13996841D02*
X12605420Y-13958746D01*
X12605420Y-13958746D02*
X12614944Y-13911127D01*
X12614944Y-13911127D02*
X12624468Y-13882555D01*
X12624468Y-13882555D02*
X12633991Y-13863508D01*
X12633991Y-13863508D02*
X12653039Y-13834936D01*
X12653039Y-13834936D02*
X12662563Y-13825412D01*
X12843515Y-14053984D02*
X12729229Y-14053984D01*
X12786372Y-14053984D02*
X12786372Y-13853984D01*
X12786372Y-13853984D02*
X12767325Y-13882555D01*
X12767325Y-13882555D02*
X12748277Y-13901603D01*
X12748277Y-13901603D02*
X12729229Y-13911127D01*
X12967325Y-13853984D02*
X12986372Y-13853984D01*
X12986372Y-13853984D02*
X13005420Y-13863508D01*
X13005420Y-13863508D02*
X13014944Y-13873031D01*
X13014944Y-13873031D02*
X13024468Y-13892079D01*
X13024468Y-13892079D02*
X13033991Y-13930174D01*
X13033991Y-13930174D02*
X13033991Y-13977793D01*
X13033991Y-13977793D02*
X13024468Y-14015888D01*
X13024468Y-14015888D02*
X13014944Y-14034936D01*
X13014944Y-14034936D02*
X13005420Y-14044460D01*
X13005420Y-14044460D02*
X12986372Y-14053984D01*
X12986372Y-14053984D02*
X12967325Y-14053984D01*
X12967325Y-14053984D02*
X12948277Y-14044460D01*
X12948277Y-14044460D02*
X12938753Y-14034936D01*
X12938753Y-14034936D02*
X12929229Y-14015888D01*
X12929229Y-14015888D02*
X12919706Y-13977793D01*
X12919706Y-13977793D02*
X12919706Y-13930174D01*
X12919706Y-13930174D02*
X12929229Y-13892079D01*
X12929229Y-13892079D02*
X12938753Y-13873031D01*
X12938753Y-13873031D02*
X12948277Y-13863508D01*
X12948277Y-13863508D02*
X12967325Y-13853984D01*
X13272087Y-14053984D02*
X13272087Y-13853984D01*
X13357801Y-14053984D02*
X13357801Y-13949222D01*
X13357801Y-13949222D02*
X13348277Y-13930174D01*
X13348277Y-13930174D02*
X13329230Y-13920650D01*
X13329230Y-13920650D02*
X13300658Y-13920650D01*
X13300658Y-13920650D02*
X13281610Y-13930174D01*
X13281610Y-13930174D02*
X13272087Y-13939698D01*
X13481610Y-14053984D02*
X13462563Y-14044460D01*
X13462563Y-14044460D02*
X13453039Y-14034936D01*
X13453039Y-14034936D02*
X13443515Y-14015888D01*
X13443515Y-14015888D02*
X13443515Y-13958746D01*
X13443515Y-13958746D02*
X13453039Y-13939698D01*
X13453039Y-13939698D02*
X13462563Y-13930174D01*
X13462563Y-13930174D02*
X13481610Y-13920650D01*
X13481610Y-13920650D02*
X13510182Y-13920650D01*
X13510182Y-13920650D02*
X13529230Y-13930174D01*
X13529230Y-13930174D02*
X13538753Y-13939698D01*
X13538753Y-13939698D02*
X13548277Y-13958746D01*
X13548277Y-13958746D02*
X13548277Y-14015888D01*
X13548277Y-14015888D02*
X13538753Y-14034936D01*
X13538753Y-14034936D02*
X13529230Y-14044460D01*
X13529230Y-14044460D02*
X13510182Y-14053984D01*
X13510182Y-14053984D02*
X13481610Y-14053984D01*
X13662563Y-14053984D02*
X13643515Y-14044460D01*
X13643515Y-14044460D02*
X13633991Y-14025412D01*
X13633991Y-14025412D02*
X13633991Y-13853984D01*
X13814944Y-14044460D02*
X13795896Y-14053984D01*
X13795896Y-14053984D02*
X13757801Y-14053984D01*
X13757801Y-14053984D02*
X13738753Y-14044460D01*
X13738753Y-14044460D02*
X13729230Y-14025412D01*
X13729230Y-14025412D02*
X13729230Y-13949222D01*
X13729230Y-13949222D02*
X13738753Y-13930174D01*
X13738753Y-13930174D02*
X13757801Y-13920650D01*
X13757801Y-13920650D02*
X13795896Y-13920650D01*
X13795896Y-13920650D02*
X13814944Y-13930174D01*
X13814944Y-13930174D02*
X13824468Y-13949222D01*
X13824468Y-13949222D02*
X13824468Y-13968269D01*
X13824468Y-13968269D02*
X13729230Y-13987317D01*
X13900658Y-14044460D02*
X13919706Y-14053984D01*
X13919706Y-14053984D02*
X13957801Y-14053984D01*
X13957801Y-14053984D02*
X13976849Y-14044460D01*
X13976849Y-14044460D02*
X13986372Y-14025412D01*
X13986372Y-14025412D02*
X13986372Y-14015888D01*
X13986372Y-14015888D02*
X13976849Y-13996841D01*
X13976849Y-13996841D02*
X13957801Y-13987317D01*
X13957801Y-13987317D02*
X13929230Y-13987317D01*
X13929230Y-13987317D02*
X13910182Y-13977793D01*
X13910182Y-13977793D02*
X13900658Y-13958746D01*
X13900658Y-13958746D02*
X13900658Y-13949222D01*
X13900658Y-13949222D02*
X13910182Y-13930174D01*
X13910182Y-13930174D02*
X13929230Y-13920650D01*
X13929230Y-13920650D02*
X13957801Y-13920650D01*
X13957801Y-13920650D02*
X13976849Y-13930174D01*
X14053039Y-14130174D02*
X14062563Y-14120650D01*
X14062563Y-14120650D02*
X14081611Y-14092079D01*
X14081611Y-14092079D02*
X14091134Y-14073031D01*
X14091134Y-14073031D02*
X14100658Y-14044460D01*
X14100658Y-14044460D02*
X14110182Y-13996841D01*
X14110182Y-13996841D02*
X14110182Y-13958746D01*
X14110182Y-13958746D02*
X14100658Y-13911127D01*
X14100658Y-13911127D02*
X14091134Y-13882555D01*
X14091134Y-13882555D02*
X14081611Y-13863508D01*
X14081611Y-13863508D02*
X14062563Y-13834936D01*
X14062563Y-13834936D02*
X14053039Y-13825412D01*
D12*
X9087500Y-14226500D02*
G75*
G02*
X9007500Y-14226500I-40000J0D01*
G01*
X9007500Y-14226500D02*
G75*
G02*
X9087500Y-14226500I40000J0D01*
G01*
D11*
X9386372Y-14117984D02*
X9405420Y-14117984D01*
X9405420Y-14117984D02*
X9424467Y-14127508D01*
X9424467Y-14127508D02*
X9433991Y-14137031D01*
X9433991Y-14137031D02*
X9443515Y-14156079D01*
X9443515Y-14156079D02*
X9453039Y-14194174D01*
X9453039Y-14194174D02*
X9453039Y-14241793D01*
X9453039Y-14241793D02*
X9443515Y-14279888D01*
X9443515Y-14279888D02*
X9433991Y-14298936D01*
X9433991Y-14298936D02*
X9424467Y-14308460D01*
X9424467Y-14308460D02*
X9405420Y-14317984D01*
X9405420Y-14317984D02*
X9386372Y-14317984D01*
X9386372Y-14317984D02*
X9367324Y-14308460D01*
X9367324Y-14308460D02*
X9357801Y-14298936D01*
X9357801Y-14298936D02*
X9348277Y-14279888D01*
X9348277Y-14279888D02*
X9338753Y-14241793D01*
X9338753Y-14241793D02*
X9338753Y-14194174D01*
X9338753Y-14194174D02*
X9348277Y-14156079D01*
X9348277Y-14156079D02*
X9357801Y-14137031D01*
X9357801Y-14137031D02*
X9367324Y-14127508D01*
X9367324Y-14127508D02*
X9386372Y-14117984D01*
X9538753Y-14298936D02*
X9548277Y-14308460D01*
X9548277Y-14308460D02*
X9538753Y-14317984D01*
X9538753Y-14317984D02*
X9529229Y-14308460D01*
X9529229Y-14308460D02*
X9538753Y-14298936D01*
X9538753Y-14298936D02*
X9538753Y-14317984D01*
X9662563Y-14203698D02*
X9643515Y-14194174D01*
X9643515Y-14194174D02*
X9633991Y-14184650D01*
X9633991Y-14184650D02*
X9624467Y-14165603D01*
X9624467Y-14165603D02*
X9624467Y-14156079D01*
X9624467Y-14156079D02*
X9633991Y-14137031D01*
X9633991Y-14137031D02*
X9643515Y-14127508D01*
X9643515Y-14127508D02*
X9662563Y-14117984D01*
X9662563Y-14117984D02*
X9700658Y-14117984D01*
X9700658Y-14117984D02*
X9719705Y-14127508D01*
X9719705Y-14127508D02*
X9729229Y-14137031D01*
X9729229Y-14137031D02*
X9738753Y-14156079D01*
X9738753Y-14156079D02*
X9738753Y-14165603D01*
X9738753Y-14165603D02*
X9729229Y-14184650D01*
X9729229Y-14184650D02*
X9719705Y-14194174D01*
X9719705Y-14194174D02*
X9700658Y-14203698D01*
X9700658Y-14203698D02*
X9662563Y-14203698D01*
X9662563Y-14203698D02*
X9643515Y-14213222D01*
X9643515Y-14213222D02*
X9633991Y-14222746D01*
X9633991Y-14222746D02*
X9624467Y-14241793D01*
X9624467Y-14241793D02*
X9624467Y-14279888D01*
X9624467Y-14279888D02*
X9633991Y-14298936D01*
X9633991Y-14298936D02*
X9643515Y-14308460D01*
X9643515Y-14308460D02*
X9662563Y-14317984D01*
X9662563Y-14317984D02*
X9700658Y-14317984D01*
X9700658Y-14317984D02*
X9719705Y-14308460D01*
X9719705Y-14308460D02*
X9729229Y-14298936D01*
X9729229Y-14298936D02*
X9738753Y-14279888D01*
X9738753Y-14279888D02*
X9738753Y-14241793D01*
X9738753Y-14241793D02*
X9729229Y-14222746D01*
X9729229Y-14222746D02*
X9719705Y-14213222D01*
X9719705Y-14213222D02*
X9700658Y-14203698D01*
X9862563Y-14117984D02*
X9881610Y-14117984D01*
X9881610Y-14117984D02*
X9900658Y-14127508D01*
X9900658Y-14127508D02*
X9910182Y-14137031D01*
X9910182Y-14137031D02*
X9919705Y-14156079D01*
X9919705Y-14156079D02*
X9929229Y-14194174D01*
X9929229Y-14194174D02*
X9929229Y-14241793D01*
X9929229Y-14241793D02*
X9919705Y-14279888D01*
X9919705Y-14279888D02*
X9910182Y-14298936D01*
X9910182Y-14298936D02*
X9900658Y-14308460D01*
X9900658Y-14308460D02*
X9881610Y-14317984D01*
X9881610Y-14317984D02*
X9862563Y-14317984D01*
X9862563Y-14317984D02*
X9843515Y-14308460D01*
X9843515Y-14308460D02*
X9833991Y-14298936D01*
X9833991Y-14298936D02*
X9824467Y-14279888D01*
X9824467Y-14279888D02*
X9814944Y-14241793D01*
X9814944Y-14241793D02*
X9814944Y-14194174D01*
X9814944Y-14194174D02*
X9824467Y-14156079D01*
X9824467Y-14156079D02*
X9833991Y-14137031D01*
X9833991Y-14137031D02*
X9843515Y-14127508D01*
X9843515Y-14127508D02*
X9862563Y-14117984D01*
X10053039Y-14117984D02*
X10072086Y-14117984D01*
X10072086Y-14117984D02*
X10091134Y-14127508D01*
X10091134Y-14127508D02*
X10100658Y-14137031D01*
X10100658Y-14137031D02*
X10110182Y-14156079D01*
X10110182Y-14156079D02*
X10119705Y-14194174D01*
X10119705Y-14194174D02*
X10119705Y-14241793D01*
X10119705Y-14241793D02*
X10110182Y-14279888D01*
X10110182Y-14279888D02*
X10100658Y-14298936D01*
X10100658Y-14298936D02*
X10091134Y-14308460D01*
X10091134Y-14308460D02*
X10072086Y-14317984D01*
X10072086Y-14317984D02*
X10053039Y-14317984D01*
X10053039Y-14317984D02*
X10033991Y-14308460D01*
X10033991Y-14308460D02*
X10024467Y-14298936D01*
X10024467Y-14298936D02*
X10014944Y-14279888D01*
X10014944Y-14279888D02*
X10005420Y-14241793D01*
X10005420Y-14241793D02*
X10005420Y-14194174D01*
X10005420Y-14194174D02*
X10014944Y-14156079D01*
X10014944Y-14156079D02*
X10024467Y-14137031D01*
X10024467Y-14137031D02*
X10033991Y-14127508D01*
X10033991Y-14127508D02*
X10053039Y-14117984D01*
X10205420Y-14317984D02*
X10205420Y-14184650D01*
X10205420Y-14203698D02*
X10214944Y-14194174D01*
X10214944Y-14194174D02*
X10233991Y-14184650D01*
X10233991Y-14184650D02*
X10262563Y-14184650D01*
X10262563Y-14184650D02*
X10281610Y-14194174D01*
X10281610Y-14194174D02*
X10291134Y-14213222D01*
X10291134Y-14213222D02*
X10291134Y-14317984D01*
X10291134Y-14213222D02*
X10300658Y-14194174D01*
X10300658Y-14194174D02*
X10319705Y-14184650D01*
X10319705Y-14184650D02*
X10348277Y-14184650D01*
X10348277Y-14184650D02*
X10367325Y-14194174D01*
X10367325Y-14194174D02*
X10376848Y-14213222D01*
X10376848Y-14213222D02*
X10376848Y-14317984D01*
X10472086Y-14317984D02*
X10472086Y-14184650D01*
X10472086Y-14203698D02*
X10481610Y-14194174D01*
X10481610Y-14194174D02*
X10500658Y-14184650D01*
X10500658Y-14184650D02*
X10529229Y-14184650D01*
X10529229Y-14184650D02*
X10548277Y-14194174D01*
X10548277Y-14194174D02*
X10557801Y-14213222D01*
X10557801Y-14213222D02*
X10557801Y-14317984D01*
X10557801Y-14213222D02*
X10567325Y-14194174D01*
X10567325Y-14194174D02*
X10586372Y-14184650D01*
X10586372Y-14184650D02*
X10614944Y-14184650D01*
X10614944Y-14184650D02*
X10633991Y-14194174D01*
X10633991Y-14194174D02*
X10643515Y-14213222D01*
X10643515Y-14213222D02*
X10643515Y-14317984D01*
X11033991Y-14108460D02*
X10862563Y-14365603D01*
X11291134Y-14117984D02*
X11310182Y-14117984D01*
X11310182Y-14117984D02*
X11329229Y-14127508D01*
X11329229Y-14127508D02*
X11338753Y-14137031D01*
X11338753Y-14137031D02*
X11348277Y-14156079D01*
X11348277Y-14156079D02*
X11357801Y-14194174D01*
X11357801Y-14194174D02*
X11357801Y-14241793D01*
X11357801Y-14241793D02*
X11348277Y-14279888D01*
X11348277Y-14279888D02*
X11338753Y-14298936D01*
X11338753Y-14298936D02*
X11329229Y-14308460D01*
X11329229Y-14308460D02*
X11310182Y-14317984D01*
X11310182Y-14317984D02*
X11291134Y-14317984D01*
X11291134Y-14317984D02*
X11272086Y-14308460D01*
X11272086Y-14308460D02*
X11262563Y-14298936D01*
X11262563Y-14298936D02*
X11253039Y-14279888D01*
X11253039Y-14279888D02*
X11243515Y-14241793D01*
X11243515Y-14241793D02*
X11243515Y-14194174D01*
X11243515Y-14194174D02*
X11253039Y-14156079D01*
X11253039Y-14156079D02*
X11262563Y-14137031D01*
X11262563Y-14137031D02*
X11272086Y-14127508D01*
X11272086Y-14127508D02*
X11291134Y-14117984D01*
X11443515Y-14298936D02*
X11453039Y-14308460D01*
X11453039Y-14308460D02*
X11443515Y-14317984D01*
X11443515Y-14317984D02*
X11433991Y-14308460D01*
X11433991Y-14308460D02*
X11443515Y-14298936D01*
X11443515Y-14298936D02*
X11443515Y-14317984D01*
X11576848Y-14117984D02*
X11595896Y-14117984D01*
X11595896Y-14117984D02*
X11614944Y-14127508D01*
X11614944Y-14127508D02*
X11624467Y-14137031D01*
X11624467Y-14137031D02*
X11633991Y-14156079D01*
X11633991Y-14156079D02*
X11643515Y-14194174D01*
X11643515Y-14194174D02*
X11643515Y-14241793D01*
X11643515Y-14241793D02*
X11633991Y-14279888D01*
X11633991Y-14279888D02*
X11624467Y-14298936D01*
X11624467Y-14298936D02*
X11614944Y-14308460D01*
X11614944Y-14308460D02*
X11595896Y-14317984D01*
X11595896Y-14317984D02*
X11576848Y-14317984D01*
X11576848Y-14317984D02*
X11557801Y-14308460D01*
X11557801Y-14308460D02*
X11548277Y-14298936D01*
X11548277Y-14298936D02*
X11538753Y-14279888D01*
X11538753Y-14279888D02*
X11529229Y-14241793D01*
X11529229Y-14241793D02*
X11529229Y-14194174D01*
X11529229Y-14194174D02*
X11538753Y-14156079D01*
X11538753Y-14156079D02*
X11548277Y-14137031D01*
X11548277Y-14137031D02*
X11557801Y-14127508D01*
X11557801Y-14127508D02*
X11576848Y-14117984D01*
X11710182Y-14117984D02*
X11833991Y-14117984D01*
X11833991Y-14117984D02*
X11767325Y-14194174D01*
X11767325Y-14194174D02*
X11795896Y-14194174D01*
X11795896Y-14194174D02*
X11814944Y-14203698D01*
X11814944Y-14203698D02*
X11824467Y-14213222D01*
X11824467Y-14213222D02*
X11833991Y-14232269D01*
X11833991Y-14232269D02*
X11833991Y-14279888D01*
X11833991Y-14279888D02*
X11824467Y-14298936D01*
X11824467Y-14298936D02*
X11814944Y-14308460D01*
X11814944Y-14308460D02*
X11795896Y-14317984D01*
X11795896Y-14317984D02*
X11738753Y-14317984D01*
X11738753Y-14317984D02*
X11719706Y-14308460D01*
X11719706Y-14308460D02*
X11710182Y-14298936D01*
X12024467Y-14317984D02*
X11910182Y-14317984D01*
X11967325Y-14317984D02*
X11967325Y-14117984D01*
X11967325Y-14117984D02*
X11948277Y-14146555D01*
X11948277Y-14146555D02*
X11929229Y-14165603D01*
X11929229Y-14165603D02*
X11910182Y-14175127D01*
X12205420Y-14117984D02*
X12110182Y-14117984D01*
X12110182Y-14117984D02*
X12100658Y-14213222D01*
X12100658Y-14213222D02*
X12110182Y-14203698D01*
X12110182Y-14203698D02*
X12129229Y-14194174D01*
X12129229Y-14194174D02*
X12176848Y-14194174D01*
X12176848Y-14194174D02*
X12195896Y-14203698D01*
X12195896Y-14203698D02*
X12205420Y-14213222D01*
X12205420Y-14213222D02*
X12214944Y-14232269D01*
X12214944Y-14232269D02*
X12214944Y-14279888D01*
X12214944Y-14279888D02*
X12205420Y-14298936D01*
X12205420Y-14298936D02*
X12195896Y-14308460D01*
X12195896Y-14308460D02*
X12176848Y-14317984D01*
X12176848Y-14317984D02*
X12129229Y-14317984D01*
X12129229Y-14317984D02*
X12110182Y-14308460D01*
X12110182Y-14308460D02*
X12100658Y-14298936D01*
X12291134Y-14117984D02*
X12291134Y-14156079D01*
X12367325Y-14117984D02*
X12367325Y-14156079D01*
X12662563Y-14394174D02*
X12653039Y-14384650D01*
X12653039Y-14384650D02*
X12633991Y-14356079D01*
X12633991Y-14356079D02*
X12624468Y-14337031D01*
X12624468Y-14337031D02*
X12614944Y-14308460D01*
X12614944Y-14308460D02*
X12605420Y-14260841D01*
X12605420Y-14260841D02*
X12605420Y-14222746D01*
X12605420Y-14222746D02*
X12614944Y-14175127D01*
X12614944Y-14175127D02*
X12624468Y-14146555D01*
X12624468Y-14146555D02*
X12633991Y-14127508D01*
X12633991Y-14127508D02*
X12653039Y-14098936D01*
X12653039Y-14098936D02*
X12662563Y-14089412D01*
X12729229Y-14137031D02*
X12738753Y-14127508D01*
X12738753Y-14127508D02*
X12757801Y-14117984D01*
X12757801Y-14117984D02*
X12805420Y-14117984D01*
X12805420Y-14117984D02*
X12824468Y-14127508D01*
X12824468Y-14127508D02*
X12833991Y-14137031D01*
X12833991Y-14137031D02*
X12843515Y-14156079D01*
X12843515Y-14156079D02*
X12843515Y-14175127D01*
X12843515Y-14175127D02*
X12833991Y-14203698D01*
X12833991Y-14203698D02*
X12719706Y-14317984D01*
X12719706Y-14317984D02*
X12843515Y-14317984D01*
X13081610Y-14317984D02*
X13081610Y-14117984D01*
X13167325Y-14317984D02*
X13167325Y-14213222D01*
X13167325Y-14213222D02*
X13157801Y-14194174D01*
X13157801Y-14194174D02*
X13138753Y-14184650D01*
X13138753Y-14184650D02*
X13110182Y-14184650D01*
X13110182Y-14184650D02*
X13091134Y-14194174D01*
X13091134Y-14194174D02*
X13081610Y-14203698D01*
X13291134Y-14317984D02*
X13272087Y-14308460D01*
X13272087Y-14308460D02*
X13262563Y-14298936D01*
X13262563Y-14298936D02*
X13253039Y-14279888D01*
X13253039Y-14279888D02*
X13253039Y-14222746D01*
X13253039Y-14222746D02*
X13262563Y-14203698D01*
X13262563Y-14203698D02*
X13272087Y-14194174D01*
X13272087Y-14194174D02*
X13291134Y-14184650D01*
X13291134Y-14184650D02*
X13319706Y-14184650D01*
X13319706Y-14184650D02*
X13338753Y-14194174D01*
X13338753Y-14194174D02*
X13348277Y-14203698D01*
X13348277Y-14203698D02*
X13357801Y-14222746D01*
X13357801Y-14222746D02*
X13357801Y-14279888D01*
X13357801Y-14279888D02*
X13348277Y-14298936D01*
X13348277Y-14298936D02*
X13338753Y-14308460D01*
X13338753Y-14308460D02*
X13319706Y-14317984D01*
X13319706Y-14317984D02*
X13291134Y-14317984D01*
X13472087Y-14317984D02*
X13453039Y-14308460D01*
X13453039Y-14308460D02*
X13443515Y-14289412D01*
X13443515Y-14289412D02*
X13443515Y-14117984D01*
X13624468Y-14308460D02*
X13605420Y-14317984D01*
X13605420Y-14317984D02*
X13567325Y-14317984D01*
X13567325Y-14317984D02*
X13548277Y-14308460D01*
X13548277Y-14308460D02*
X13538753Y-14289412D01*
X13538753Y-14289412D02*
X13538753Y-14213222D01*
X13538753Y-14213222D02*
X13548277Y-14194174D01*
X13548277Y-14194174D02*
X13567325Y-14184650D01*
X13567325Y-14184650D02*
X13605420Y-14184650D01*
X13605420Y-14184650D02*
X13624468Y-14194174D01*
X13624468Y-14194174D02*
X13633991Y-14213222D01*
X13633991Y-14213222D02*
X13633991Y-14232269D01*
X13633991Y-14232269D02*
X13538753Y-14251317D01*
X13710182Y-14308460D02*
X13729230Y-14317984D01*
X13729230Y-14317984D02*
X13767325Y-14317984D01*
X13767325Y-14317984D02*
X13786372Y-14308460D01*
X13786372Y-14308460D02*
X13795896Y-14289412D01*
X13795896Y-14289412D02*
X13795896Y-14279888D01*
X13795896Y-14279888D02*
X13786372Y-14260841D01*
X13786372Y-14260841D02*
X13767325Y-14251317D01*
X13767325Y-14251317D02*
X13738753Y-14251317D01*
X13738753Y-14251317D02*
X13719706Y-14241793D01*
X13719706Y-14241793D02*
X13710182Y-14222746D01*
X13710182Y-14222746D02*
X13710182Y-14213222D01*
X13710182Y-14213222D02*
X13719706Y-14194174D01*
X13719706Y-14194174D02*
X13738753Y-14184650D01*
X13738753Y-14184650D02*
X13767325Y-14184650D01*
X13767325Y-14184650D02*
X13786372Y-14194174D01*
X13862563Y-14394174D02*
X13872087Y-14384650D01*
X13872087Y-14384650D02*
X13891134Y-14356079D01*
X13891134Y-14356079D02*
X13900658Y-14337031D01*
X13900658Y-14337031D02*
X13910182Y-14308460D01*
X13910182Y-14308460D02*
X13919706Y-14260841D01*
X13919706Y-14260841D02*
X13919706Y-14222746D01*
X13919706Y-14222746D02*
X13910182Y-14175127D01*
X13910182Y-14175127D02*
X13900658Y-14146555D01*
X13900658Y-14146555D02*
X13891134Y-14127508D01*
X13891134Y-14127508D02*
X13872087Y-14098936D01*
X13872087Y-14098936D02*
X13862563Y-14089412D01*
D12*
X9037500Y-14440500D02*
X9037500Y-14540500D01*
X8987500Y-14490500D02*
X9087500Y-14490500D01*
D11*
X9453039Y-14581984D02*
X9338753Y-14581984D01*
X9395896Y-14581984D02*
X9395896Y-14381984D01*
X9395896Y-14381984D02*
X9376848Y-14410555D01*
X9376848Y-14410555D02*
X9357801Y-14429603D01*
X9357801Y-14429603D02*
X9338753Y-14439127D01*
X9538753Y-14562936D02*
X9548277Y-14572460D01*
X9548277Y-14572460D02*
X9538753Y-14581984D01*
X9538753Y-14581984D02*
X9529229Y-14572460D01*
X9529229Y-14572460D02*
X9538753Y-14562936D01*
X9538753Y-14562936D02*
X9538753Y-14581984D01*
X9672086Y-14381984D02*
X9691134Y-14381984D01*
X9691134Y-14381984D02*
X9710182Y-14391508D01*
X9710182Y-14391508D02*
X9719705Y-14401031D01*
X9719705Y-14401031D02*
X9729229Y-14420079D01*
X9729229Y-14420079D02*
X9738753Y-14458174D01*
X9738753Y-14458174D02*
X9738753Y-14505793D01*
X9738753Y-14505793D02*
X9729229Y-14543888D01*
X9729229Y-14543888D02*
X9719705Y-14562936D01*
X9719705Y-14562936D02*
X9710182Y-14572460D01*
X9710182Y-14572460D02*
X9691134Y-14581984D01*
X9691134Y-14581984D02*
X9672086Y-14581984D01*
X9672086Y-14581984D02*
X9653039Y-14572460D01*
X9653039Y-14572460D02*
X9643515Y-14562936D01*
X9643515Y-14562936D02*
X9633991Y-14543888D01*
X9633991Y-14543888D02*
X9624467Y-14505793D01*
X9624467Y-14505793D02*
X9624467Y-14458174D01*
X9624467Y-14458174D02*
X9633991Y-14420079D01*
X9633991Y-14420079D02*
X9643515Y-14401031D01*
X9643515Y-14401031D02*
X9653039Y-14391508D01*
X9653039Y-14391508D02*
X9672086Y-14381984D01*
X9862563Y-14381984D02*
X9881610Y-14381984D01*
X9881610Y-14381984D02*
X9900658Y-14391508D01*
X9900658Y-14391508D02*
X9910182Y-14401031D01*
X9910182Y-14401031D02*
X9919705Y-14420079D01*
X9919705Y-14420079D02*
X9929229Y-14458174D01*
X9929229Y-14458174D02*
X9929229Y-14505793D01*
X9929229Y-14505793D02*
X9919705Y-14543888D01*
X9919705Y-14543888D02*
X9910182Y-14562936D01*
X9910182Y-14562936D02*
X9900658Y-14572460D01*
X9900658Y-14572460D02*
X9881610Y-14581984D01*
X9881610Y-14581984D02*
X9862563Y-14581984D01*
X9862563Y-14581984D02*
X9843515Y-14572460D01*
X9843515Y-14572460D02*
X9833991Y-14562936D01*
X9833991Y-14562936D02*
X9824467Y-14543888D01*
X9824467Y-14543888D02*
X9814944Y-14505793D01*
X9814944Y-14505793D02*
X9814944Y-14458174D01*
X9814944Y-14458174D02*
X9824467Y-14420079D01*
X9824467Y-14420079D02*
X9833991Y-14401031D01*
X9833991Y-14401031D02*
X9843515Y-14391508D01*
X9843515Y-14391508D02*
X9862563Y-14381984D01*
X10053039Y-14381984D02*
X10072086Y-14381984D01*
X10072086Y-14381984D02*
X10091134Y-14391508D01*
X10091134Y-14391508D02*
X10100658Y-14401031D01*
X10100658Y-14401031D02*
X10110182Y-14420079D01*
X10110182Y-14420079D02*
X10119705Y-14458174D01*
X10119705Y-14458174D02*
X10119705Y-14505793D01*
X10119705Y-14505793D02*
X10110182Y-14543888D01*
X10110182Y-14543888D02*
X10100658Y-14562936D01*
X10100658Y-14562936D02*
X10091134Y-14572460D01*
X10091134Y-14572460D02*
X10072086Y-14581984D01*
X10072086Y-14581984D02*
X10053039Y-14581984D01*
X10053039Y-14581984D02*
X10033991Y-14572460D01*
X10033991Y-14572460D02*
X10024467Y-14562936D01*
X10024467Y-14562936D02*
X10014944Y-14543888D01*
X10014944Y-14543888D02*
X10005420Y-14505793D01*
X10005420Y-14505793D02*
X10005420Y-14458174D01*
X10005420Y-14458174D02*
X10014944Y-14420079D01*
X10014944Y-14420079D02*
X10024467Y-14401031D01*
X10024467Y-14401031D02*
X10033991Y-14391508D01*
X10033991Y-14391508D02*
X10053039Y-14381984D01*
X10205420Y-14581984D02*
X10205420Y-14448650D01*
X10205420Y-14467698D02*
X10214944Y-14458174D01*
X10214944Y-14458174D02*
X10233991Y-14448650D01*
X10233991Y-14448650D02*
X10262563Y-14448650D01*
X10262563Y-14448650D02*
X10281610Y-14458174D01*
X10281610Y-14458174D02*
X10291134Y-14477222D01*
X10291134Y-14477222D02*
X10291134Y-14581984D01*
X10291134Y-14477222D02*
X10300658Y-14458174D01*
X10300658Y-14458174D02*
X10319705Y-14448650D01*
X10319705Y-14448650D02*
X10348277Y-14448650D01*
X10348277Y-14448650D02*
X10367325Y-14458174D01*
X10367325Y-14458174D02*
X10376848Y-14477222D01*
X10376848Y-14477222D02*
X10376848Y-14581984D01*
X10472086Y-14581984D02*
X10472086Y-14448650D01*
X10472086Y-14467698D02*
X10481610Y-14458174D01*
X10481610Y-14458174D02*
X10500658Y-14448650D01*
X10500658Y-14448650D02*
X10529229Y-14448650D01*
X10529229Y-14448650D02*
X10548277Y-14458174D01*
X10548277Y-14458174D02*
X10557801Y-14477222D01*
X10557801Y-14477222D02*
X10557801Y-14581984D01*
X10557801Y-14477222D02*
X10567325Y-14458174D01*
X10567325Y-14458174D02*
X10586372Y-14448650D01*
X10586372Y-14448650D02*
X10614944Y-14448650D01*
X10614944Y-14448650D02*
X10633991Y-14458174D01*
X10633991Y-14458174D02*
X10643515Y-14477222D01*
X10643515Y-14477222D02*
X10643515Y-14581984D01*
X11033991Y-14372460D02*
X10862563Y-14629603D01*
X11291134Y-14381984D02*
X11310182Y-14381984D01*
X11310182Y-14381984D02*
X11329229Y-14391508D01*
X11329229Y-14391508D02*
X11338753Y-14401031D01*
X11338753Y-14401031D02*
X11348277Y-14420079D01*
X11348277Y-14420079D02*
X11357801Y-14458174D01*
X11357801Y-14458174D02*
X11357801Y-14505793D01*
X11357801Y-14505793D02*
X11348277Y-14543888D01*
X11348277Y-14543888D02*
X11338753Y-14562936D01*
X11338753Y-14562936D02*
X11329229Y-14572460D01*
X11329229Y-14572460D02*
X11310182Y-14581984D01*
X11310182Y-14581984D02*
X11291134Y-14581984D01*
X11291134Y-14581984D02*
X11272086Y-14572460D01*
X11272086Y-14572460D02*
X11262563Y-14562936D01*
X11262563Y-14562936D02*
X11253039Y-14543888D01*
X11253039Y-14543888D02*
X11243515Y-14505793D01*
X11243515Y-14505793D02*
X11243515Y-14458174D01*
X11243515Y-14458174D02*
X11253039Y-14420079D01*
X11253039Y-14420079D02*
X11262563Y-14401031D01*
X11262563Y-14401031D02*
X11272086Y-14391508D01*
X11272086Y-14391508D02*
X11291134Y-14381984D01*
X11443515Y-14562936D02*
X11453039Y-14572460D01*
X11453039Y-14572460D02*
X11443515Y-14581984D01*
X11443515Y-14581984D02*
X11433991Y-14572460D01*
X11433991Y-14572460D02*
X11443515Y-14562936D01*
X11443515Y-14562936D02*
X11443515Y-14581984D01*
X11576848Y-14381984D02*
X11595896Y-14381984D01*
X11595896Y-14381984D02*
X11614944Y-14391508D01*
X11614944Y-14391508D02*
X11624467Y-14401031D01*
X11624467Y-14401031D02*
X11633991Y-14420079D01*
X11633991Y-14420079D02*
X11643515Y-14458174D01*
X11643515Y-14458174D02*
X11643515Y-14505793D01*
X11643515Y-14505793D02*
X11633991Y-14543888D01*
X11633991Y-14543888D02*
X11624467Y-14562936D01*
X11624467Y-14562936D02*
X11614944Y-14572460D01*
X11614944Y-14572460D02*
X11595896Y-14581984D01*
X11595896Y-14581984D02*
X11576848Y-14581984D01*
X11576848Y-14581984D02*
X11557801Y-14572460D01*
X11557801Y-14572460D02*
X11548277Y-14562936D01*
X11548277Y-14562936D02*
X11538753Y-14543888D01*
X11538753Y-14543888D02*
X11529229Y-14505793D01*
X11529229Y-14505793D02*
X11529229Y-14458174D01*
X11529229Y-14458174D02*
X11538753Y-14420079D01*
X11538753Y-14420079D02*
X11548277Y-14401031D01*
X11548277Y-14401031D02*
X11557801Y-14391508D01*
X11557801Y-14391508D02*
X11576848Y-14381984D01*
X11710182Y-14381984D02*
X11833991Y-14381984D01*
X11833991Y-14381984D02*
X11767325Y-14458174D01*
X11767325Y-14458174D02*
X11795896Y-14458174D01*
X11795896Y-14458174D02*
X11814944Y-14467698D01*
X11814944Y-14467698D02*
X11824467Y-14477222D01*
X11824467Y-14477222D02*
X11833991Y-14496269D01*
X11833991Y-14496269D02*
X11833991Y-14543888D01*
X11833991Y-14543888D02*
X11824467Y-14562936D01*
X11824467Y-14562936D02*
X11814944Y-14572460D01*
X11814944Y-14572460D02*
X11795896Y-14581984D01*
X11795896Y-14581984D02*
X11738753Y-14581984D01*
X11738753Y-14581984D02*
X11719706Y-14572460D01*
X11719706Y-14572460D02*
X11710182Y-14562936D01*
X11929229Y-14581984D02*
X11967325Y-14581984D01*
X11967325Y-14581984D02*
X11986372Y-14572460D01*
X11986372Y-14572460D02*
X11995896Y-14562936D01*
X11995896Y-14562936D02*
X12014944Y-14534365D01*
X12014944Y-14534365D02*
X12024467Y-14496269D01*
X12024467Y-14496269D02*
X12024467Y-14420079D01*
X12024467Y-14420079D02*
X12014944Y-14401031D01*
X12014944Y-14401031D02*
X12005420Y-14391508D01*
X12005420Y-14391508D02*
X11986372Y-14381984D01*
X11986372Y-14381984D02*
X11948277Y-14381984D01*
X11948277Y-14381984D02*
X11929229Y-14391508D01*
X11929229Y-14391508D02*
X11919706Y-14401031D01*
X11919706Y-14401031D02*
X11910182Y-14420079D01*
X11910182Y-14420079D02*
X11910182Y-14467698D01*
X11910182Y-14467698D02*
X11919706Y-14486746D01*
X11919706Y-14486746D02*
X11929229Y-14496269D01*
X11929229Y-14496269D02*
X11948277Y-14505793D01*
X11948277Y-14505793D02*
X11986372Y-14505793D01*
X11986372Y-14505793D02*
X12005420Y-14496269D01*
X12005420Y-14496269D02*
X12014944Y-14486746D01*
X12014944Y-14486746D02*
X12024467Y-14467698D01*
X12195896Y-14448650D02*
X12195896Y-14581984D01*
X12148277Y-14372460D02*
X12100658Y-14515317D01*
X12100658Y-14515317D02*
X12224467Y-14515317D01*
X12291134Y-14381984D02*
X12291134Y-14420079D01*
X12367325Y-14381984D02*
X12367325Y-14420079D01*
X12662563Y-14658174D02*
X12653039Y-14648650D01*
X12653039Y-14648650D02*
X12633991Y-14620079D01*
X12633991Y-14620079D02*
X12624468Y-14601031D01*
X12624468Y-14601031D02*
X12614944Y-14572460D01*
X12614944Y-14572460D02*
X12605420Y-14524841D01*
X12605420Y-14524841D02*
X12605420Y-14486746D01*
X12605420Y-14486746D02*
X12614944Y-14439127D01*
X12614944Y-14439127D02*
X12624468Y-14410555D01*
X12624468Y-14410555D02*
X12633991Y-14391508D01*
X12633991Y-14391508D02*
X12653039Y-14362936D01*
X12653039Y-14362936D02*
X12662563Y-14353412D01*
X12824468Y-14381984D02*
X12786372Y-14381984D01*
X12786372Y-14381984D02*
X12767325Y-14391508D01*
X12767325Y-14391508D02*
X12757801Y-14401031D01*
X12757801Y-14401031D02*
X12738753Y-14429603D01*
X12738753Y-14429603D02*
X12729229Y-14467698D01*
X12729229Y-14467698D02*
X12729229Y-14543888D01*
X12729229Y-14543888D02*
X12738753Y-14562936D01*
X12738753Y-14562936D02*
X12748277Y-14572460D01*
X12748277Y-14572460D02*
X12767325Y-14581984D01*
X12767325Y-14581984D02*
X12805420Y-14581984D01*
X12805420Y-14581984D02*
X12824468Y-14572460D01*
X12824468Y-14572460D02*
X12833991Y-14562936D01*
X12833991Y-14562936D02*
X12843515Y-14543888D01*
X12843515Y-14543888D02*
X12843515Y-14496269D01*
X12843515Y-14496269D02*
X12833991Y-14477222D01*
X12833991Y-14477222D02*
X12824468Y-14467698D01*
X12824468Y-14467698D02*
X12805420Y-14458174D01*
X12805420Y-14458174D02*
X12767325Y-14458174D01*
X12767325Y-14458174D02*
X12748277Y-14467698D01*
X12748277Y-14467698D02*
X12738753Y-14477222D01*
X12738753Y-14477222D02*
X12729229Y-14496269D01*
X13081610Y-14581984D02*
X13081610Y-14381984D01*
X13167325Y-14581984D02*
X13167325Y-14477222D01*
X13167325Y-14477222D02*
X13157801Y-14458174D01*
X13157801Y-14458174D02*
X13138753Y-14448650D01*
X13138753Y-14448650D02*
X13110182Y-14448650D01*
X13110182Y-14448650D02*
X13091134Y-14458174D01*
X13091134Y-14458174D02*
X13081610Y-14467698D01*
X13291134Y-14581984D02*
X13272087Y-14572460D01*
X13272087Y-14572460D02*
X13262563Y-14562936D01*
X13262563Y-14562936D02*
X13253039Y-14543888D01*
X13253039Y-14543888D02*
X13253039Y-14486746D01*
X13253039Y-14486746D02*
X13262563Y-14467698D01*
X13262563Y-14467698D02*
X13272087Y-14458174D01*
X13272087Y-14458174D02*
X13291134Y-14448650D01*
X13291134Y-14448650D02*
X13319706Y-14448650D01*
X13319706Y-14448650D02*
X13338753Y-14458174D01*
X13338753Y-14458174D02*
X13348277Y-14467698D01*
X13348277Y-14467698D02*
X13357801Y-14486746D01*
X13357801Y-14486746D02*
X13357801Y-14543888D01*
X13357801Y-14543888D02*
X13348277Y-14562936D01*
X13348277Y-14562936D02*
X13338753Y-14572460D01*
X13338753Y-14572460D02*
X13319706Y-14581984D01*
X13319706Y-14581984D02*
X13291134Y-14581984D01*
X13472087Y-14581984D02*
X13453039Y-14572460D01*
X13453039Y-14572460D02*
X13443515Y-14553412D01*
X13443515Y-14553412D02*
X13443515Y-14381984D01*
X13624468Y-14572460D02*
X13605420Y-14581984D01*
X13605420Y-14581984D02*
X13567325Y-14581984D01*
X13567325Y-14581984D02*
X13548277Y-14572460D01*
X13548277Y-14572460D02*
X13538753Y-14553412D01*
X13538753Y-14553412D02*
X13538753Y-14477222D01*
X13538753Y-14477222D02*
X13548277Y-14458174D01*
X13548277Y-14458174D02*
X13567325Y-14448650D01*
X13567325Y-14448650D02*
X13605420Y-14448650D01*
X13605420Y-14448650D02*
X13624468Y-14458174D01*
X13624468Y-14458174D02*
X13633991Y-14477222D01*
X13633991Y-14477222D02*
X13633991Y-14496269D01*
X13633991Y-14496269D02*
X13538753Y-14515317D01*
X13710182Y-14572460D02*
X13729230Y-14581984D01*
X13729230Y-14581984D02*
X13767325Y-14581984D01*
X13767325Y-14581984D02*
X13786372Y-14572460D01*
X13786372Y-14572460D02*
X13795896Y-14553412D01*
X13795896Y-14553412D02*
X13795896Y-14543888D01*
X13795896Y-14543888D02*
X13786372Y-14524841D01*
X13786372Y-14524841D02*
X13767325Y-14515317D01*
X13767325Y-14515317D02*
X13738753Y-14515317D01*
X13738753Y-14515317D02*
X13719706Y-14505793D01*
X13719706Y-14505793D02*
X13710182Y-14486746D01*
X13710182Y-14486746D02*
X13710182Y-14477222D01*
X13710182Y-14477222D02*
X13719706Y-14458174D01*
X13719706Y-14458174D02*
X13738753Y-14448650D01*
X13738753Y-14448650D02*
X13767325Y-14448650D01*
X13767325Y-14448650D02*
X13786372Y-14458174D01*
X13862563Y-14658174D02*
X13872087Y-14648650D01*
X13872087Y-14648650D02*
X13891134Y-14620079D01*
X13891134Y-14620079D02*
X13900658Y-14601031D01*
X13900658Y-14601031D02*
X13910182Y-14572460D01*
X13910182Y-14572460D02*
X13919706Y-14524841D01*
X13919706Y-14524841D02*
X13919706Y-14486746D01*
X13919706Y-14486746D02*
X13910182Y-14439127D01*
X13910182Y-14439127D02*
X13900658Y-14410555D01*
X13900658Y-14410555D02*
X13891134Y-14391508D01*
X13891134Y-14391508D02*
X13872087Y-14362936D01*
X13872087Y-14362936D02*
X13862563Y-14353412D01*
M02*
