%TF.GenerationSoftware,KiCad,Pcbnew,9.0.1*%
%TF.CreationDate,2025-07-01T21:06:15-04:00*%
%TF.ProjectId,Tiny Solar Power Suppy,54696e79-2053-46f6-9c61-7220506f7765,rev?*%
%TF.SameCoordinates,Original*%
%TF.FileFunction,Legend,Bot*%
%TF.FilePolarity,Positive*%
%FSLAX46Y46*%
G04 Gerber Fmt 4.6, Leading zero omitted, Abs format (unit mm)*
G04 Created by KiCad (PCBNEW 9.0.1) date 2025-07-01 21:06:15*
%MOMM*%
%LPD*%
G01*
G04 APERTURE LIST*
%ADD10C,0.100000*%
%ADD11C,0.000000*%
G04 APERTURE END LIST*
D10*
X127658020Y-126720985D02*
X127391353Y-127520985D01*
X127391353Y-127520985D02*
X127124687Y-126720985D01*
X126553258Y-127482890D02*
X126629449Y-127520985D01*
X126629449Y-127520985D02*
X126781830Y-127520985D01*
X126781830Y-127520985D02*
X126858020Y-127482890D01*
X126858020Y-127482890D02*
X126896116Y-127406699D01*
X126896116Y-127406699D02*
X126896116Y-127101937D01*
X126896116Y-127101937D02*
X126858020Y-127025747D01*
X126858020Y-127025747D02*
X126781830Y-126987651D01*
X126781830Y-126987651D02*
X126629449Y-126987651D01*
X126629449Y-126987651D02*
X126553258Y-127025747D01*
X126553258Y-127025747D02*
X126515163Y-127101937D01*
X126515163Y-127101937D02*
X126515163Y-127178128D01*
X126515163Y-127178128D02*
X126896116Y-127254318D01*
X126172306Y-127520985D02*
X126172306Y-126987651D01*
X126172306Y-127140032D02*
X126134211Y-127063842D01*
X126134211Y-127063842D02*
X126096116Y-127025747D01*
X126096116Y-127025747D02*
X126019925Y-126987651D01*
X126019925Y-126987651D02*
X125943735Y-126987651D01*
X125715164Y-127482890D02*
X125638973Y-127520985D01*
X125638973Y-127520985D02*
X125486592Y-127520985D01*
X125486592Y-127520985D02*
X125410402Y-127482890D01*
X125410402Y-127482890D02*
X125372306Y-127406699D01*
X125372306Y-127406699D02*
X125372306Y-127368604D01*
X125372306Y-127368604D02*
X125410402Y-127292413D01*
X125410402Y-127292413D02*
X125486592Y-127254318D01*
X125486592Y-127254318D02*
X125600878Y-127254318D01*
X125600878Y-127254318D02*
X125677068Y-127216223D01*
X125677068Y-127216223D02*
X125715164Y-127140032D01*
X125715164Y-127140032D02*
X125715164Y-127101937D01*
X125715164Y-127101937D02*
X125677068Y-127025747D01*
X125677068Y-127025747D02*
X125600878Y-126987651D01*
X125600878Y-126987651D02*
X125486592Y-126987651D01*
X125486592Y-126987651D02*
X125410402Y-127025747D01*
X125029449Y-127520985D02*
X125029449Y-126987651D01*
X125029449Y-126720985D02*
X125067545Y-126759080D01*
X125067545Y-126759080D02*
X125029449Y-126797175D01*
X125029449Y-126797175D02*
X124991354Y-126759080D01*
X124991354Y-126759080D02*
X125029449Y-126720985D01*
X125029449Y-126720985D02*
X125029449Y-126797175D01*
X124534212Y-127520985D02*
X124610402Y-127482890D01*
X124610402Y-127482890D02*
X124648497Y-127444794D01*
X124648497Y-127444794D02*
X124686593Y-127368604D01*
X124686593Y-127368604D02*
X124686593Y-127140032D01*
X124686593Y-127140032D02*
X124648497Y-127063842D01*
X124648497Y-127063842D02*
X124610402Y-127025747D01*
X124610402Y-127025747D02*
X124534212Y-126987651D01*
X124534212Y-126987651D02*
X124419926Y-126987651D01*
X124419926Y-126987651D02*
X124343735Y-127025747D01*
X124343735Y-127025747D02*
X124305640Y-127063842D01*
X124305640Y-127063842D02*
X124267545Y-127140032D01*
X124267545Y-127140032D02*
X124267545Y-127368604D01*
X124267545Y-127368604D02*
X124305640Y-127444794D01*
X124305640Y-127444794D02*
X124343735Y-127482890D01*
X124343735Y-127482890D02*
X124419926Y-127520985D01*
X124419926Y-127520985D02*
X124534212Y-127520985D01*
X123924687Y-126987651D02*
X123924687Y-127520985D01*
X123924687Y-127063842D02*
X123886592Y-127025747D01*
X123886592Y-127025747D02*
X123810402Y-126987651D01*
X123810402Y-126987651D02*
X123696116Y-126987651D01*
X123696116Y-126987651D02*
X123619925Y-127025747D01*
X123619925Y-127025747D02*
X123581830Y-127101937D01*
X123581830Y-127101937D02*
X123581830Y-127520985D01*
X122172306Y-127520985D02*
X122629449Y-127520985D01*
X122400877Y-127520985D02*
X122400877Y-126720985D01*
X122400877Y-126720985D02*
X122477068Y-126835270D01*
X122477068Y-126835270D02*
X122553258Y-126911461D01*
X122553258Y-126911461D02*
X122629449Y-126949556D01*
X121829448Y-127444794D02*
X121791353Y-127482890D01*
X121791353Y-127482890D02*
X121829448Y-127520985D01*
X121829448Y-127520985D02*
X121867544Y-127482890D01*
X121867544Y-127482890D02*
X121829448Y-127444794D01*
X121829448Y-127444794D02*
X121829448Y-127520985D01*
X121296115Y-126720985D02*
X121219925Y-126720985D01*
X121219925Y-126720985D02*
X121143734Y-126759080D01*
X121143734Y-126759080D02*
X121105639Y-126797175D01*
X121105639Y-126797175D02*
X121067544Y-126873366D01*
X121067544Y-126873366D02*
X121029449Y-127025747D01*
X121029449Y-127025747D02*
X121029449Y-127216223D01*
X121029449Y-127216223D02*
X121067544Y-127368604D01*
X121067544Y-127368604D02*
X121105639Y-127444794D01*
X121105639Y-127444794D02*
X121143734Y-127482890D01*
X121143734Y-127482890D02*
X121219925Y-127520985D01*
X121219925Y-127520985D02*
X121296115Y-127520985D01*
X121296115Y-127520985D02*
X121372306Y-127482890D01*
X121372306Y-127482890D02*
X121410401Y-127444794D01*
X121410401Y-127444794D02*
X121448496Y-127368604D01*
X121448496Y-127368604D02*
X121486592Y-127216223D01*
X121486592Y-127216223D02*
X121486592Y-127025747D01*
X121486592Y-127025747D02*
X121448496Y-126873366D01*
X121448496Y-126873366D02*
X121410401Y-126797175D01*
X121410401Y-126797175D02*
X121372306Y-126759080D01*
X121372306Y-126759080D02*
X121296115Y-126720985D01*
X127658020Y-128008940D02*
X127200877Y-128008940D01*
X127429449Y-128808940D02*
X127429449Y-128008940D01*
X126934210Y-128808940D02*
X126934210Y-128275606D01*
X126934210Y-128008940D02*
X126972306Y-128047035D01*
X126972306Y-128047035D02*
X126934210Y-128085130D01*
X126934210Y-128085130D02*
X126896115Y-128047035D01*
X126896115Y-128047035D02*
X126934210Y-128008940D01*
X126934210Y-128008940D02*
X126934210Y-128085130D01*
X126553258Y-128275606D02*
X126553258Y-128808940D01*
X126553258Y-128351797D02*
X126515163Y-128313702D01*
X126515163Y-128313702D02*
X126438973Y-128275606D01*
X126438973Y-128275606D02*
X126324687Y-128275606D01*
X126324687Y-128275606D02*
X126248496Y-128313702D01*
X126248496Y-128313702D02*
X126210401Y-128389892D01*
X126210401Y-128389892D02*
X126210401Y-128808940D01*
X125905639Y-128275606D02*
X125715163Y-128808940D01*
X125524686Y-128275606D02*
X125715163Y-128808940D01*
X125715163Y-128808940D02*
X125791353Y-128999416D01*
X125791353Y-128999416D02*
X125829448Y-129037511D01*
X125829448Y-129037511D02*
X125905639Y-129075606D01*
X124648496Y-128770845D02*
X124534210Y-128808940D01*
X124534210Y-128808940D02*
X124343734Y-128808940D01*
X124343734Y-128808940D02*
X124267543Y-128770845D01*
X124267543Y-128770845D02*
X124229448Y-128732749D01*
X124229448Y-128732749D02*
X124191353Y-128656559D01*
X124191353Y-128656559D02*
X124191353Y-128580368D01*
X124191353Y-128580368D02*
X124229448Y-128504178D01*
X124229448Y-128504178D02*
X124267543Y-128466083D01*
X124267543Y-128466083D02*
X124343734Y-128427987D01*
X124343734Y-128427987D02*
X124496115Y-128389892D01*
X124496115Y-128389892D02*
X124572305Y-128351797D01*
X124572305Y-128351797D02*
X124610400Y-128313702D01*
X124610400Y-128313702D02*
X124648496Y-128237511D01*
X124648496Y-128237511D02*
X124648496Y-128161321D01*
X124648496Y-128161321D02*
X124610400Y-128085130D01*
X124610400Y-128085130D02*
X124572305Y-128047035D01*
X124572305Y-128047035D02*
X124496115Y-128008940D01*
X124496115Y-128008940D02*
X124305638Y-128008940D01*
X124305638Y-128008940D02*
X124191353Y-128047035D01*
X123734210Y-128808940D02*
X123810400Y-128770845D01*
X123810400Y-128770845D02*
X123848495Y-128732749D01*
X123848495Y-128732749D02*
X123886591Y-128656559D01*
X123886591Y-128656559D02*
X123886591Y-128427987D01*
X123886591Y-128427987D02*
X123848495Y-128351797D01*
X123848495Y-128351797D02*
X123810400Y-128313702D01*
X123810400Y-128313702D02*
X123734210Y-128275606D01*
X123734210Y-128275606D02*
X123619924Y-128275606D01*
X123619924Y-128275606D02*
X123543733Y-128313702D01*
X123543733Y-128313702D02*
X123505638Y-128351797D01*
X123505638Y-128351797D02*
X123467543Y-128427987D01*
X123467543Y-128427987D02*
X123467543Y-128656559D01*
X123467543Y-128656559D02*
X123505638Y-128732749D01*
X123505638Y-128732749D02*
X123543733Y-128770845D01*
X123543733Y-128770845D02*
X123619924Y-128808940D01*
X123619924Y-128808940D02*
X123734210Y-128808940D01*
X123010400Y-128808940D02*
X123086590Y-128770845D01*
X123086590Y-128770845D02*
X123124685Y-128694654D01*
X123124685Y-128694654D02*
X123124685Y-128008940D01*
X122362780Y-128808940D02*
X122362780Y-128389892D01*
X122362780Y-128389892D02*
X122400875Y-128313702D01*
X122400875Y-128313702D02*
X122477066Y-128275606D01*
X122477066Y-128275606D02*
X122629447Y-128275606D01*
X122629447Y-128275606D02*
X122705637Y-128313702D01*
X122362780Y-128770845D02*
X122438971Y-128808940D01*
X122438971Y-128808940D02*
X122629447Y-128808940D01*
X122629447Y-128808940D02*
X122705637Y-128770845D01*
X122705637Y-128770845D02*
X122743733Y-128694654D01*
X122743733Y-128694654D02*
X122743733Y-128618464D01*
X122743733Y-128618464D02*
X122705637Y-128542273D01*
X122705637Y-128542273D02*
X122629447Y-128504178D01*
X122629447Y-128504178D02*
X122438971Y-128504178D01*
X122438971Y-128504178D02*
X122362780Y-128466083D01*
X121981827Y-128808940D02*
X121981827Y-128275606D01*
X121981827Y-128427987D02*
X121943732Y-128351797D01*
X121943732Y-128351797D02*
X121905637Y-128313702D01*
X121905637Y-128313702D02*
X121829446Y-128275606D01*
X121829446Y-128275606D02*
X121753256Y-128275606D01*
X120877065Y-128808940D02*
X120877065Y-128008940D01*
X120877065Y-128008940D02*
X120572303Y-128008940D01*
X120572303Y-128008940D02*
X120496113Y-128047035D01*
X120496113Y-128047035D02*
X120458018Y-128085130D01*
X120458018Y-128085130D02*
X120419922Y-128161321D01*
X120419922Y-128161321D02*
X120419922Y-128275606D01*
X120419922Y-128275606D02*
X120458018Y-128351797D01*
X120458018Y-128351797D02*
X120496113Y-128389892D01*
X120496113Y-128389892D02*
X120572303Y-128427987D01*
X120572303Y-128427987D02*
X120877065Y-128427987D01*
X119962780Y-128808940D02*
X120038970Y-128770845D01*
X120038970Y-128770845D02*
X120077065Y-128732749D01*
X120077065Y-128732749D02*
X120115161Y-128656559D01*
X120115161Y-128656559D02*
X120115161Y-128427987D01*
X120115161Y-128427987D02*
X120077065Y-128351797D01*
X120077065Y-128351797D02*
X120038970Y-128313702D01*
X120038970Y-128313702D02*
X119962780Y-128275606D01*
X119962780Y-128275606D02*
X119848494Y-128275606D01*
X119848494Y-128275606D02*
X119772303Y-128313702D01*
X119772303Y-128313702D02*
X119734208Y-128351797D01*
X119734208Y-128351797D02*
X119696113Y-128427987D01*
X119696113Y-128427987D02*
X119696113Y-128656559D01*
X119696113Y-128656559D02*
X119734208Y-128732749D01*
X119734208Y-128732749D02*
X119772303Y-128770845D01*
X119772303Y-128770845D02*
X119848494Y-128808940D01*
X119848494Y-128808940D02*
X119962780Y-128808940D01*
X119429446Y-128275606D02*
X119277065Y-128808940D01*
X119277065Y-128808940D02*
X119124684Y-128427987D01*
X119124684Y-128427987D02*
X118972303Y-128808940D01*
X118972303Y-128808940D02*
X118819922Y-128275606D01*
X118210398Y-128770845D02*
X118286589Y-128808940D01*
X118286589Y-128808940D02*
X118438970Y-128808940D01*
X118438970Y-128808940D02*
X118515160Y-128770845D01*
X118515160Y-128770845D02*
X118553256Y-128694654D01*
X118553256Y-128694654D02*
X118553256Y-128389892D01*
X118553256Y-128389892D02*
X118515160Y-128313702D01*
X118515160Y-128313702D02*
X118438970Y-128275606D01*
X118438970Y-128275606D02*
X118286589Y-128275606D01*
X118286589Y-128275606D02*
X118210398Y-128313702D01*
X118210398Y-128313702D02*
X118172303Y-128389892D01*
X118172303Y-128389892D02*
X118172303Y-128466083D01*
X118172303Y-128466083D02*
X118553256Y-128542273D01*
X117829446Y-128808940D02*
X117829446Y-128275606D01*
X117829446Y-128427987D02*
X117791351Y-128351797D01*
X117791351Y-128351797D02*
X117753256Y-128313702D01*
X117753256Y-128313702D02*
X117677065Y-128275606D01*
X117677065Y-128275606D02*
X117600875Y-128275606D01*
X116762780Y-128770845D02*
X116648494Y-128808940D01*
X116648494Y-128808940D02*
X116458018Y-128808940D01*
X116458018Y-128808940D02*
X116381827Y-128770845D01*
X116381827Y-128770845D02*
X116343732Y-128732749D01*
X116343732Y-128732749D02*
X116305637Y-128656559D01*
X116305637Y-128656559D02*
X116305637Y-128580368D01*
X116305637Y-128580368D02*
X116343732Y-128504178D01*
X116343732Y-128504178D02*
X116381827Y-128466083D01*
X116381827Y-128466083D02*
X116458018Y-128427987D01*
X116458018Y-128427987D02*
X116610399Y-128389892D01*
X116610399Y-128389892D02*
X116686589Y-128351797D01*
X116686589Y-128351797D02*
X116724684Y-128313702D01*
X116724684Y-128313702D02*
X116762780Y-128237511D01*
X116762780Y-128237511D02*
X116762780Y-128161321D01*
X116762780Y-128161321D02*
X116724684Y-128085130D01*
X116724684Y-128085130D02*
X116686589Y-128047035D01*
X116686589Y-128047035D02*
X116610399Y-128008940D01*
X116610399Y-128008940D02*
X116419922Y-128008940D01*
X116419922Y-128008940D02*
X116305637Y-128047035D01*
X115619922Y-128275606D02*
X115619922Y-128808940D01*
X115962779Y-128275606D02*
X115962779Y-128694654D01*
X115962779Y-128694654D02*
X115924684Y-128770845D01*
X115924684Y-128770845D02*
X115848494Y-128808940D01*
X115848494Y-128808940D02*
X115734208Y-128808940D01*
X115734208Y-128808940D02*
X115658017Y-128770845D01*
X115658017Y-128770845D02*
X115619922Y-128732749D01*
X115238969Y-128275606D02*
X115238969Y-129075606D01*
X115238969Y-128313702D02*
X115162779Y-128275606D01*
X115162779Y-128275606D02*
X115010398Y-128275606D01*
X115010398Y-128275606D02*
X114934207Y-128313702D01*
X114934207Y-128313702D02*
X114896112Y-128351797D01*
X114896112Y-128351797D02*
X114858017Y-128427987D01*
X114858017Y-128427987D02*
X114858017Y-128656559D01*
X114858017Y-128656559D02*
X114896112Y-128732749D01*
X114896112Y-128732749D02*
X114934207Y-128770845D01*
X114934207Y-128770845D02*
X115010398Y-128808940D01*
X115010398Y-128808940D02*
X115162779Y-128808940D01*
X115162779Y-128808940D02*
X115238969Y-128770845D01*
X114515159Y-128275606D02*
X114515159Y-129075606D01*
X114515159Y-128313702D02*
X114438969Y-128275606D01*
X114438969Y-128275606D02*
X114286588Y-128275606D01*
X114286588Y-128275606D02*
X114210397Y-128313702D01*
X114210397Y-128313702D02*
X114172302Y-128351797D01*
X114172302Y-128351797D02*
X114134207Y-128427987D01*
X114134207Y-128427987D02*
X114134207Y-128656559D01*
X114134207Y-128656559D02*
X114172302Y-128732749D01*
X114172302Y-128732749D02*
X114210397Y-128770845D01*
X114210397Y-128770845D02*
X114286588Y-128808940D01*
X114286588Y-128808940D02*
X114438969Y-128808940D01*
X114438969Y-128808940D02*
X114515159Y-128770845D01*
X113677064Y-128808940D02*
X113753254Y-128770845D01*
X113753254Y-128770845D02*
X113791349Y-128694654D01*
X113791349Y-128694654D02*
X113791349Y-128008940D01*
X113448492Y-128275606D02*
X113258016Y-128808940D01*
X113067539Y-128275606D02*
X113258016Y-128808940D01*
X113258016Y-128808940D02*
X113334206Y-128999416D01*
X113334206Y-128999416D02*
X113372301Y-129037511D01*
X113372301Y-129037511D02*
X113448492Y-129075606D01*
X127277068Y-129677847D02*
X127162782Y-129715942D01*
X127162782Y-129715942D02*
X127124687Y-129754038D01*
X127124687Y-129754038D02*
X127086591Y-129830228D01*
X127086591Y-129830228D02*
X127086591Y-129944514D01*
X127086591Y-129944514D02*
X127124687Y-130020704D01*
X127124687Y-130020704D02*
X127162782Y-130058800D01*
X127162782Y-130058800D02*
X127238972Y-130096895D01*
X127238972Y-130096895D02*
X127543734Y-130096895D01*
X127543734Y-130096895D02*
X127543734Y-129296895D01*
X127543734Y-129296895D02*
X127277068Y-129296895D01*
X127277068Y-129296895D02*
X127200877Y-129334990D01*
X127200877Y-129334990D02*
X127162782Y-129373085D01*
X127162782Y-129373085D02*
X127124687Y-129449276D01*
X127124687Y-129449276D02*
X127124687Y-129525466D01*
X127124687Y-129525466D02*
X127162782Y-129601657D01*
X127162782Y-129601657D02*
X127200877Y-129639752D01*
X127200877Y-129639752D02*
X127277068Y-129677847D01*
X127277068Y-129677847D02*
X127543734Y-129677847D01*
X126819925Y-129563561D02*
X126629449Y-130096895D01*
X126438972Y-129563561D02*
X126629449Y-130096895D01*
X126629449Y-130096895D02*
X126705639Y-130287371D01*
X126705639Y-130287371D02*
X126743734Y-130325466D01*
X126743734Y-130325466D02*
X126819925Y-130363561D01*
X125067543Y-130096895D02*
X125334210Y-129715942D01*
X125524686Y-130096895D02*
X125524686Y-129296895D01*
X125524686Y-129296895D02*
X125219924Y-129296895D01*
X125219924Y-129296895D02*
X125143734Y-129334990D01*
X125143734Y-129334990D02*
X125105639Y-129373085D01*
X125105639Y-129373085D02*
X125067543Y-129449276D01*
X125067543Y-129449276D02*
X125067543Y-129563561D01*
X125067543Y-129563561D02*
X125105639Y-129639752D01*
X125105639Y-129639752D02*
X125143734Y-129677847D01*
X125143734Y-129677847D02*
X125219924Y-129715942D01*
X125219924Y-129715942D02*
X125524686Y-129715942D01*
X124381829Y-130096895D02*
X124381829Y-129677847D01*
X124381829Y-129677847D02*
X124419924Y-129601657D01*
X124419924Y-129601657D02*
X124496115Y-129563561D01*
X124496115Y-129563561D02*
X124648496Y-129563561D01*
X124648496Y-129563561D02*
X124724686Y-129601657D01*
X124381829Y-130058800D02*
X124458020Y-130096895D01*
X124458020Y-130096895D02*
X124648496Y-130096895D01*
X124648496Y-130096895D02*
X124724686Y-130058800D01*
X124724686Y-130058800D02*
X124762782Y-129982609D01*
X124762782Y-129982609D02*
X124762782Y-129906419D01*
X124762782Y-129906419D02*
X124724686Y-129830228D01*
X124724686Y-129830228D02*
X124648496Y-129792133D01*
X124648496Y-129792133D02*
X124458020Y-129792133D01*
X124458020Y-129792133D02*
X124381829Y-129754038D01*
X123696114Y-130058800D02*
X123772305Y-130096895D01*
X123772305Y-130096895D02*
X123924686Y-130096895D01*
X123924686Y-130096895D02*
X124000876Y-130058800D01*
X124000876Y-130058800D02*
X124038972Y-129982609D01*
X124038972Y-129982609D02*
X124038972Y-129677847D01*
X124038972Y-129677847D02*
X124000876Y-129601657D01*
X124000876Y-129601657D02*
X123924686Y-129563561D01*
X123924686Y-129563561D02*
X123772305Y-129563561D01*
X123772305Y-129563561D02*
X123696114Y-129601657D01*
X123696114Y-129601657D02*
X123658019Y-129677847D01*
X123658019Y-129677847D02*
X123658019Y-129754038D01*
X123658019Y-129754038D02*
X124038972Y-129830228D01*
X123315162Y-130096895D02*
X123315162Y-129563561D01*
X123315162Y-129296895D02*
X123353258Y-129334990D01*
X123353258Y-129334990D02*
X123315162Y-129373085D01*
X123315162Y-129373085D02*
X123277067Y-129334990D01*
X123277067Y-129334990D02*
X123315162Y-129296895D01*
X123315162Y-129296895D02*
X123315162Y-129373085D01*
X122934210Y-129563561D02*
X122934210Y-130096895D01*
X122934210Y-129639752D02*
X122896115Y-129601657D01*
X122896115Y-129601657D02*
X122819925Y-129563561D01*
X122819925Y-129563561D02*
X122705639Y-129563561D01*
X122705639Y-129563561D02*
X122629448Y-129601657D01*
X122629448Y-129601657D02*
X122591353Y-129677847D01*
X122591353Y-129677847D02*
X122591353Y-130096895D01*
X121219924Y-130096895D02*
X121600876Y-130096895D01*
X121600876Y-130096895D02*
X121600876Y-129296895D01*
X120610400Y-130096895D02*
X120610400Y-129677847D01*
X120610400Y-129677847D02*
X120648495Y-129601657D01*
X120648495Y-129601657D02*
X120724686Y-129563561D01*
X120724686Y-129563561D02*
X120877067Y-129563561D01*
X120877067Y-129563561D02*
X120953257Y-129601657D01*
X120610400Y-130058800D02*
X120686591Y-130096895D01*
X120686591Y-130096895D02*
X120877067Y-130096895D01*
X120877067Y-130096895D02*
X120953257Y-130058800D01*
X120953257Y-130058800D02*
X120991353Y-129982609D01*
X120991353Y-129982609D02*
X120991353Y-129906419D01*
X120991353Y-129906419D02*
X120953257Y-129830228D01*
X120953257Y-129830228D02*
X120877067Y-129792133D01*
X120877067Y-129792133D02*
X120686591Y-129792133D01*
X120686591Y-129792133D02*
X120610400Y-129754038D01*
X120305638Y-129563561D02*
X120115162Y-130096895D01*
X119924685Y-129563561D02*
X120115162Y-130096895D01*
X120115162Y-130096895D02*
X120191352Y-130287371D01*
X120191352Y-130287371D02*
X120229447Y-130325466D01*
X120229447Y-130325466D02*
X120305638Y-130363561D01*
X119315161Y-130058800D02*
X119391352Y-130096895D01*
X119391352Y-130096895D02*
X119543733Y-130096895D01*
X119543733Y-130096895D02*
X119619923Y-130058800D01*
X119619923Y-130058800D02*
X119658019Y-129982609D01*
X119658019Y-129982609D02*
X119658019Y-129677847D01*
X119658019Y-129677847D02*
X119619923Y-129601657D01*
X119619923Y-129601657D02*
X119543733Y-129563561D01*
X119543733Y-129563561D02*
X119391352Y-129563561D01*
X119391352Y-129563561D02*
X119315161Y-129601657D01*
X119315161Y-129601657D02*
X119277066Y-129677847D01*
X119277066Y-129677847D02*
X119277066Y-129754038D01*
X119277066Y-129754038D02*
X119658019Y-129830228D01*
X118591352Y-129563561D02*
X118591352Y-130211180D01*
X118591352Y-130211180D02*
X118629447Y-130287371D01*
X118629447Y-130287371D02*
X118667543Y-130325466D01*
X118667543Y-130325466D02*
X118743733Y-130363561D01*
X118743733Y-130363561D02*
X118858019Y-130363561D01*
X118858019Y-130363561D02*
X118934209Y-130325466D01*
X118591352Y-130058800D02*
X118667543Y-130096895D01*
X118667543Y-130096895D02*
X118819924Y-130096895D01*
X118819924Y-130096895D02*
X118896114Y-130058800D01*
X118896114Y-130058800D02*
X118934209Y-130020704D01*
X118934209Y-130020704D02*
X118972305Y-129944514D01*
X118972305Y-129944514D02*
X118972305Y-129715942D01*
X118972305Y-129715942D02*
X118934209Y-129639752D01*
X118934209Y-129639752D02*
X118896114Y-129601657D01*
X118896114Y-129601657D02*
X118819924Y-129563561D01*
X118819924Y-129563561D02*
X118667543Y-129563561D01*
X118667543Y-129563561D02*
X118591352Y-129601657D01*
X118210399Y-130096895D02*
X118210399Y-129296895D01*
X117867542Y-130096895D02*
X117867542Y-129677847D01*
X117867542Y-129677847D02*
X117905637Y-129601657D01*
X117905637Y-129601657D02*
X117981828Y-129563561D01*
X117981828Y-129563561D02*
X118096114Y-129563561D01*
X118096114Y-129563561D02*
X118172304Y-129601657D01*
X118172304Y-129601657D02*
X118210399Y-129639752D01*
X116877065Y-130096895D02*
X116877065Y-129296895D01*
X116877065Y-129296895D02*
X116572303Y-129296895D01*
X116572303Y-129296895D02*
X116496113Y-129334990D01*
X116496113Y-129334990D02*
X116458018Y-129373085D01*
X116458018Y-129373085D02*
X116419922Y-129449276D01*
X116419922Y-129449276D02*
X116419922Y-129563561D01*
X116419922Y-129563561D02*
X116458018Y-129639752D01*
X116458018Y-129639752D02*
X116496113Y-129677847D01*
X116496113Y-129677847D02*
X116572303Y-129715942D01*
X116572303Y-129715942D02*
X116877065Y-129715942D01*
X115962780Y-130096895D02*
X116038970Y-130058800D01*
X116038970Y-130058800D02*
X116077065Y-130020704D01*
X116077065Y-130020704D02*
X116115161Y-129944514D01*
X116115161Y-129944514D02*
X116115161Y-129715942D01*
X116115161Y-129715942D02*
X116077065Y-129639752D01*
X116077065Y-129639752D02*
X116038970Y-129601657D01*
X116038970Y-129601657D02*
X115962780Y-129563561D01*
X115962780Y-129563561D02*
X115848494Y-129563561D01*
X115848494Y-129563561D02*
X115772303Y-129601657D01*
X115772303Y-129601657D02*
X115734208Y-129639752D01*
X115734208Y-129639752D02*
X115696113Y-129715942D01*
X115696113Y-129715942D02*
X115696113Y-129944514D01*
X115696113Y-129944514D02*
X115734208Y-130020704D01*
X115734208Y-130020704D02*
X115772303Y-130058800D01*
X115772303Y-130058800D02*
X115848494Y-130096895D01*
X115848494Y-130096895D02*
X115962780Y-130096895D01*
X115010398Y-129563561D02*
X115010398Y-130096895D01*
X115353255Y-129563561D02*
X115353255Y-129982609D01*
X115353255Y-129982609D02*
X115315160Y-130058800D01*
X115315160Y-130058800D02*
X115238970Y-130096895D01*
X115238970Y-130096895D02*
X115124684Y-130096895D01*
X115124684Y-130096895D02*
X115048493Y-130058800D01*
X115048493Y-130058800D02*
X115010398Y-130020704D01*
X114629445Y-130096895D02*
X114629445Y-129563561D01*
X114629445Y-129715942D02*
X114591350Y-129639752D01*
X114591350Y-129639752D02*
X114553255Y-129601657D01*
X114553255Y-129601657D02*
X114477064Y-129563561D01*
X114477064Y-129563561D02*
X114400874Y-129563561D01*
D11*
%TO.C,G\u002A\u002A\u002A*%
G36*
X114201678Y-125221889D02*
G01*
X114201678Y-125527823D01*
X114149446Y-125527823D01*
X114097213Y-125527823D01*
X114097213Y-125393511D01*
X114097213Y-125259198D01*
X114015133Y-125259198D01*
X114013878Y-125259198D01*
X113967497Y-125258400D01*
X113943464Y-125253344D01*
X113934431Y-125240022D01*
X113933053Y-125214427D01*
X113933053Y-125213743D01*
X113934516Y-125188444D01*
X113943786Y-125175335D01*
X113968209Y-125170408D01*
X114015133Y-125169656D01*
X114097213Y-125169656D01*
X114097213Y-125080115D01*
X114096385Y-125045373D01*
X114090444Y-125003510D01*
X114078558Y-124988999D01*
X114072943Y-124988676D01*
X114040501Y-124988092D01*
X113996479Y-124988272D01*
X113984904Y-124988365D01*
X113950649Y-124985954D01*
X113936090Y-124975546D01*
X113933053Y-124952536D01*
X113933059Y-124949865D01*
X113934681Y-124933486D01*
X113943181Y-124923470D01*
X113964300Y-124918252D01*
X114003781Y-124916269D01*
X114067366Y-124915955D01*
X114201678Y-124915955D01*
X114201678Y-125221889D01*
G37*
G36*
X113798398Y-125246831D02*
G01*
X113794512Y-125342340D01*
X113785663Y-125412702D01*
X113771054Y-125461058D01*
X113749890Y-125490552D01*
X113721375Y-125504326D01*
X113696765Y-125509588D01*
X113656966Y-125518049D01*
X113646131Y-125520293D01*
X113612801Y-125525101D01*
X113583245Y-125522653D01*
X113541332Y-125512122D01*
X113534292Y-125510074D01*
X113499527Y-125495291D01*
X113474381Y-125472495D01*
X113457384Y-125437337D01*
X113447064Y-125385465D01*
X113441951Y-125312532D01*
X113440574Y-125214187D01*
X113440640Y-125209013D01*
X113545039Y-125209013D01*
X113545041Y-125211762D01*
X113546322Y-125285597D01*
X113549652Y-125350224D01*
X113554539Y-125398764D01*
X113560488Y-125424339D01*
X113577752Y-125442612D01*
X113619657Y-125453205D01*
X113649978Y-125448263D01*
X113678827Y-125424339D01*
X113679054Y-125423894D01*
X113684973Y-125397370D01*
X113689812Y-125348130D01*
X113693077Y-125283052D01*
X113694275Y-125209013D01*
X113693684Y-125143695D01*
X113690143Y-125072394D01*
X113682266Y-125023990D01*
X113668756Y-124994433D01*
X113648319Y-124979670D01*
X113619657Y-124975649D01*
X113598772Y-124977499D01*
X113575973Y-124988571D01*
X113560496Y-125013207D01*
X113551045Y-125055458D01*
X113546325Y-125119376D01*
X113545039Y-125209013D01*
X113440640Y-125209013D01*
X113441736Y-125123058D01*
X113447183Y-125044514D01*
X113459163Y-124988635D01*
X113479909Y-124951654D01*
X113511655Y-124929805D01*
X113556632Y-124919319D01*
X113617074Y-124916430D01*
X113661130Y-124917035D01*
X113699714Y-124922139D01*
X113727480Y-124935207D01*
X113755118Y-124959578D01*
X113798741Y-125003201D01*
X113798741Y-125198835D01*
X113798668Y-125209013D01*
X113798398Y-125246831D01*
G37*
G36*
X113305954Y-125132352D02*
G01*
X113306261Y-125224376D01*
X113306261Y-125527823D01*
X113247148Y-125527823D01*
X113188034Y-125527823D01*
X113183722Y-125397242D01*
X113179410Y-125266660D01*
X113134817Y-125271513D01*
X113112926Y-125274828D01*
X113076129Y-125290599D01*
X113057579Y-125322459D01*
X113052356Y-125376683D01*
X113052278Y-125388132D01*
X113048946Y-125450177D01*
X113039133Y-125488338D01*
X113020605Y-125507588D01*
X112991125Y-125512900D01*
X112985953Y-125512888D01*
X112964236Y-125510766D01*
X112952978Y-125500014D01*
X112948742Y-125473559D01*
X112948094Y-125424329D01*
X112948418Y-125401547D01*
X112956847Y-125322989D01*
X112976695Y-125271995D01*
X113007968Y-125248552D01*
X113020803Y-125244894D01*
X113034945Y-125236044D01*
X113027847Y-125221224D01*
X112998410Y-125194179D01*
X112994379Y-125190531D01*
X112962360Y-125141979D01*
X112948843Y-125081576D01*
X112950133Y-125068058D01*
X113053383Y-125068058D01*
X113055840Y-125115595D01*
X113068008Y-125155714D01*
X113090147Y-125176742D01*
X113135165Y-125184580D01*
X113186872Y-125184580D01*
X113186872Y-125087577D01*
X113186872Y-124990573D01*
X113137624Y-124990573D01*
X113136520Y-124990577D01*
X113097088Y-124995966D01*
X113070468Y-125008481D01*
X113060413Y-125026485D01*
X113053383Y-125068058D01*
X112950133Y-125068058D01*
X112954690Y-125020314D01*
X112980762Y-124969182D01*
X112995817Y-124953109D01*
X113016430Y-124938582D01*
X113044952Y-124929266D01*
X113088688Y-124923001D01*
X113154941Y-124917624D01*
X113187945Y-124915491D01*
X113243368Y-124912940D01*
X113282943Y-124912521D01*
X113299721Y-124914389D01*
X113300185Y-124915616D01*
X113302116Y-124937977D01*
X113303785Y-124984593D01*
X113305097Y-125050905D01*
X113305483Y-125087577D01*
X113305954Y-125132352D01*
G37*
G36*
X112752186Y-124913664D02*
G01*
X112828705Y-124918836D01*
X112828705Y-125224321D01*
X112828705Y-125529806D01*
X112787665Y-125525084D01*
X112746625Y-125520361D01*
X112739164Y-125259198D01*
X112736502Y-125183781D01*
X112732869Y-125113031D01*
X112728823Y-125059392D01*
X112724687Y-125027107D01*
X112720791Y-125020420D01*
X112717600Y-125029645D01*
X112708045Y-125065627D01*
X112694560Y-125122084D01*
X112678455Y-125193441D01*
X112661046Y-125274122D01*
X112612212Y-125505438D01*
X112557566Y-125509994D01*
X112550106Y-125510732D01*
X112532016Y-125512763D01*
X112518306Y-125511699D01*
X112507400Y-125503825D01*
X112497722Y-125485427D01*
X112487696Y-125452791D01*
X112475747Y-125402202D01*
X112460300Y-125329945D01*
X112439778Y-125232305D01*
X112429160Y-125183717D01*
X112412538Y-125114074D01*
X112397804Y-125059877D01*
X112386251Y-125025739D01*
X112379175Y-125016273D01*
X112376160Y-125026080D01*
X112371872Y-125061992D01*
X112367981Y-125118867D01*
X112364821Y-125191449D01*
X112362728Y-125274482D01*
X112361206Y-125359263D01*
X112359384Y-125426280D01*
X112356747Y-125471778D01*
X112352645Y-125500084D01*
X112346425Y-125515527D01*
X112337438Y-125522433D01*
X112325033Y-125525130D01*
X112303701Y-125524230D01*
X112289820Y-125510207D01*
X112289786Y-125509731D01*
X112289162Y-125487466D01*
X112288421Y-125440647D01*
X112287621Y-125374248D01*
X112286824Y-125293242D01*
X112286089Y-125202601D01*
X112283993Y-124914688D01*
X112365116Y-124919052D01*
X112446239Y-124923417D01*
X112491967Y-125144372D01*
X112500565Y-125184710D01*
X112517163Y-125256170D01*
X112532296Y-125313495D01*
X112544577Y-125351626D01*
X112552618Y-125365504D01*
X112555541Y-125362919D01*
X112566065Y-125338289D01*
X112580541Y-125291765D01*
X112597455Y-125228476D01*
X112615290Y-125153545D01*
X112622316Y-125122452D01*
X112639111Y-125049159D01*
X112653440Y-124988042D01*
X112663967Y-124944755D01*
X112669353Y-124924951D01*
X112673856Y-124920255D01*
X112702717Y-124913500D01*
X112752186Y-124913664D01*
G37*
G36*
X111888517Y-125166672D02*
G01*
X111888520Y-125177783D01*
X111889078Y-125274271D01*
X111891309Y-125345207D01*
X111896230Y-125394494D01*
X111904857Y-125426034D01*
X111918205Y-125443731D01*
X111937293Y-125451487D01*
X111963135Y-125453205D01*
X111978959Y-125452682D01*
X112001994Y-125447335D01*
X112018119Y-125432806D01*
X112028556Y-125404963D01*
X112034527Y-125359677D01*
X112037253Y-125292816D01*
X112037957Y-125200250D01*
X112037966Y-125192073D01*
X112038498Y-125095304D01*
X112040385Y-125024175D01*
X112044484Y-124974765D01*
X112051653Y-124943158D01*
X112062749Y-124925432D01*
X112078629Y-124917671D01*
X112100150Y-124915955D01*
X112144143Y-124915955D01*
X112139450Y-125175957D01*
X112137720Y-125263816D01*
X112135616Y-125334671D01*
X112132650Y-125384828D01*
X112128180Y-125419044D01*
X112121567Y-125442075D01*
X112112168Y-125458680D01*
X112099342Y-125473615D01*
X112098816Y-125474171D01*
X112062451Y-125502288D01*
X112024724Y-125517617D01*
X111993295Y-125520210D01*
X111935545Y-125517275D01*
X111879956Y-125507378D01*
X111840285Y-125492400D01*
X111825096Y-125479207D01*
X111808876Y-125450460D01*
X111797236Y-125406042D01*
X111789611Y-125342430D01*
X111785433Y-125256103D01*
X111784135Y-125143540D01*
X111784052Y-124915955D01*
X111836285Y-124915955D01*
X111888517Y-124915955D01*
X111888517Y-125166672D01*
G37*
G36*
X111579200Y-124918766D02*
G01*
X111627354Y-124923417D01*
X111631394Y-125225620D01*
X111635434Y-125527823D01*
X111500812Y-125527823D01*
X111490642Y-125527822D01*
X111430544Y-125527375D01*
X111393785Y-125525056D01*
X111374631Y-125519307D01*
X111367345Y-125508572D01*
X111366191Y-125491294D01*
X111367078Y-125476393D01*
X111375418Y-125461563D01*
X111398766Y-125454145D01*
X111444540Y-125450254D01*
X111522889Y-125445743D01*
X111526968Y-125179930D01*
X111531047Y-124914116D01*
X111579200Y-124918766D01*
G37*
G36*
X111221215Y-125322973D02*
G01*
X111236926Y-125391898D01*
X111249809Y-125449265D01*
X111258523Y-125489242D01*
X111261725Y-125506000D01*
X111254282Y-125510453D01*
X111228147Y-125517291D01*
X111205794Y-125521606D01*
X111184244Y-125525791D01*
X111179336Y-125521967D01*
X111167282Y-125497281D01*
X111153898Y-125456940D01*
X111133878Y-125386058D01*
X111059884Y-125386053D01*
X110985889Y-125386049D01*
X110972451Y-125449474D01*
X110969017Y-125465056D01*
X110958316Y-125497064D01*
X110941466Y-125510298D01*
X110910517Y-125512900D01*
X110862022Y-125512900D01*
X110887961Y-125397242D01*
X110899165Y-125347571D01*
X110914443Y-125280335D01*
X111010376Y-125280335D01*
X111012592Y-125298588D01*
X111016080Y-125301273D01*
X111044755Y-125310034D01*
X111081453Y-125312122D01*
X111108628Y-125306154D01*
X111114301Y-125288345D01*
X111111533Y-125241814D01*
X111099371Y-125166994D01*
X111093186Y-125134853D01*
X111079473Y-125070703D01*
X111068193Y-125034978D01*
X111058060Y-125027908D01*
X111047787Y-125049722D01*
X111036086Y-125100653D01*
X111021673Y-125180932D01*
X111020457Y-125188208D01*
X111013205Y-125240850D01*
X111010376Y-125280335D01*
X110914443Y-125280335D01*
X110916905Y-125269499D01*
X110936705Y-125182815D01*
X110956000Y-125098769D01*
X110998101Y-124915955D01*
X111060942Y-124915955D01*
X111123784Y-124915955D01*
X111149141Y-125016689D01*
X111156921Y-125048290D01*
X111170529Y-125105147D01*
X111186675Y-125173767D01*
X111204017Y-125248319D01*
X111213238Y-125288345D01*
X111221215Y-125322973D01*
G37*
G36*
X110545392Y-125221889D02*
G01*
X110545392Y-125527823D01*
X110493159Y-125527823D01*
X110460858Y-125525813D01*
X110443948Y-125514486D01*
X110439427Y-125486783D01*
X110439195Y-125480501D01*
X110436479Y-125414605D01*
X110433494Y-125352844D01*
X110430683Y-125303784D01*
X110428490Y-125275987D01*
X110425179Y-125269083D01*
X110403270Y-125262212D01*
X110369897Y-125266384D01*
X110335456Y-125279525D01*
X110310345Y-125299561D01*
X110301718Y-125321861D01*
X110294431Y-125367925D01*
X110291690Y-125426210D01*
X110291690Y-125527823D01*
X110237495Y-125527823D01*
X110183300Y-125527823D01*
X110190657Y-125413186D01*
X110191615Y-125398746D01*
X110196801Y-125343604D01*
X110204916Y-125307846D01*
X110218836Y-125282790D01*
X110241433Y-125259752D01*
X110284853Y-125220957D01*
X110245465Y-125188336D01*
X110209618Y-125143033D01*
X110194971Y-125081052D01*
X110195469Y-125077899D01*
X110295504Y-125077899D01*
X110296078Y-125122370D01*
X110314381Y-125155070D01*
X110338146Y-125171584D01*
X110374840Y-125183009D01*
X110409642Y-125184254D01*
X110430331Y-125173387D01*
X110432616Y-125162240D01*
X110434731Y-125127563D01*
X110434942Y-125080115D01*
X110433343Y-125034627D01*
X110427840Y-125008919D01*
X110414338Y-124997993D01*
X110388694Y-124994147D01*
X110381224Y-124993599D01*
X110336917Y-124998306D01*
X110310718Y-125022268D01*
X110296616Y-125070467D01*
X110295504Y-125077899D01*
X110195469Y-125077899D01*
X110206257Y-125009665D01*
X110217533Y-124982224D01*
X110242883Y-124950069D01*
X110281978Y-124929848D01*
X110340035Y-124919303D01*
X110422272Y-124916175D01*
X110545392Y-124915955D01*
X110545392Y-125080115D01*
X110545392Y-125221889D01*
G37*
G36*
X109088810Y-125218158D02*
G01*
X109088635Y-125239141D01*
X109087790Y-125328745D01*
X109086904Y-125406555D01*
X109086037Y-125468059D01*
X109085252Y-125508742D01*
X109084612Y-125524092D01*
X109083991Y-125524557D01*
X109065737Y-125526878D01*
X109030644Y-125527823D01*
X108978412Y-125527823D01*
X108978412Y-125221889D01*
X108978412Y-124915955D01*
X109034842Y-124915955D01*
X109091273Y-124915955D01*
X109088810Y-125218158D01*
G37*
G36*
X108844099Y-125221144D02*
G01*
X108844099Y-125527823D01*
X108807671Y-125527823D01*
X108782790Y-125524921D01*
X108763374Y-125515092D01*
X108761191Y-125502035D01*
X108758668Y-125463013D01*
X108756477Y-125403432D01*
X108754799Y-125328402D01*
X108753814Y-125243037D01*
X108752844Y-125169287D01*
X108750788Y-125098565D01*
X108747936Y-125044901D01*
X108744522Y-125012557D01*
X108740780Y-125005797D01*
X108736781Y-125017599D01*
X108726863Y-125055955D01*
X108713246Y-125114484D01*
X108697179Y-125187769D01*
X108679905Y-125270391D01*
X108672659Y-125305712D01*
X108655666Y-125386056D01*
X108642387Y-125442632D01*
X108631460Y-125479530D01*
X108621526Y-125500840D01*
X108611224Y-125510655D01*
X108599192Y-125513064D01*
X108595957Y-125513122D01*
X108557939Y-125516203D01*
X108512048Y-125522478D01*
X108456085Y-125531729D01*
X108456085Y-125223842D01*
X108456085Y-124915955D01*
X108500856Y-124915955D01*
X108545627Y-124915955D01*
X108545627Y-125169656D01*
X108546039Y-125236277D01*
X108547624Y-125310857D01*
X108550186Y-125370127D01*
X108553503Y-125409243D01*
X108557351Y-125423358D01*
X108562336Y-125414368D01*
X108572831Y-125380483D01*
X108586942Y-125325863D01*
X108603457Y-125255250D01*
X108621166Y-125173387D01*
X108673257Y-124923417D01*
X108758678Y-124918941D01*
X108844099Y-124914465D01*
X108844099Y-125221144D01*
G37*
G36*
X108174366Y-124916868D02*
G01*
X108211559Y-124923011D01*
X108240534Y-124938887D01*
X108273308Y-124968971D01*
X108326324Y-125021988D01*
X108316573Y-125225313D01*
X108315655Y-125243859D01*
X108309697Y-125334933D01*
X108301468Y-125401423D01*
X108289351Y-125447818D01*
X108271729Y-125478605D01*
X108246984Y-125498270D01*
X108213498Y-125511302D01*
X108204234Y-125513424D01*
X108161898Y-125517514D01*
X108107268Y-125518093D01*
X108050861Y-125515544D01*
X108003198Y-125510251D01*
X107974798Y-125502598D01*
X107971653Y-125494805D01*
X107967505Y-125462396D01*
X107964661Y-125411179D01*
X107963605Y-125347859D01*
X107963605Y-125199504D01*
X108036627Y-125199504D01*
X108057819Y-125199962D01*
X108099931Y-125206582D01*
X108118238Y-125221889D01*
X108122062Y-125247432D01*
X108111797Y-125276611D01*
X108088860Y-125289045D01*
X108077958Y-125294969D01*
X108070351Y-125321009D01*
X108068071Y-125372026D01*
X108068071Y-125455007D01*
X108123691Y-125450375D01*
X108134962Y-125449189D01*
X108174480Y-125436663D01*
X108198089Y-125408434D01*
X108205720Y-125380713D01*
X108212052Y-125328774D01*
X108215866Y-125263024D01*
X108217043Y-125191912D01*
X108215460Y-125123886D01*
X108210995Y-125067396D01*
X108203527Y-125030889D01*
X108194030Y-125011638D01*
X108163389Y-124983749D01*
X108127042Y-124980218D01*
X108092120Y-125000385D01*
X108065753Y-125043595D01*
X108053747Y-125071385D01*
X108033756Y-125090552D01*
X107999920Y-125095038D01*
X107952690Y-125095038D01*
X107964189Y-125032155D01*
X107979826Y-124980132D01*
X108010267Y-124942295D01*
X108059063Y-124921994D01*
X108130911Y-124915955D01*
X108174366Y-124916868D01*
G37*
G36*
X110042264Y-125341248D02*
G01*
X110055553Y-125406697D01*
X110064536Y-125455865D01*
X110067836Y-125482636D01*
X110067489Y-125489557D01*
X110056485Y-125507948D01*
X110024377Y-125512900D01*
X110022294Y-125512893D01*
X109994470Y-125509058D01*
X109979953Y-125492372D01*
X109971030Y-125454374D01*
X109962369Y-125416686D01*
X109947121Y-125395342D01*
X109917721Y-125386613D01*
X109866367Y-125385352D01*
X109844986Y-125385877D01*
X109817398Y-125391458D01*
X109803091Y-125409918D01*
X109792613Y-125449474D01*
X109788699Y-125466432D01*
X109777670Y-125497669D01*
X109760251Y-125510447D01*
X109728182Y-125512900D01*
X109705428Y-125512026D01*
X109685686Y-125504753D01*
X109685193Y-125486783D01*
X109686861Y-125480301D01*
X109694763Y-125446579D01*
X109707078Y-125392054D01*
X109722476Y-125322646D01*
X109729285Y-125291534D01*
X109825449Y-125291534D01*
X109827521Y-125305893D01*
X109835847Y-125307435D01*
X109874661Y-125310327D01*
X109909711Y-125307854D01*
X109928092Y-125300684D01*
X109930026Y-125290495D01*
X109928568Y-125257400D01*
X109922848Y-125211084D01*
X109914359Y-125160125D01*
X109904589Y-125113104D01*
X109895030Y-125078599D01*
X109887173Y-125065191D01*
X109881813Y-125060592D01*
X109884137Y-125039075D01*
X109887303Y-125025324D01*
X109879937Y-125025325D01*
X109877527Y-125028838D01*
X109868392Y-125054964D01*
X109857513Y-125098465D01*
X109846334Y-125151607D01*
X109836300Y-125206656D01*
X109828857Y-125255877D01*
X109825449Y-125291534D01*
X109729285Y-125291534D01*
X109739629Y-125244275D01*
X109759716Y-125151577D01*
X109778084Y-125067705D01*
X109792412Y-125006398D01*
X109804135Y-124964146D01*
X109814688Y-124937443D01*
X109825504Y-124922780D01*
X109838018Y-124916650D01*
X109853665Y-124915544D01*
X109873879Y-124915955D01*
X109874381Y-124915955D01*
X109921858Y-124922279D01*
X109946248Y-124942071D01*
X109949154Y-124949289D01*
X109959384Y-124983938D01*
X109973564Y-125039015D01*
X109990318Y-125108403D01*
X110008270Y-125185983D01*
X110026044Y-125265637D01*
X110031377Y-125290495D01*
X110042264Y-125341248D01*
G37*
G36*
X109408316Y-124912114D02*
G01*
X109474352Y-124928296D01*
X109522122Y-124963309D01*
X109547474Y-125014536D01*
X109550532Y-125032523D01*
X109555425Y-125088112D01*
X109557905Y-125158673D01*
X109558029Y-125235258D01*
X109555858Y-125308916D01*
X109551450Y-125370701D01*
X109544863Y-125411662D01*
X109542883Y-125418376D01*
X109525741Y-125460613D01*
X109506572Y-125490011D01*
X109497220Y-125496138D01*
X109459537Y-125506619D01*
X109406992Y-125512349D01*
X109349728Y-125513004D01*
X109297893Y-125508262D01*
X109261632Y-125497800D01*
X109257419Y-125495053D01*
X109235071Y-125467269D01*
X109217926Y-125426913D01*
X109216279Y-125420944D01*
X109204511Y-125370711D01*
X109204981Y-125342260D01*
X109219548Y-125329857D01*
X109250071Y-125327767D01*
X109267356Y-125328993D01*
X109294735Y-125340294D01*
X109308731Y-125369761D01*
X109311306Y-125378662D01*
X109334982Y-125426560D01*
X109366082Y-125450625D01*
X109400151Y-125449053D01*
X109432736Y-125420037D01*
X109440953Y-125401206D01*
X109450275Y-125354050D01*
X109455983Y-125290997D01*
X109458106Y-125219637D01*
X109456669Y-125147560D01*
X109451699Y-125082358D01*
X109443224Y-125031622D01*
X109431269Y-125002941D01*
X109400429Y-124979343D01*
X109365835Y-124977666D01*
X109336551Y-125003051D01*
X109315966Y-125053998D01*
X109308193Y-125076842D01*
X109289844Y-125091634D01*
X109252596Y-125095038D01*
X109250489Y-125095036D01*
X109216599Y-125092904D01*
X109204930Y-125082685D01*
X109208229Y-125058387D01*
X109214996Y-125033181D01*
X109238411Y-124973144D01*
X109270291Y-124936217D01*
X109316710Y-124917313D01*
X109383739Y-124911344D01*
X109408316Y-124912114D01*
G37*
G36*
X115783582Y-123848916D02*
G01*
X115783325Y-123858979D01*
X115777501Y-123877078D01*
X115757866Y-123884679D01*
X115716426Y-123886225D01*
X115649269Y-123886225D01*
X115649269Y-124154850D01*
X115649269Y-124423475D01*
X115589575Y-124423475D01*
X115529880Y-124423475D01*
X115529880Y-124154850D01*
X115529880Y-123886225D01*
X115462724Y-123886225D01*
X115444611Y-123886083D01*
X115412033Y-123882847D01*
X115398351Y-123871939D01*
X115395568Y-123848916D01*
X115395568Y-123811607D01*
X115589575Y-123811607D01*
X115783582Y-123811607D01*
X115783582Y-123848916D01*
G37*
G36*
X115287201Y-124196519D02*
G01*
X115281438Y-124268742D01*
X115273001Y-124326369D01*
X115262314Y-124361802D01*
X115244596Y-124384953D01*
X115211778Y-124408448D01*
X115166077Y-124419098D01*
X115103281Y-124421869D01*
X115040907Y-124415799D01*
X114993132Y-124401349D01*
X114986031Y-124397437D01*
X114964704Y-124380489D01*
X114949288Y-124355711D01*
X114938870Y-124318705D01*
X114932535Y-124265075D01*
X114929368Y-124190422D01*
X114928710Y-124118213D01*
X115037401Y-124118213D01*
X115037453Y-124150775D01*
X115038349Y-124223070D01*
X115040866Y-124272742D01*
X115045658Y-124305097D01*
X115053381Y-124325442D01*
X115064692Y-124339083D01*
X115093819Y-124358345D01*
X115130711Y-124359230D01*
X115163406Y-124330613D01*
X115165767Y-124326982D01*
X115175765Y-124301815D01*
X115182190Y-124262529D01*
X115185622Y-124203899D01*
X115186637Y-124120701D01*
X115186058Y-124055002D01*
X115182616Y-123983480D01*
X115174978Y-123934877D01*
X115161905Y-123905157D01*
X115142152Y-123890286D01*
X115114479Y-123886225D01*
X115107258Y-123886307D01*
X115079958Y-123889813D01*
X115060827Y-123901642D01*
X115048434Y-123926095D01*
X115041352Y-123967473D01*
X115038151Y-124030079D01*
X115037401Y-124118213D01*
X114928710Y-124118213D01*
X114928456Y-124090349D01*
X114928454Y-124088005D01*
X114928656Y-124009794D01*
X114930054Y-123955447D01*
X114933631Y-123919131D01*
X114940370Y-123895013D01*
X114951255Y-123877258D01*
X114967268Y-123860033D01*
X114980353Y-123848921D01*
X115035050Y-123823310D01*
X115101655Y-123812643D01*
X115169116Y-123817791D01*
X115226381Y-123839624D01*
X115252092Y-123858398D01*
X115267755Y-123880397D01*
X115277167Y-123914405D01*
X115284300Y-123969317D01*
X115289000Y-124038676D01*
X115289863Y-124117298D01*
X115289749Y-124120701D01*
X115287201Y-124196519D01*
G37*
G36*
X114785358Y-124063256D02*
G01*
X114785774Y-124128387D01*
X114786268Y-124208653D01*
X114786662Y-124275891D01*
X114786922Y-124324494D01*
X114787016Y-124348857D01*
X114786789Y-124366961D01*
X114785358Y-124401090D01*
X114785347Y-124401228D01*
X114771310Y-124418060D01*
X114731467Y-124423475D01*
X114679234Y-124423475D01*
X114679234Y-124295724D01*
X114679234Y-124167972D01*
X114624782Y-124172604D01*
X114597413Y-124176452D01*
X114571611Y-124188193D01*
X114555157Y-124212693D01*
X114544719Y-124255644D01*
X114536966Y-124322741D01*
X114527622Y-124423475D01*
X114474649Y-124423475D01*
X114421676Y-124423475D01*
X114432292Y-124315738D01*
X114434359Y-124295780D01*
X114443857Y-124229744D01*
X114456500Y-124186688D01*
X114474516Y-124161082D01*
X114500135Y-124147394D01*
X114523222Y-124135566D01*
X114526830Y-124118310D01*
X114501546Y-124103060D01*
X114497101Y-124101357D01*
X114468168Y-124074650D01*
X114447112Y-124029715D01*
X114439955Y-123991050D01*
X114552383Y-123991050D01*
X114552383Y-124072770D01*
X114615809Y-124077359D01*
X114679234Y-124081948D01*
X114679234Y-123991080D01*
X114679201Y-123983660D01*
X114674753Y-123926629D01*
X114660705Y-123895133D01*
X114634023Y-123885863D01*
X114591677Y-123895510D01*
X114575136Y-123902375D01*
X114560112Y-123916609D01*
X114553720Y-123943270D01*
X114552383Y-123991050D01*
X114439955Y-123991050D01*
X114437264Y-123976510D01*
X114441958Y-123924993D01*
X114453284Y-123893946D01*
X114476842Y-123862470D01*
X114514523Y-123841075D01*
X114571543Y-123827117D01*
X114653118Y-123817952D01*
X114783699Y-123807502D01*
X114784890Y-123991080D01*
X114785358Y-124063256D01*
G37*
G36*
X114303963Y-124163022D02*
G01*
X114303872Y-124166276D01*
X114301452Y-124243379D01*
X114298488Y-124296652D01*
X114293760Y-124331895D01*
X114286050Y-124354911D01*
X114274140Y-124371499D01*
X114256810Y-124387463D01*
X114240660Y-124399060D01*
X114182515Y-124420762D01*
X114114938Y-124426065D01*
X114049385Y-124414969D01*
X113997311Y-124387471D01*
X113991116Y-124382102D01*
X113976149Y-124367238D01*
X113965887Y-124350063D01*
X113959247Y-124325070D01*
X113955146Y-124286755D01*
X113952501Y-124229612D01*
X113950230Y-124148135D01*
X113949849Y-124132032D01*
X113949694Y-124119460D01*
X114052442Y-124119460D01*
X114052916Y-124193452D01*
X114054969Y-124256303D01*
X114059135Y-124298455D01*
X114065936Y-124324825D01*
X114075894Y-124340330D01*
X114105157Y-124359404D01*
X114144273Y-124358926D01*
X114178447Y-124330613D01*
X114180808Y-124326982D01*
X114190806Y-124301815D01*
X114197232Y-124262529D01*
X114200663Y-124203899D01*
X114201678Y-124120701D01*
X114201099Y-124055002D01*
X114197657Y-123983480D01*
X114190020Y-123934877D01*
X114176946Y-123905157D01*
X114157193Y-123890286D01*
X114129520Y-123886225D01*
X114121603Y-123886324D01*
X114094561Y-123889942D01*
X114075617Y-123901934D01*
X114063351Y-123926590D01*
X114056345Y-123968202D01*
X114053181Y-124031061D01*
X114052442Y-124119460D01*
X113949694Y-124119460D01*
X113948897Y-124055009D01*
X113949410Y-123987389D01*
X113951270Y-123935980D01*
X113954361Y-123907589D01*
X113965477Y-123882424D01*
X114002970Y-123846644D01*
X114056941Y-123822830D01*
X114119809Y-123812744D01*
X114183991Y-123818147D01*
X114241908Y-123840798D01*
X114251983Y-123847350D01*
X114274201Y-123867349D01*
X114289826Y-123894313D01*
X114299736Y-123932802D01*
X114304811Y-123987376D01*
X114305927Y-124062596D01*
X114304791Y-124120701D01*
X114303963Y-124163022D01*
G37*
G36*
X113798741Y-124116797D02*
G01*
X113798741Y-124423475D01*
X113762312Y-124423475D01*
X113737432Y-124420575D01*
X113718021Y-124410753D01*
X113716042Y-124400002D01*
X113713453Y-124363116D01*
X113711198Y-124305394D01*
X113709467Y-124232059D01*
X113708450Y-124148330D01*
X113707671Y-124084238D01*
X113705826Y-124011745D01*
X113703246Y-123955211D01*
X113700154Y-123919265D01*
X113696778Y-123908537D01*
X113692451Y-123919485D01*
X113682486Y-123955835D01*
X113668717Y-124012578D01*
X113652348Y-124084710D01*
X113634581Y-124167228D01*
X113582348Y-124416014D01*
X113496537Y-124420489D01*
X113410726Y-124424965D01*
X113410726Y-124254891D01*
X113411033Y-124208213D01*
X113412948Y-124115587D01*
X113416229Y-124024143D01*
X113420423Y-123948212D01*
X113422573Y-123919373D01*
X113428012Y-123864199D01*
X113434486Y-123831414D01*
X113443394Y-123815667D01*
X113456135Y-123811607D01*
X113470309Y-123814767D01*
X113491210Y-123835213D01*
X113493142Y-123845796D01*
X113495969Y-123883738D01*
X113498228Y-123942413D01*
X113499726Y-124016170D01*
X113500268Y-124099361D01*
X113500454Y-124143833D01*
X113501950Y-124222841D01*
X113504785Y-124281630D01*
X113508771Y-124316993D01*
X113513716Y-124325726D01*
X113518634Y-124314540D01*
X113529434Y-124277595D01*
X113543805Y-124220305D01*
X113560471Y-124147825D01*
X113578158Y-124065309D01*
X113629151Y-123819069D01*
X113713946Y-123814593D01*
X113798741Y-123810118D01*
X113798741Y-124116797D01*
G37*
G36*
X113306261Y-123848916D02*
G01*
X113306005Y-123858979D01*
X113300180Y-123877078D01*
X113280546Y-123884679D01*
X113239105Y-123886225D01*
X113171949Y-123886225D01*
X113171949Y-124154850D01*
X113171949Y-124423475D01*
X113119716Y-124423475D01*
X113067483Y-124423475D01*
X113067483Y-124154850D01*
X113067483Y-123886225D01*
X113000327Y-123886225D01*
X112982213Y-123886083D01*
X112949636Y-123882847D01*
X112935954Y-123871939D01*
X112933171Y-123848916D01*
X112933171Y-123811607D01*
X113119716Y-123811607D01*
X113306261Y-123811607D01*
X113306261Y-123848916D01*
G37*
G36*
X112813782Y-124120702D02*
G01*
X112813782Y-124336230D01*
X112770159Y-124379853D01*
X112758160Y-124391369D01*
X112729090Y-124411957D01*
X112694510Y-124421284D01*
X112642327Y-124423475D01*
X112594130Y-124421780D01*
X112542645Y-124412213D01*
X112505452Y-124390993D01*
X112480350Y-124354519D01*
X112465143Y-124299187D01*
X112457630Y-124221395D01*
X112455741Y-124124022D01*
X112560080Y-124124022D01*
X112560104Y-124145831D01*
X112560908Y-124216940D01*
X112563464Y-124265479D01*
X112568600Y-124297275D01*
X112577145Y-124318152D01*
X112589927Y-124333934D01*
X112618494Y-124356367D01*
X112651635Y-124360566D01*
X112684618Y-124336490D01*
X112694357Y-124321593D01*
X112701778Y-124296564D01*
X112706355Y-124257374D01*
X112708673Y-124198800D01*
X112709316Y-124115620D01*
X112709299Y-124098546D01*
X112708199Y-124015660D01*
X112704338Y-123957538D01*
X112696264Y-123919855D01*
X112682524Y-123898290D01*
X112661667Y-123888521D01*
X112632239Y-123886225D01*
X112610675Y-123888415D01*
X112589208Y-123900097D01*
X112574635Y-123925479D01*
X112565736Y-123968581D01*
X112561291Y-124033422D01*
X112560080Y-124124022D01*
X112455741Y-124124022D01*
X112455615Y-124117541D01*
X112455619Y-124111123D01*
X112457282Y-124015951D01*
X112463039Y-123945775D01*
X112474474Y-123896102D01*
X112493171Y-123862441D01*
X112520712Y-123840300D01*
X112558682Y-123825186D01*
X112612730Y-123815024D01*
X112681554Y-123817291D01*
X112741561Y-123835086D01*
X112783522Y-123866705D01*
X112793642Y-123881276D01*
X112802610Y-123901914D01*
X112808464Y-123930769D01*
X112811847Y-123973248D01*
X112813405Y-124034757D01*
X112813760Y-124115620D01*
X112813782Y-124120702D01*
G37*
G36*
X112112372Y-124117541D02*
G01*
X112112372Y-124423475D01*
X112075063Y-124423475D01*
X112049554Y-124418718D01*
X112036733Y-124397359D01*
X112036589Y-124389754D01*
X112036484Y-124354331D01*
X112036641Y-124297781D01*
X112037039Y-124226056D01*
X112037655Y-124145108D01*
X112037803Y-124112679D01*
X112036932Y-124033717D01*
X112034402Y-123970517D01*
X112030458Y-123927770D01*
X112025347Y-123910166D01*
X112023985Y-123909523D01*
X112017887Y-123912046D01*
X112010827Y-123925451D01*
X112002001Y-123952806D01*
X111990607Y-123997176D01*
X111975843Y-124061628D01*
X111956905Y-124149229D01*
X111932991Y-124263047D01*
X111899550Y-124423475D01*
X111844324Y-124423475D01*
X111789098Y-124423475D01*
X111739629Y-124180967D01*
X111727803Y-124124031D01*
X111711105Y-124047111D01*
X111696373Y-123983192D01*
X111684871Y-123937703D01*
X111677866Y-123916072D01*
X111674200Y-123921077D01*
X111670663Y-123951442D01*
X111667827Y-124003862D01*
X111665907Y-124074265D01*
X111665117Y-124158581D01*
X111664663Y-124423475D01*
X111619892Y-124423475D01*
X111575121Y-124423475D01*
X111575121Y-124117541D01*
X111575121Y-123811607D01*
X111623623Y-123811811D01*
X111659314Y-123812481D01*
X111695176Y-123817522D01*
X111719688Y-123831876D01*
X111737111Y-123860537D01*
X111751707Y-123908504D01*
X111767737Y-123980773D01*
X111775406Y-124017051D01*
X111797452Y-124119861D01*
X111814751Y-124196203D01*
X111828234Y-124248219D01*
X111838829Y-124278047D01*
X111847467Y-124287827D01*
X111855077Y-124279699D01*
X111862588Y-124255802D01*
X111870931Y-124218276D01*
X111883649Y-124157017D01*
X111905135Y-124053705D01*
X111921944Y-123974615D01*
X111935130Y-123916428D01*
X111945743Y-123875829D01*
X111954835Y-123849497D01*
X111963459Y-123834116D01*
X111972665Y-123826368D01*
X111983506Y-123822934D01*
X111997034Y-123820497D01*
X112035184Y-123814637D01*
X112076928Y-123811607D01*
X112112372Y-123811607D01*
X112112372Y-124117541D01*
G37*
G36*
X111425885Y-124117541D02*
G01*
X111425885Y-124423475D01*
X111277969Y-124423475D01*
X111217247Y-124423112D01*
X111171516Y-124421260D01*
X111145996Y-124416976D01*
X111135552Y-124409321D01*
X111135053Y-124397359D01*
X111137648Y-124383133D01*
X111141195Y-124360050D01*
X111151517Y-124354973D01*
X111184418Y-124350557D01*
X111231878Y-124348857D01*
X111321420Y-124348857D01*
X111321420Y-124251854D01*
X111321420Y-124154850D01*
X111265456Y-124153264D01*
X111231041Y-124152159D01*
X111186126Y-124149206D01*
X111161143Y-124143343D01*
X111149632Y-124132495D01*
X111145131Y-124114583D01*
X111144521Y-124098482D01*
X111153275Y-124086853D01*
X111178631Y-124080787D01*
X111227210Y-124077274D01*
X111313958Y-124072770D01*
X111318401Y-123979498D01*
X111322844Y-123886225D01*
X111232590Y-123886225D01*
X111196236Y-123885763D01*
X111161829Y-123882354D01*
X111146094Y-123873834D01*
X111142336Y-123858118D01*
X111143576Y-123848053D01*
X111156690Y-123830728D01*
X111187390Y-123819624D01*
X111239710Y-123813673D01*
X111317689Y-123811811D01*
X111425885Y-123811607D01*
X111425885Y-124117541D01*
G37*
G36*
X110983137Y-123818455D02*
G01*
X111023846Y-123834121D01*
X111037871Y-123858118D01*
X111034827Y-123873168D01*
X111017519Y-123883551D01*
X110978177Y-123886225D01*
X110918482Y-123886225D01*
X110918482Y-124144901D01*
X110918113Y-124214969D01*
X110916758Y-124291710D01*
X110914585Y-124353748D01*
X110911781Y-124396037D01*
X110908533Y-124413526D01*
X110907859Y-124414114D01*
X110885714Y-124420745D01*
X110848838Y-124423475D01*
X110799093Y-124423475D01*
X110799093Y-124154850D01*
X110799093Y-123886225D01*
X110731937Y-123886225D01*
X110690253Y-123884192D01*
X110669928Y-123875945D01*
X110664781Y-123858457D01*
X110664829Y-123856344D01*
X110672002Y-123839678D01*
X110695918Y-123829025D01*
X110743130Y-123821277D01*
X110829870Y-123813143D01*
X110917795Y-123811377D01*
X110983137Y-123818455D01*
G37*
G36*
X110560315Y-124115489D02*
G01*
X110560315Y-124423475D01*
X110508083Y-124423475D01*
X110455850Y-124423475D01*
X110455850Y-124296625D01*
X110455850Y-124169774D01*
X110404463Y-124169774D01*
X110403721Y-124169775D01*
X110358356Y-124178369D01*
X110328330Y-124205809D01*
X110311723Y-124255237D01*
X110306614Y-124329793D01*
X110306614Y-124423475D01*
X110254381Y-124423475D01*
X110251629Y-124423472D01*
X110218050Y-124420745D01*
X110204601Y-124406953D01*
X110202148Y-124373326D01*
X110203955Y-124310670D01*
X110214092Y-124236862D01*
X110233997Y-124186202D01*
X110264631Y-124155337D01*
X110307698Y-124129146D01*
X110271178Y-124105218D01*
X110259221Y-124096200D01*
X110224571Y-124048475D01*
X110215514Y-124010264D01*
X110307218Y-124010264D01*
X110325268Y-124054793D01*
X110325297Y-124054832D01*
X110352657Y-124075278D01*
X110392195Y-124089312D01*
X110407517Y-124091805D01*
X110434428Y-124089832D01*
X110449289Y-124072735D01*
X110454626Y-124035719D01*
X110452967Y-123973988D01*
X110450367Y-123937868D01*
X110444300Y-123907842D01*
X110431637Y-123894182D01*
X110408252Y-123889052D01*
X110367793Y-123895050D01*
X110332524Y-123922314D01*
X110310984Y-123963411D01*
X110307218Y-124010264D01*
X110215514Y-124010264D01*
X110209755Y-123985966D01*
X110216987Y-123916389D01*
X110222820Y-123897019D01*
X110237064Y-123868128D01*
X110259771Y-123848217D01*
X110296282Y-123834841D01*
X110351943Y-123825553D01*
X110432096Y-123817906D01*
X110560315Y-123807502D01*
X110560315Y-124035719D01*
X110560315Y-124115489D01*
G37*
G36*
X110073856Y-124173645D02*
G01*
X110072454Y-124197106D01*
X110067413Y-124268174D01*
X110061780Y-124316955D01*
X110054315Y-124349404D01*
X110043775Y-124371478D01*
X110028917Y-124389132D01*
X110017875Y-124399259D01*
X109991664Y-124414414D01*
X109955117Y-124421635D01*
X109898546Y-124423475D01*
X109865569Y-124422986D01*
X109809463Y-124416825D01*
X109771623Y-124399796D01*
X109747614Y-124367154D01*
X109733002Y-124314156D01*
X109723353Y-124236059D01*
X109719141Y-124182642D01*
X109717678Y-124125073D01*
X109821825Y-124125073D01*
X109821999Y-124175201D01*
X109823110Y-124241375D01*
X109825848Y-124285977D01*
X109830909Y-124314248D01*
X109838992Y-124331430D01*
X109850794Y-124342766D01*
X109869717Y-124355748D01*
X109890261Y-124361363D01*
X109918600Y-124353424D01*
X109922049Y-124352136D01*
X109945921Y-124337920D01*
X109962111Y-124313928D01*
X109971969Y-124275166D01*
X109976845Y-124216637D01*
X109978090Y-124133343D01*
X109977551Y-124059921D01*
X109975134Y-123993851D01*
X109969789Y-123948627D01*
X109960457Y-123919319D01*
X109946080Y-123900997D01*
X109925602Y-123888731D01*
X109917471Y-123885302D01*
X109887398Y-123882039D01*
X109855979Y-123900535D01*
X109842409Y-123912968D01*
X109832697Y-123928444D01*
X109826613Y-123951934D01*
X109823326Y-123988897D01*
X109822007Y-124044791D01*
X109821825Y-124125073D01*
X109717678Y-124125073D01*
X109716300Y-124070851D01*
X109722726Y-123977408D01*
X109738066Y-123905762D01*
X109761966Y-123859364D01*
X109765756Y-123855087D01*
X109792174Y-123833575D01*
X109828024Y-123821414D01*
X109883484Y-123814878D01*
X109918055Y-123812900D01*
X109958720Y-123814686D01*
X109988315Y-123825216D01*
X110018371Y-123847256D01*
X110042578Y-123871349D01*
X110061414Y-123902388D01*
X110073116Y-123943170D01*
X110078527Y-123998663D01*
X110078492Y-124073832D01*
X110075728Y-124133343D01*
X110073856Y-124173645D01*
G37*
G36*
X109575356Y-124115340D02*
G01*
X109575356Y-124423475D01*
X109523727Y-124423475D01*
X109472098Y-124423475D01*
X109467764Y-124300522D01*
X109463429Y-124177569D01*
X109381963Y-124165884D01*
X109350586Y-124160250D01*
X109300962Y-124146975D01*
X109267262Y-124132422D01*
X109243127Y-124103603D01*
X109225858Y-124053188D01*
X109222104Y-124013556D01*
X109324719Y-124013556D01*
X109344886Y-124061988D01*
X109372802Y-124086430D01*
X109420186Y-124095156D01*
X109472255Y-124095156D01*
X109467842Y-123994421D01*
X109466911Y-123974101D01*
X109463527Y-123928808D01*
X109457085Y-123904160D01*
X109444651Y-123893220D01*
X109423293Y-123889052D01*
X109380188Y-123895283D01*
X109345711Y-123922834D01*
X109326108Y-123964714D01*
X109324719Y-124013556D01*
X109222104Y-124013556D01*
X109220116Y-123992572D01*
X109227811Y-123931483D01*
X109236679Y-123904871D01*
X109261114Y-123868211D01*
X109300742Y-123843041D01*
X109360362Y-123826829D01*
X109444775Y-123817044D01*
X109575356Y-123807204D01*
X109575356Y-124095156D01*
X109575356Y-124115340D01*
G37*
G36*
X109096279Y-124195587D02*
G01*
X109089508Y-124279007D01*
X109076507Y-124339629D01*
X109056401Y-124381189D01*
X109028312Y-124407423D01*
X109007426Y-124414252D01*
X108962393Y-124419409D01*
X108907212Y-124419413D01*
X108847936Y-124413630D01*
X108808638Y-124401867D01*
X108780361Y-124381336D01*
X108768777Y-124368328D01*
X108758731Y-124350237D01*
X108751934Y-124324150D01*
X108747513Y-124284604D01*
X108744596Y-124226137D01*
X108742308Y-124143286D01*
X108742083Y-124120701D01*
X108844099Y-124120701D01*
X108844133Y-124138718D01*
X108845565Y-124216824D01*
X108849523Y-124271359D01*
X108856586Y-124307548D01*
X108867331Y-124330613D01*
X108893763Y-124356938D01*
X108926245Y-124359944D01*
X108963488Y-124333934D01*
X108967099Y-124330177D01*
X108978753Y-124313674D01*
X108986375Y-124290632D01*
X108990794Y-124255226D01*
X108992838Y-124201631D01*
X108993335Y-124124022D01*
X108992553Y-124046969D01*
X108988827Y-123978263D01*
X108980856Y-123931900D01*
X108967364Y-123903816D01*
X108947076Y-123889945D01*
X108918717Y-123886225D01*
X108895877Y-123888398D01*
X108873772Y-123899790D01*
X108858842Y-123924633D01*
X108849785Y-123967012D01*
X108845304Y-124031007D01*
X108844099Y-124120701D01*
X108742083Y-124120701D01*
X108741500Y-124062300D01*
X108743153Y-123986625D01*
X108747206Y-123929561D01*
X108753406Y-123896696D01*
X108754392Y-123894233D01*
X108785384Y-123855433D01*
X108835929Y-123827897D01*
X108897641Y-123813625D01*
X108962133Y-123814617D01*
X109021018Y-123832873D01*
X109036638Y-123841992D01*
X109062230Y-123865536D01*
X109079802Y-123899377D01*
X109090694Y-123948373D01*
X109096247Y-124017382D01*
X109097801Y-124111261D01*
X109097571Y-124124022D01*
X109096279Y-124195587D01*
G37*
G36*
X108534434Y-123811597D02*
G01*
X108590397Y-123811607D01*
X108590397Y-124117541D01*
X108590397Y-124423475D01*
X108456085Y-124423475D01*
X108446427Y-124423474D01*
X108386238Y-124423033D01*
X108349420Y-124420721D01*
X108330232Y-124414977D01*
X108322930Y-124404240D01*
X108321772Y-124386946D01*
X108322660Y-124372045D01*
X108331000Y-124357215D01*
X108354348Y-124349798D01*
X108400121Y-124345906D01*
X108478470Y-124341396D01*
X108478470Y-124076491D01*
X108478470Y-123811587D01*
X108534434Y-123811597D01*
G37*
G36*
X108202383Y-124117541D02*
G01*
X108202383Y-124423475D01*
X108150151Y-124423475D01*
X108097918Y-124423475D01*
X108097918Y-124117541D01*
X108097918Y-123811607D01*
X108150151Y-123811607D01*
X108202383Y-123811607D01*
X108202383Y-124117541D01*
G37*
G36*
X107993453Y-123848058D02*
G01*
X107993413Y-123851890D01*
X107988636Y-123873460D01*
X107970206Y-123884117D01*
X107930027Y-123889098D01*
X107866602Y-123893687D01*
X107862527Y-124158581D01*
X107858451Y-124423475D01*
X107806563Y-124423475D01*
X107754675Y-124423475D01*
X107754675Y-124154850D01*
X107754675Y-123886225D01*
X107687518Y-123886225D01*
X107669405Y-123886083D01*
X107636828Y-123882847D01*
X107623146Y-123871939D01*
X107620362Y-123848916D01*
X107620362Y-123811607D01*
X107806907Y-123811607D01*
X107993453Y-123811607D01*
X107993453Y-123848058D01*
G37*
G36*
X107476858Y-124207232D02*
G01*
X107491558Y-124284831D01*
X107502228Y-124347450D01*
X107508057Y-124390371D01*
X107508236Y-124408873D01*
X107495567Y-124417779D01*
X107464904Y-124423475D01*
X107443840Y-124419483D01*
X107428691Y-124400879D01*
X107417281Y-124360050D01*
X107403966Y-124296625D01*
X107326644Y-124292149D01*
X107249323Y-124287674D01*
X107236716Y-124351844D01*
X107234253Y-124363950D01*
X107223683Y-124398707D01*
X107206846Y-124414693D01*
X107175996Y-124420690D01*
X107140767Y-124419596D01*
X107128464Y-124405766D01*
X107128468Y-124405666D01*
X107131999Y-124385111D01*
X107141289Y-124340483D01*
X107155263Y-124276686D01*
X107172849Y-124198625D01*
X107176246Y-124183866D01*
X107271077Y-124183866D01*
X107271656Y-124202855D01*
X107272566Y-124203958D01*
X107293715Y-124211470D01*
X107330232Y-124214545D01*
X107331736Y-124214545D01*
X107356507Y-124213576D01*
X107371994Y-124207477D01*
X107378826Y-124191433D01*
X107377635Y-124160626D01*
X107369053Y-124110241D01*
X107353711Y-124035461D01*
X107344212Y-123992246D01*
X107332567Y-123949411D01*
X107323672Y-123932732D01*
X107316727Y-123940147D01*
X107315722Y-123943253D01*
X107305214Y-123983056D01*
X107294068Y-124035341D01*
X107283711Y-124091786D01*
X107275571Y-124144068D01*
X107271077Y-124183866D01*
X107176246Y-124183866D01*
X107192971Y-124111204D01*
X107210837Y-124034801D01*
X107230649Y-123954138D01*
X107247340Y-123896038D01*
X107262953Y-123856750D01*
X107279530Y-123832519D01*
X107299113Y-123819595D01*
X107323745Y-123814225D01*
X107355468Y-123812656D01*
X107383615Y-123813779D01*
X107396508Y-123818334D01*
X107396550Y-123818788D01*
X107400173Y-123837915D01*
X107408964Y-123881132D01*
X107421977Y-123943873D01*
X107438266Y-124021573D01*
X107456884Y-124109666D01*
X107458937Y-124119376D01*
X107473635Y-124191433D01*
X107476858Y-124207232D01*
G37*
G36*
X106695098Y-124072770D02*
G01*
X106695622Y-124146111D01*
X106697410Y-124221120D01*
X106700241Y-124280610D01*
X106703875Y-124319807D01*
X106708076Y-124333934D01*
X106714592Y-124324094D01*
X106726045Y-124290302D01*
X106739919Y-124238128D01*
X106754495Y-124173505D01*
X106763749Y-124129321D01*
X106781003Y-124047840D01*
X106797375Y-123971498D01*
X106810292Y-123912341D01*
X106832649Y-123811607D01*
X106910920Y-123811607D01*
X106989191Y-123811607D01*
X106998842Y-123925786D01*
X107002265Y-123978805D01*
X107005494Y-124057612D01*
X107007686Y-124145584D01*
X107008494Y-124231720D01*
X107008494Y-124423475D01*
X106963723Y-124423475D01*
X106918952Y-124423475D01*
X106918952Y-124162312D01*
X106918428Y-124088972D01*
X106916639Y-124013963D01*
X106913809Y-123954472D01*
X106910175Y-123915276D01*
X106905974Y-123901149D01*
X106899458Y-123910989D01*
X106888005Y-123944781D01*
X106874131Y-123996955D01*
X106859555Y-124061578D01*
X106850301Y-124105761D01*
X106833047Y-124187243D01*
X106816674Y-124263585D01*
X106803758Y-124322741D01*
X106781401Y-124423475D01*
X106697209Y-124423475D01*
X106613018Y-124423475D01*
X106613018Y-124117541D01*
X106613018Y-123811607D01*
X106654058Y-123811607D01*
X106695098Y-123811607D01*
X106695098Y-124072770D01*
G37*
G36*
X113145673Y-120386266D02*
G01*
X113124249Y-120442834D01*
X113109650Y-120480884D01*
X113103668Y-120495688D01*
X113095715Y-120499070D01*
X113062547Y-120511621D01*
X113006205Y-120532397D01*
X112929532Y-120560367D01*
X112835372Y-120594497D01*
X112726568Y-120633755D01*
X112605961Y-120677108D01*
X112476396Y-120723525D01*
X112382216Y-120757334D01*
X112257864Y-120802372D01*
X112144120Y-120844025D01*
X112043905Y-120881198D01*
X111960142Y-120912796D01*
X111895752Y-120937724D01*
X111853657Y-120954888D01*
X111836779Y-120963192D01*
X111833665Y-120967025D01*
X111833372Y-120971206D01*
X111840667Y-120973301D01*
X111858281Y-120972965D01*
X111888949Y-120969855D01*
X111935403Y-120963627D01*
X112000377Y-120953937D01*
X112086604Y-120940441D01*
X112196817Y-120922794D01*
X112333750Y-120900654D01*
X112409209Y-120888502D01*
X112503766Y-120873501D01*
X112585782Y-120860750D01*
X112651028Y-120850895D01*
X112695278Y-120844584D01*
X112714302Y-120842462D01*
X112714306Y-120843796D01*
X112695965Y-120853885D01*
X112656296Y-120872232D01*
X112599614Y-120896881D01*
X112530233Y-120925877D01*
X112442808Y-120961783D01*
X112333537Y-121006650D01*
X112223664Y-121051754D01*
X112127295Y-121091305D01*
X112121035Y-121093889D01*
X112097525Y-121103594D01*
X112048706Y-121124175D01*
X112036191Y-121129451D01*
X112028247Y-121132800D01*
X111970747Y-121157887D01*
X111930327Y-121176512D01*
X111928351Y-121177588D01*
X111912291Y-121186331D01*
X111910460Y-121193412D01*
X111913110Y-121224728D01*
X111919661Y-121261430D01*
X111922055Y-121274839D01*
X111935749Y-121337743D01*
X111936720Y-121341748D01*
X111937427Y-121344665D01*
X111945765Y-121379057D01*
X111952646Y-121407437D01*
X111956961Y-121423828D01*
X111968747Y-121468599D01*
X111971200Y-121477919D01*
X111979205Y-121505908D01*
X111989867Y-121543187D01*
X111989877Y-121543217D01*
X112004151Y-121587988D01*
X112007100Y-121597238D01*
X112020847Y-121632759D01*
X112021355Y-121634071D01*
X112031085Y-121647682D01*
X112036530Y-121646487D01*
X112066487Y-121636670D01*
X112118021Y-121618231D01*
X112186920Y-121592720D01*
X112268974Y-121561687D01*
X112359971Y-121526681D01*
X112458253Y-121488419D01*
X112537107Y-121456981D01*
X112596856Y-121431634D01*
X112641966Y-121410040D01*
X112676900Y-121389862D01*
X112706121Y-121368762D01*
X112734093Y-121344404D01*
X112765280Y-121314450D01*
X112785112Y-121295309D01*
X112822756Y-121260626D01*
X112848814Y-121238971D01*
X112858553Y-121234409D01*
X112854015Y-121250923D01*
X112837259Y-121288345D01*
X112812309Y-121336539D01*
X112783584Y-121387425D01*
X112755503Y-121432922D01*
X112732484Y-121464948D01*
X112715234Y-121482003D01*
X112673081Y-121516056D01*
X112617600Y-121555837D01*
X112556223Y-121595829D01*
X112464076Y-121655144D01*
X112429299Y-121677530D01*
X112426501Y-121679331D01*
X112377171Y-121714839D01*
X112325339Y-121752148D01*
X112309143Y-121763806D01*
X112296334Y-121774533D01*
X112251783Y-121811842D01*
X112206166Y-121850044D01*
X112199515Y-121856613D01*
X112110712Y-121944315D01*
X112089562Y-121968540D01*
X112063504Y-121998387D01*
X112037445Y-122028235D01*
X112015921Y-122052889D01*
X112011860Y-122058082D01*
X111994356Y-122080467D01*
X111918503Y-122177471D01*
X111914935Y-122182034D01*
X111908148Y-122191195D01*
X111861921Y-122253596D01*
X111820898Y-122311783D01*
X111799855Y-122341631D01*
X111789334Y-122356554D01*
X111778812Y-122371478D01*
X111768291Y-122386401D01*
X111754777Y-122405570D01*
X111751821Y-122409763D01*
X111664836Y-122543099D01*
X111655893Y-122556808D01*
X111588793Y-122669950D01*
X111575520Y-122692330D01*
X111524909Y-122789339D01*
X111512081Y-122813927D01*
X111480663Y-122887223D01*
X111466958Y-122919195D01*
X111441531Y-123005732D01*
X111411466Y-123110850D01*
X111363513Y-123211694D01*
X111303320Y-123293223D01*
X111283504Y-123313253D01*
X111254296Y-123338931D01*
X111236954Y-123348975D01*
X111227743Y-123345721D01*
X111200420Y-123324313D01*
X111165179Y-123288589D01*
X111127961Y-123245240D01*
X111094704Y-123200957D01*
X111071349Y-123162430D01*
X111054056Y-123119774D01*
X111034549Y-123058862D01*
X111018152Y-122995352D01*
X111006739Y-122950315D01*
X110982154Y-122878000D01*
X111216954Y-122878000D01*
X111220755Y-122903392D01*
X111231878Y-122916190D01*
X111240382Y-122910991D01*
X111246802Y-122887223D01*
X111244415Y-122870083D01*
X111231878Y-122849034D01*
X111221692Y-122852609D01*
X111216954Y-122878000D01*
X110982154Y-122878000D01*
X110980555Y-122873298D01*
X110943541Y-122789993D01*
X110925010Y-122755220D01*
X111204346Y-122755220D01*
X111206667Y-122793070D01*
X111208062Y-122797304D01*
X111211936Y-122794105D01*
X111212394Y-122786113D01*
X111248984Y-122786113D01*
X111251936Y-122815739D01*
X111252531Y-122817070D01*
X111257203Y-122814826D01*
X111258816Y-122789339D01*
X111258718Y-122784705D01*
X111256134Y-122764883D01*
X111254517Y-122766954D01*
X111251383Y-122770969D01*
X111248984Y-122786113D01*
X111212394Y-122786113D01*
X111213492Y-122766954D01*
X111213348Y-122756828D01*
X111210993Y-122736193D01*
X111206667Y-122740837D01*
X111204346Y-122755220D01*
X110925010Y-122755220D01*
X110893595Y-122696268D01*
X110857326Y-122635831D01*
X111189423Y-122635831D01*
X111191744Y-122673681D01*
X111193139Y-122677915D01*
X111197013Y-122674716D01*
X111197471Y-122666724D01*
X111263908Y-122666724D01*
X111266860Y-122696351D01*
X111267455Y-122697681D01*
X111272126Y-122695437D01*
X111273740Y-122669950D01*
X111273641Y-122665316D01*
X111271057Y-122645494D01*
X111269441Y-122647565D01*
X111266307Y-122651580D01*
X111263908Y-122666724D01*
X111197471Y-122666724D01*
X111198568Y-122647565D01*
X111198424Y-122637439D01*
X111196069Y-122616804D01*
X111191744Y-122621448D01*
X111189423Y-122635831D01*
X110857326Y-122635831D01*
X110828615Y-122587988D01*
X110746501Y-122461020D01*
X110641865Y-122308695D01*
X110572572Y-122214780D01*
X110880618Y-122214780D01*
X110881367Y-122222702D01*
X110892520Y-122250614D01*
X110912191Y-122291708D01*
X110917221Y-122301520D01*
X110939266Y-122339626D01*
X110954432Y-122353882D01*
X110965970Y-122347672D01*
X110968326Y-122344434D01*
X110976155Y-122339151D01*
X110973406Y-122360285D01*
X110971453Y-122381643D01*
X110977915Y-122393863D01*
X110982233Y-122395223D01*
X110988147Y-122412518D01*
X110988478Y-122417951D01*
X110997447Y-122447801D01*
X111014954Y-122487136D01*
X111022257Y-122500769D01*
X111041977Y-122531027D01*
X111055759Y-122543099D01*
X111058074Y-122541337D01*
X111056236Y-122521644D01*
X111049762Y-122503343D01*
X111174106Y-122503343D01*
X111176263Y-122541337D01*
X111176575Y-122546830D01*
X111178902Y-122554390D01*
X111181878Y-122545530D01*
X111182389Y-122531366D01*
X111278964Y-122531366D01*
X111281285Y-122569216D01*
X111282680Y-122573450D01*
X111286554Y-122570250D01*
X111288110Y-122543099D01*
X111288075Y-122540646D01*
X111405002Y-122540646D01*
X111415680Y-122536640D01*
X111435833Y-122511427D01*
X111462948Y-122466287D01*
X111480496Y-122431848D01*
X111491008Y-122405570D01*
X111488980Y-122399223D01*
X111481246Y-122401586D01*
X111464607Y-122390225D01*
X111461153Y-122387071D01*
X111464931Y-122406925D01*
X111466957Y-122423710D01*
X111467751Y-122430285D01*
X111457331Y-122432160D01*
X111450665Y-122428598D01*
X111440809Y-122428469D01*
X111440375Y-122430777D01*
X111432620Y-122453082D01*
X111418223Y-122489044D01*
X111406314Y-122522168D01*
X111405002Y-122540646D01*
X111288075Y-122540646D01*
X111287966Y-122532974D01*
X111285611Y-122512338D01*
X111284760Y-122513252D01*
X111281285Y-122516983D01*
X111278964Y-122531366D01*
X111182389Y-122531366D01*
X111183043Y-122513252D01*
X111182607Y-122491352D01*
X111180266Y-122472602D01*
X111176575Y-122479674D01*
X111174106Y-122503343D01*
X111049762Y-122503343D01*
X111044028Y-122487136D01*
X111039571Y-122476606D01*
X111017621Y-122421557D01*
X111003833Y-122384315D01*
X111159150Y-122384315D01*
X111161930Y-122420154D01*
X111163837Y-122425043D01*
X111167219Y-122417115D01*
X111167420Y-122411977D01*
X111293888Y-122411977D01*
X111296209Y-122449827D01*
X111297604Y-122454061D01*
X111301478Y-122450861D01*
X111303034Y-122423710D01*
X111302890Y-122413585D01*
X111300534Y-122392950D01*
X111296209Y-122397594D01*
X111293888Y-122411977D01*
X111167420Y-122411977D01*
X111168420Y-122386401D01*
X111168065Y-122371478D01*
X111500503Y-122371478D01*
X111507965Y-122378940D01*
X111515427Y-122371478D01*
X111507965Y-122364016D01*
X111500503Y-122371478D01*
X111168065Y-122371478D01*
X111168033Y-122370125D01*
X111166162Y-122356554D01*
X111470656Y-122356554D01*
X111478118Y-122364016D01*
X111485580Y-122356554D01*
X111478118Y-122349092D01*
X111470656Y-122356554D01*
X111166162Y-122356554D01*
X111165560Y-122352188D01*
X111161629Y-122360459D01*
X111159150Y-122384315D01*
X111003833Y-122384315D01*
X110997140Y-122366237D01*
X110989971Y-122347299D01*
X110986813Y-122341631D01*
X111515427Y-122341631D01*
X111522889Y-122349092D01*
X111530350Y-122341631D01*
X111522889Y-122334169D01*
X111515427Y-122341631D01*
X110986813Y-122341631D01*
X110974404Y-122319357D01*
X110962791Y-122319993D01*
X110958337Y-122324087D01*
X110942550Y-122314601D01*
X110922783Y-122281936D01*
X110948329Y-122281936D01*
X110955791Y-122289398D01*
X110963253Y-122281936D01*
X110955791Y-122274474D01*
X110948329Y-122281936D01*
X110922783Y-122281936D01*
X110919634Y-122276732D01*
X110913384Y-122264927D01*
X111144227Y-122264927D01*
X111145546Y-122281936D01*
X111147006Y-122300765D01*
X111148913Y-122305654D01*
X111152295Y-122297727D01*
X111152496Y-122292588D01*
X111308812Y-122292588D01*
X111311133Y-122330438D01*
X111312528Y-122334672D01*
X111316402Y-122331472D01*
X111316574Y-122328470D01*
X111489830Y-122328470D01*
X111495061Y-122328393D01*
X111505750Y-122311783D01*
X111530350Y-122311783D01*
X111537812Y-122319245D01*
X111545274Y-122311783D01*
X111537812Y-122304322D01*
X111530350Y-122311783D01*
X111505750Y-122311783D01*
X111506121Y-122311206D01*
X111512829Y-122289398D01*
X111552594Y-122289398D01*
X111556862Y-122286588D01*
X111570935Y-122266036D01*
X111586940Y-122235400D01*
X111599010Y-122206510D01*
X111601282Y-122191195D01*
X111599521Y-122191107D01*
X111587615Y-122205761D01*
X111582751Y-122214780D01*
X111570576Y-122237353D01*
X111565572Y-122248158D01*
X111564013Y-122252089D01*
X111558095Y-122267012D01*
X111553902Y-122277585D01*
X111553131Y-122284546D01*
X111552594Y-122289398D01*
X111512829Y-122289398D01*
X111514321Y-122284546D01*
X111511877Y-122276716D01*
X111498681Y-122294248D01*
X111494070Y-122304322D01*
X111490656Y-122311779D01*
X111489830Y-122328470D01*
X111316574Y-122328470D01*
X111317957Y-122304322D01*
X111317813Y-122294196D01*
X111315458Y-122273561D01*
X111311133Y-122278205D01*
X111308812Y-122292588D01*
X111152496Y-122292588D01*
X111153496Y-122267012D01*
X111153141Y-122252089D01*
X111515427Y-122252089D01*
X111522889Y-122259551D01*
X111530350Y-122252089D01*
X111522889Y-122244627D01*
X111515427Y-122252089D01*
X111153141Y-122252089D01*
X111153109Y-122250736D01*
X111150636Y-122232799D01*
X111146705Y-122241070D01*
X111145229Y-122255283D01*
X111144227Y-122264927D01*
X110913384Y-122264927D01*
X110909373Y-122257352D01*
X110891136Y-122226819D01*
X110880618Y-122214780D01*
X110572572Y-122214780D01*
X110556055Y-122192394D01*
X110858788Y-122192394D01*
X110866249Y-122199856D01*
X110919759Y-122199856D01*
X110921032Y-122212769D01*
X110933406Y-122244627D01*
X110937645Y-122250663D01*
X110946010Y-122255283D01*
X110944597Y-122238958D01*
X110933406Y-122207318D01*
X110933234Y-122207018D01*
X111533539Y-122207018D01*
X111535325Y-122224729D01*
X111539814Y-122227064D01*
X111545274Y-122214780D01*
X111544197Y-122206879D01*
X111535325Y-122204831D01*
X111533539Y-122207018D01*
X110933234Y-122207018D01*
X110924021Y-122190932D01*
X110923323Y-122192394D01*
X110919759Y-122199856D01*
X110866249Y-122199856D01*
X110873711Y-122192394D01*
X110866249Y-122184933D01*
X110858788Y-122192394D01*
X110556055Y-122192394D01*
X110542664Y-122174245D01*
X111323602Y-122174245D01*
X111326554Y-122203871D01*
X111327149Y-122205202D01*
X111331821Y-122202958D01*
X111333434Y-122177471D01*
X111333336Y-122172836D01*
X111332967Y-122170009D01*
X111611664Y-122170009D01*
X111612449Y-122169819D01*
X111624684Y-122155455D01*
X111642278Y-122125238D01*
X111644886Y-122120099D01*
X111657007Y-122091948D01*
X111657968Y-122080467D01*
X111657183Y-122080657D01*
X111644948Y-122095021D01*
X111627354Y-122125238D01*
X111624746Y-122130377D01*
X111620533Y-122140162D01*
X111612625Y-122158528D01*
X111611664Y-122170009D01*
X111332967Y-122170009D01*
X111330752Y-122153014D01*
X111326001Y-122159100D01*
X111323602Y-122174245D01*
X110542664Y-122174245D01*
X110535779Y-122164913D01*
X110533888Y-122162547D01*
X110843864Y-122162547D01*
X110851326Y-122170009D01*
X110858788Y-122162547D01*
X110851326Y-122155085D01*
X110843864Y-122162547D01*
X110533888Y-122162547D01*
X110510037Y-122132700D01*
X110828940Y-122132700D01*
X110836402Y-122140162D01*
X110843864Y-122132700D01*
X110839592Y-122128428D01*
X111129728Y-122128428D01*
X111129990Y-122132700D01*
X111131820Y-122162547D01*
X111132049Y-122166278D01*
X111133444Y-122170512D01*
X111137318Y-122167312D01*
X111138874Y-122140162D01*
X111138730Y-122130036D01*
X111136375Y-122109401D01*
X111136361Y-122109416D01*
X111132049Y-122114045D01*
X111129728Y-122128428D01*
X110839592Y-122128428D01*
X110836402Y-122125238D01*
X110828940Y-122132700D01*
X110510037Y-122132700D01*
X110433764Y-122037253D01*
X110338716Y-121929337D01*
X110311460Y-121902283D01*
X110716113Y-121902283D01*
X110721934Y-121920397D01*
X110738067Y-121957024D01*
X110761784Y-122005849D01*
X110768236Y-122018551D01*
X110793026Y-122065241D01*
X110812131Y-122097974D01*
X110821854Y-122110314D01*
X110822379Y-122109416D01*
X110816558Y-122091301D01*
X110800505Y-122054856D01*
X111338526Y-122054856D01*
X111341478Y-122084482D01*
X111342073Y-122085813D01*
X111346745Y-122083569D01*
X111348358Y-122058082D01*
X111348259Y-122053447D01*
X111345676Y-122033625D01*
X111340925Y-122039711D01*
X111338526Y-122054856D01*
X110800505Y-122054856D01*
X110800425Y-122054675D01*
X110776708Y-122005849D01*
X110770256Y-121993147D01*
X110745466Y-121946457D01*
X110743773Y-121943556D01*
X110905396Y-121943556D01*
X110907415Y-122017042D01*
X110908351Y-122031828D01*
X110910045Y-122040173D01*
X110911404Y-122022154D01*
X110911639Y-122011225D01*
X111114379Y-122011225D01*
X111117159Y-122047063D01*
X111119066Y-122051952D01*
X111122448Y-122044025D01*
X111123649Y-122013311D01*
X111123265Y-121997147D01*
X111547084Y-121997147D01*
X111547605Y-122013311D01*
X111549048Y-122058082D01*
X111549187Y-122062398D01*
X111549668Y-122069320D01*
X111551577Y-122081489D01*
X111553117Y-122067016D01*
X111553354Y-122058082D01*
X111664663Y-122058082D01*
X111672125Y-122065544D01*
X111679587Y-122058082D01*
X111672125Y-122050620D01*
X111664663Y-122058082D01*
X111553354Y-122058082D01*
X111554140Y-122028500D01*
X111554142Y-122028235D01*
X111679587Y-122028235D01*
X111687048Y-122035696D01*
X111694510Y-122028235D01*
X111687048Y-122020773D01*
X111679587Y-122028235D01*
X111554142Y-122028235D01*
X111554321Y-121998387D01*
X111694510Y-121998387D01*
X111701972Y-122005849D01*
X111709434Y-121998387D01*
X111701972Y-121990926D01*
X111694510Y-121998387D01*
X111554321Y-121998387D01*
X111554500Y-121968540D01*
X111709434Y-121968540D01*
X111716896Y-121976002D01*
X111724357Y-121968540D01*
X111716896Y-121961078D01*
X111709434Y-121968540D01*
X111554500Y-121968540D01*
X111554470Y-121951614D01*
X111554412Y-121946155D01*
X111731053Y-121946155D01*
X111731838Y-121945965D01*
X111744073Y-121931601D01*
X111761667Y-121901384D01*
X111764275Y-121896244D01*
X111776396Y-121868094D01*
X111777357Y-121856613D01*
X111776572Y-121856802D01*
X111764337Y-121871167D01*
X111746743Y-121901384D01*
X111744135Y-121906523D01*
X111732014Y-121934674D01*
X111731053Y-121946155D01*
X111554412Y-121946155D01*
X111553901Y-121897912D01*
X111552724Y-121867077D01*
X111551086Y-121861436D01*
X111549133Y-121883314D01*
X111548719Y-121893922D01*
X111547569Y-121923357D01*
X111547517Y-121931231D01*
X111547084Y-121997147D01*
X111123265Y-121997147D01*
X111123262Y-121997035D01*
X111120789Y-121979097D01*
X111116858Y-121987369D01*
X111114379Y-122011225D01*
X110911639Y-122011225D01*
X110912308Y-121980092D01*
X110912636Y-121916307D01*
X110912576Y-121891836D01*
X111099456Y-121891836D01*
X111101354Y-121916307D01*
X111102235Y-121927674D01*
X111104142Y-121932563D01*
X111107524Y-121924636D01*
X111107725Y-121919498D01*
X111353582Y-121919498D01*
X111355903Y-121957347D01*
X111357299Y-121961582D01*
X111361172Y-121958382D01*
X111362728Y-121931231D01*
X111362584Y-121921106D01*
X111360229Y-121900470D01*
X111355903Y-121905115D01*
X111353582Y-121919498D01*
X111107725Y-121919498D01*
X111108726Y-121893922D01*
X111108339Y-121877646D01*
X111105865Y-121859709D01*
X111101934Y-121867980D01*
X111099456Y-121891836D01*
X110912576Y-121891836D01*
X110912552Y-121881843D01*
X110911921Y-121828630D01*
X110910774Y-121798300D01*
X110909232Y-121793174D01*
X110907415Y-121815573D01*
X110906605Y-121839185D01*
X110905800Y-121862633D01*
X110905718Y-121878998D01*
X110905396Y-121943556D01*
X110743773Y-121943556D01*
X110726360Y-121913725D01*
X110716638Y-121901384D01*
X110716113Y-121902283D01*
X110311460Y-121902283D01*
X110288002Y-121878998D01*
X110694628Y-121878998D01*
X110702090Y-121886460D01*
X110709551Y-121878998D01*
X110702090Y-121871537D01*
X110694628Y-121878998D01*
X110288002Y-121878998D01*
X110253532Y-121844783D01*
X110233853Y-121827672D01*
X110217680Y-121814692D01*
X110665009Y-121814692D01*
X110666719Y-121827854D01*
X110679704Y-121849151D01*
X110690696Y-121852235D01*
X110692887Y-121839185D01*
X110679704Y-121811842D01*
X110677741Y-121808839D01*
X110667424Y-121797991D01*
X110665009Y-121814692D01*
X110217680Y-121814692D01*
X110175126Y-121780540D01*
X110146903Y-121759309D01*
X110682893Y-121759309D01*
X110684679Y-121777020D01*
X110689167Y-121779355D01*
X110692238Y-121772447D01*
X111084532Y-121772447D01*
X111087312Y-121808285D01*
X111089219Y-121813174D01*
X111092601Y-121805247D01*
X111092761Y-121801154D01*
X111368373Y-121801154D01*
X111371325Y-121830781D01*
X111371920Y-121832111D01*
X111376592Y-121829867D01*
X111378205Y-121804380D01*
X111378110Y-121799943D01*
X111787121Y-121799943D01*
X111787407Y-121804380D01*
X111789092Y-121830497D01*
X111794274Y-121833028D01*
X111796619Y-121811842D01*
X111794539Y-121791313D01*
X111789092Y-121793188D01*
X111787121Y-121799943D01*
X111378110Y-121799943D01*
X111378106Y-121799746D01*
X111375523Y-121779924D01*
X111370772Y-121786010D01*
X111368373Y-121801154D01*
X111092761Y-121801154D01*
X111093802Y-121774533D01*
X111093415Y-121758257D01*
X111091503Y-121744386D01*
X111772317Y-121744386D01*
X111774103Y-121762097D01*
X111778592Y-121764431D01*
X111784052Y-121752148D01*
X111782975Y-121744247D01*
X111774103Y-121742199D01*
X111772317Y-121744386D01*
X111091503Y-121744386D01*
X111090942Y-121740320D01*
X111087011Y-121748591D01*
X111085091Y-121767071D01*
X111084532Y-121772447D01*
X110692238Y-121772447D01*
X110694628Y-121767071D01*
X110693551Y-121759171D01*
X110684679Y-121757122D01*
X110682893Y-121759309D01*
X110146903Y-121759309D01*
X110111854Y-121732944D01*
X110700297Y-121732944D01*
X110701120Y-121733295D01*
X110710228Y-121721193D01*
X110712859Y-121714839D01*
X111754205Y-121714839D01*
X111761667Y-121722300D01*
X111769128Y-121714839D01*
X111761667Y-121707377D01*
X111754205Y-121714839D01*
X110712859Y-121714839D01*
X110722817Y-121690795D01*
X110724418Y-121686095D01*
X110733256Y-121653509D01*
X110733269Y-121653058D01*
X111069608Y-121653058D01*
X111072388Y-121688896D01*
X111074295Y-121693785D01*
X111077677Y-121685858D01*
X111077837Y-121681766D01*
X111383297Y-121681766D01*
X111386249Y-121711392D01*
X111386844Y-121712722D01*
X111391515Y-121710478D01*
X111393129Y-121684991D01*
X111393030Y-121680357D01*
X111391650Y-121669768D01*
X111742470Y-121669768D01*
X111744005Y-121684991D01*
X111744256Y-121687479D01*
X111748744Y-121689813D01*
X111754205Y-121677530D01*
X111753128Y-121669629D01*
X111744256Y-121667580D01*
X111742470Y-121669768D01*
X111391650Y-121669768D01*
X111390446Y-121660535D01*
X111385696Y-121666621D01*
X111383297Y-121681766D01*
X111077837Y-121681766D01*
X111078878Y-121655144D01*
X111078491Y-121638868D01*
X111076579Y-121624997D01*
X111727546Y-121624997D01*
X111729332Y-121642708D01*
X111733821Y-121645042D01*
X111739281Y-121632759D01*
X111738204Y-121624858D01*
X111729332Y-121622810D01*
X111727546Y-121624997D01*
X111076579Y-121624997D01*
X111076018Y-121620931D01*
X111072087Y-121629202D01*
X111071273Y-121637039D01*
X111069608Y-121653058D01*
X110733269Y-121653058D01*
X110733730Y-121637039D01*
X110732906Y-121636688D01*
X110723798Y-121648789D01*
X110711210Y-121679188D01*
X110709608Y-121683888D01*
X110700771Y-121716474D01*
X110700297Y-121732944D01*
X110111854Y-121732944D01*
X110101924Y-121725474D01*
X110021682Y-121667987D01*
X109941833Y-121613594D01*
X109733750Y-121476061D01*
X109662091Y-121349210D01*
X109643229Y-121315305D01*
X109616040Y-121264263D01*
X109597335Y-121226242D01*
X109590356Y-121207643D01*
X109592842Y-121206971D01*
X109610322Y-121220585D01*
X109640868Y-121250458D01*
X109680135Y-121292485D01*
X109769991Y-121392044D01*
X110094266Y-121519998D01*
X110149780Y-121541813D01*
X110237531Y-121575909D01*
X110313877Y-121605094D01*
X110374737Y-121627831D01*
X110416033Y-121642584D01*
X110433685Y-121647817D01*
X110438009Y-121641803D01*
X110449766Y-121612522D01*
X110455691Y-121595150D01*
X110742587Y-121595150D01*
X110744373Y-121612860D01*
X110748862Y-121615195D01*
X110754322Y-121602911D01*
X110753245Y-121595011D01*
X110744373Y-121592962D01*
X110742587Y-121595150D01*
X110455691Y-121595150D01*
X110466252Y-121564182D01*
X110470625Y-121550379D01*
X110757511Y-121550379D01*
X110759297Y-121568090D01*
X110763786Y-121570424D01*
X110769246Y-121558141D01*
X110768169Y-121550240D01*
X110759297Y-121548191D01*
X110757511Y-121550379D01*
X110470625Y-121550379D01*
X110484809Y-121505608D01*
X110772434Y-121505608D01*
X110774220Y-121523319D01*
X110778709Y-121525654D01*
X110784169Y-121513370D01*
X110783092Y-121505469D01*
X110774220Y-121503421D01*
X110772434Y-121505608D01*
X110484809Y-121505608D01*
X110485734Y-121502687D01*
X110492809Y-121479242D01*
X110789839Y-121479242D01*
X110790662Y-121479593D01*
X110799770Y-121467492D01*
X110812359Y-121437093D01*
X110813960Y-121432393D01*
X110822798Y-121399807D01*
X110823271Y-121383337D01*
X110822448Y-121382987D01*
X110813340Y-121395088D01*
X110800751Y-121425486D01*
X110799150Y-121430186D01*
X110790312Y-121462772D01*
X110789839Y-121479242D01*
X110492809Y-121479242D01*
X110506479Y-121433946D01*
X110526754Y-121363867D01*
X110532938Y-121341448D01*
X110832129Y-121341448D01*
X110833915Y-121359159D01*
X110838404Y-121361494D01*
X110843864Y-121349210D01*
X110842787Y-121341309D01*
X110833915Y-121339261D01*
X110832129Y-121341448D01*
X110532938Y-121341448D01*
X110544826Y-121298355D01*
X110545257Y-121296677D01*
X110847052Y-121296677D01*
X110848838Y-121314388D01*
X110853327Y-121316723D01*
X110858788Y-121304439D01*
X110857711Y-121296539D01*
X110848838Y-121294490D01*
X110847052Y-121296677D01*
X110545257Y-121296677D01*
X110555886Y-121255293D01*
X110863178Y-121255293D01*
X110871281Y-121273090D01*
X110876392Y-121282545D01*
X110880597Y-121304439D01*
X110883360Y-121318821D01*
X110886209Y-121349210D01*
X110888865Y-121377541D01*
X110889131Y-121383337D01*
X110892388Y-121454236D01*
X110894044Y-121513370D01*
X110895298Y-121558141D01*
X110896551Y-121602911D01*
X110897178Y-121625297D01*
X110897905Y-121580226D01*
X111712622Y-121580226D01*
X111714408Y-121597937D01*
X111718897Y-121600272D01*
X111724357Y-121587988D01*
X111723280Y-121580087D01*
X111714408Y-121578039D01*
X111712622Y-121580226D01*
X110897905Y-121580226D01*
X110898932Y-121516560D01*
X111055110Y-121516560D01*
X111057431Y-121554410D01*
X111058826Y-121558644D01*
X111062700Y-121555444D01*
X111064073Y-121531484D01*
X111398353Y-121531484D01*
X111400674Y-121569333D01*
X111402069Y-121573568D01*
X111405943Y-121570368D01*
X111407499Y-121543217D01*
X111407355Y-121533092D01*
X111405000Y-121512456D01*
X111400674Y-121517101D01*
X111398868Y-121528293D01*
X111398353Y-121531484D01*
X111064073Y-121531484D01*
X111064256Y-121528293D01*
X111064112Y-121518168D01*
X111061757Y-121497532D01*
X111057431Y-121502177D01*
X111055110Y-121516560D01*
X110898932Y-121516560D01*
X110899424Y-121486094D01*
X111561950Y-121486094D01*
X111563742Y-121543217D01*
X111564093Y-121554410D01*
X111564419Y-121559288D01*
X111566395Y-121574519D01*
X111568002Y-121562805D01*
X111568820Y-121535455D01*
X111697699Y-121535455D01*
X111699485Y-121553166D01*
X111703974Y-121555501D01*
X111709434Y-121543217D01*
X111708357Y-121535316D01*
X111699485Y-121533268D01*
X111697699Y-121535455D01*
X111568820Y-121535455D01*
X111569083Y-121526660D01*
X111569224Y-121505908D01*
X111679587Y-121505908D01*
X111687048Y-121513370D01*
X111694510Y-121505908D01*
X111687048Y-121498446D01*
X111679587Y-121505908D01*
X111569224Y-121505908D01*
X111569478Y-121468599D01*
X111569470Y-121460837D01*
X111667851Y-121460837D01*
X111668634Y-121468599D01*
X111669638Y-121478548D01*
X111674126Y-121480883D01*
X111679587Y-121468599D01*
X111678510Y-121460698D01*
X111669638Y-121458650D01*
X111667851Y-121460837D01*
X111569470Y-121460837D01*
X111569468Y-121458373D01*
X111569074Y-121416066D01*
X111652928Y-121416066D01*
X111654714Y-121433777D01*
X111659203Y-121436112D01*
X111664663Y-121423828D01*
X111663586Y-121415927D01*
X111654714Y-121413879D01*
X111652928Y-121416066D01*
X111569074Y-121416066D01*
X111568957Y-121403510D01*
X111567798Y-121371295D01*
X111638004Y-121371295D01*
X111639790Y-121389006D01*
X111644279Y-121391341D01*
X111649739Y-121379057D01*
X111648662Y-121371157D01*
X111639790Y-121369108D01*
X111638004Y-121371295D01*
X111567798Y-121371295D01*
X111567786Y-121370948D01*
X111566112Y-121363202D01*
X111564093Y-121382788D01*
X111562737Y-121412194D01*
X111562613Y-121423828D01*
X111561950Y-121486094D01*
X110899424Y-121486094D01*
X110900368Y-121427559D01*
X110900446Y-121422535D01*
X110900486Y-121399357D01*
X111039761Y-121399357D01*
X111042541Y-121435195D01*
X111044448Y-121440084D01*
X111047830Y-121432157D01*
X111048614Y-121412095D01*
X111413277Y-121412095D01*
X111415598Y-121449944D01*
X111416993Y-121454179D01*
X111420867Y-121450979D01*
X111422423Y-121423828D01*
X111422278Y-121413703D01*
X111419923Y-121393067D01*
X111415598Y-121397712D01*
X111414996Y-121401443D01*
X111413277Y-121412095D01*
X111048614Y-121412095D01*
X111049031Y-121401443D01*
X111048644Y-121385166D01*
X111046171Y-121367229D01*
X111042240Y-121375500D01*
X111039761Y-121399357D01*
X110900486Y-121399357D01*
X110900579Y-121344665D01*
X110898644Y-121283726D01*
X110898288Y-121279968D01*
X111024838Y-121279968D01*
X111027617Y-121315806D01*
X111029524Y-121320695D01*
X111032906Y-121312768D01*
X111033691Y-121292706D01*
X111428201Y-121292706D01*
X111430521Y-121330555D01*
X111431917Y-121334790D01*
X111435791Y-121331590D01*
X111437346Y-121304439D01*
X111437240Y-121296977D01*
X111605426Y-121296977D01*
X111606784Y-121304439D01*
X111607264Y-121307080D01*
X111619892Y-121334286D01*
X111628201Y-121344418D01*
X111634359Y-121341748D01*
X111632520Y-121331645D01*
X111619892Y-121304439D01*
X111611584Y-121294308D01*
X111605426Y-121296977D01*
X111437240Y-121296977D01*
X111437202Y-121294314D01*
X111434847Y-121273678D01*
X111430521Y-121278323D01*
X111429919Y-121282054D01*
X111428201Y-121292706D01*
X111033691Y-121292706D01*
X111034108Y-121282054D01*
X111033720Y-121265777D01*
X111031247Y-121247840D01*
X111027316Y-121256111D01*
X111024838Y-121279968D01*
X110898288Y-121279968D01*
X110894878Y-121244013D01*
X110894489Y-121242983D01*
X111575121Y-121242983D01*
X111575678Y-121247360D01*
X111590045Y-121267130D01*
X111595774Y-121269521D01*
X111604969Y-121261430D01*
X111604411Y-121257052D01*
X111590045Y-121237283D01*
X111584316Y-121234892D01*
X111575121Y-121242983D01*
X110894489Y-121242983D01*
X110889516Y-121229821D01*
X110873408Y-121236046D01*
X110863178Y-121255293D01*
X110555886Y-121255293D01*
X110558962Y-121243319D01*
X110567429Y-121204665D01*
X110568494Y-121188301D01*
X110566228Y-121187134D01*
X110542540Y-121176803D01*
X110495905Y-121157118D01*
X110491317Y-121155203D01*
X111008024Y-121155203D01*
X111008213Y-121168538D01*
X111010811Y-121201643D01*
X111015486Y-121214897D01*
X111016407Y-121214502D01*
X111021055Y-121197492D01*
X111022375Y-121173524D01*
X111158175Y-121173524D01*
X111170280Y-121190069D01*
X111184785Y-121204620D01*
X111203858Y-121214897D01*
X111214813Y-121212797D01*
X111213354Y-121207961D01*
X111246802Y-121207961D01*
X111247800Y-121212797D01*
X111247837Y-121212976D01*
X111258367Y-121211259D01*
X111284989Y-121191689D01*
X111300714Y-121178854D01*
X111303207Y-121174362D01*
X111442991Y-121174362D01*
X111445943Y-121203989D01*
X111446538Y-121205319D01*
X111451210Y-121203075D01*
X111452823Y-121177588D01*
X111452725Y-121172954D01*
X111450141Y-121153132D01*
X111445390Y-121159218D01*
X111443013Y-121174222D01*
X111442991Y-121174362D01*
X111303207Y-121174362D01*
X111303285Y-121174222D01*
X111280380Y-121184752D01*
X111258523Y-121197025D01*
X111246802Y-121207961D01*
X111213354Y-121207961D01*
X111211438Y-121201607D01*
X111183376Y-121183132D01*
X111166780Y-121174624D01*
X111158175Y-121173524D01*
X111022375Y-121173524D01*
X111022947Y-121163133D01*
X111023912Y-121138311D01*
X111026390Y-121131767D01*
X111082642Y-121131767D01*
X111089036Y-121139791D01*
X111112489Y-121155203D01*
X111131368Y-121163613D01*
X111142336Y-121163715D01*
X111141918Y-121163190D01*
X111321420Y-121163190D01*
X111321528Y-121163715D01*
X111322455Y-121168205D01*
X111332985Y-121166488D01*
X111359607Y-121146918D01*
X111375332Y-121134083D01*
X111377904Y-121129451D01*
X111354998Y-121139981D01*
X111333141Y-121152255D01*
X111321420Y-121163190D01*
X111141918Y-121163190D01*
X111135942Y-121155691D01*
X111112489Y-121140279D01*
X111093610Y-121131869D01*
X111082642Y-121131767D01*
X111026390Y-121131767D01*
X111030914Y-121119820D01*
X111047781Y-121120898D01*
X111062547Y-121124175D01*
X111062176Y-121118419D01*
X111396038Y-121118419D01*
X111399769Y-121123624D01*
X111405634Y-121121695D01*
X111429616Y-121115068D01*
X111443432Y-121109270D01*
X111455732Y-121093889D01*
X111449734Y-121087871D01*
X111425885Y-121095508D01*
X111407462Y-121106857D01*
X111396038Y-121118419D01*
X111062176Y-121118419D01*
X111061824Y-121112968D01*
X111049906Y-121098550D01*
X111029565Y-121094178D01*
X111014141Y-121114211D01*
X111008024Y-121155203D01*
X110491317Y-121155203D01*
X110429739Y-121129501D01*
X110347456Y-121095374D01*
X110252469Y-121056158D01*
X110148192Y-121013274D01*
X110105664Y-120995781D01*
X110006305Y-120954609D01*
X109918586Y-120917837D01*
X109845709Y-120886833D01*
X109790875Y-120862969D01*
X109757286Y-120847612D01*
X109748142Y-120842132D01*
X109749126Y-120842174D01*
X109771625Y-120845056D01*
X109819093Y-120852042D01*
X109887625Y-120862529D01*
X109973321Y-120875914D01*
X110072276Y-120891593D01*
X110180589Y-120908963D01*
X110196337Y-120911501D01*
X110303982Y-120928708D01*
X110402040Y-120944153D01*
X110486538Y-120957225D01*
X110553501Y-120967316D01*
X110598955Y-120973817D01*
X110618926Y-120976119D01*
X110629315Y-120975312D01*
X110632887Y-120971212D01*
X110622439Y-120963002D01*
X110596201Y-120949970D01*
X110552401Y-120931406D01*
X110489266Y-120906596D01*
X110405027Y-120874830D01*
X110297910Y-120835397D01*
X110166145Y-120787583D01*
X110007960Y-120730678D01*
X109931479Y-120703210D01*
X109807870Y-120658663D01*
X109694382Y-120617574D01*
X109594012Y-120581039D01*
X109509759Y-120550155D01*
X109444621Y-120526019D01*
X109401596Y-120509725D01*
X109383682Y-120502372D01*
X109374509Y-120489820D01*
X109355591Y-120453047D01*
X109330069Y-120397077D01*
X109300098Y-120326664D01*
X109298886Y-120323655D01*
X109639522Y-120323655D01*
X109647833Y-120355844D01*
X109663506Y-120401560D01*
X109669478Y-120419459D01*
X109676450Y-120439221D01*
X109685189Y-120455283D01*
X109699035Y-120469223D01*
X109721328Y-120482617D01*
X109755406Y-120497044D01*
X109804609Y-120514082D01*
X109872276Y-120535309D01*
X109961747Y-120562303D01*
X110076361Y-120596641D01*
X110088592Y-120600315D01*
X110183897Y-120628840D01*
X110254651Y-120649722D01*
X110304458Y-120663905D01*
X110336924Y-120672330D01*
X110355651Y-120675942D01*
X110364245Y-120675681D01*
X110366308Y-120672493D01*
X110357000Y-120663168D01*
X110324903Y-120641606D01*
X110273838Y-120610742D01*
X110207908Y-120572885D01*
X110131214Y-120530339D01*
X110047857Y-120485412D01*
X109961939Y-120440410D01*
X109877560Y-120397638D01*
X109809336Y-120363780D01*
X109737577Y-120329123D01*
X109687601Y-120307728D01*
X109656522Y-120299651D01*
X109641457Y-120304942D01*
X109639522Y-120323655D01*
X109298886Y-120323655D01*
X109267831Y-120246563D01*
X109247710Y-120195796D01*
X109210111Y-120105531D01*
X109175403Y-120030992D01*
X109139147Y-119963637D01*
X109096903Y-119894926D01*
X109044233Y-119816318D01*
X109020895Y-119782046D01*
X108980503Y-119721093D01*
X108949000Y-119671339D01*
X108929137Y-119637194D01*
X108923667Y-119623069D01*
X108927149Y-119623767D01*
X108951094Y-119636435D01*
X108994451Y-119662551D01*
X109053583Y-119699840D01*
X109124854Y-119746026D01*
X109204626Y-119798836D01*
X109293083Y-119857855D01*
X109433451Y-119950976D01*
X109560882Y-120034831D01*
X109673698Y-120108346D01*
X109770223Y-120170445D01*
X109848781Y-120220054D01*
X109907693Y-120256095D01*
X109945284Y-120277495D01*
X109959876Y-120283178D01*
X109953871Y-120271658D01*
X109931709Y-120239593D01*
X109895569Y-120190208D01*
X109847793Y-120126655D01*
X109790727Y-120052085D01*
X109726714Y-119969650D01*
X109666283Y-119892041D01*
X109608924Y-119817713D01*
X109560736Y-119754559D01*
X109524041Y-119705651D01*
X109501164Y-119674055D01*
X109494427Y-119662841D01*
X109506670Y-119672280D01*
X109537944Y-119699399D01*
X109585287Y-119741563D01*
X109645761Y-119796139D01*
X109716431Y-119860490D01*
X109794359Y-119931984D01*
X109871787Y-120002760D01*
X109942403Y-120066329D01*
X110002868Y-120119758D01*
X110050260Y-120160495D01*
X110081656Y-120185989D01*
X110094136Y-120193689D01*
X110094985Y-120192523D01*
X110095421Y-120188402D01*
X110093313Y-120180203D01*
X110087632Y-120165895D01*
X110077351Y-120143446D01*
X110061439Y-120110822D01*
X110038868Y-120065992D01*
X110008610Y-120006922D01*
X109969635Y-119931581D01*
X109920916Y-119837936D01*
X109861423Y-119723954D01*
X109790127Y-119587602D01*
X109706000Y-119426850D01*
X109692216Y-119400489D01*
X109633964Y-119288465D01*
X109580939Y-119185501D01*
X109534593Y-119094487D01*
X109496376Y-119018311D01*
X109467743Y-118959862D01*
X109450144Y-118922028D01*
X109445031Y-118907698D01*
X109451090Y-118914190D01*
X109472885Y-118942910D01*
X109509187Y-118992747D01*
X109558629Y-119061768D01*
X109619845Y-119148040D01*
X109691468Y-119249628D01*
X109772133Y-119364600D01*
X109860472Y-119491022D01*
X109955121Y-119626960D01*
X110054712Y-119770481D01*
X110128980Y-119877580D01*
X110226400Y-120017735D01*
X110318441Y-120149781D01*
X110403655Y-120271660D01*
X110480596Y-120381315D01*
X110547817Y-120476691D01*
X110603871Y-120555729D01*
X110647310Y-120616374D01*
X110676688Y-120656568D01*
X110689176Y-120672493D01*
X110690558Y-120674255D01*
X110691615Y-120675340D01*
X110714142Y-120701753D01*
X110723017Y-120718653D01*
X110724038Y-120722960D01*
X110740657Y-120735274D01*
X110751373Y-120734252D01*
X110747878Y-120713261D01*
X110743601Y-120701758D01*
X110729682Y-120662116D01*
X110708289Y-120599835D01*
X110680367Y-120517744D01*
X110646859Y-120418673D01*
X110608709Y-120305450D01*
X110566861Y-120180906D01*
X110522259Y-120047870D01*
X110475848Y-119909170D01*
X110428571Y-119767637D01*
X110381371Y-119626099D01*
X110335194Y-119487386D01*
X110290983Y-119354327D01*
X110249682Y-119229752D01*
X110212235Y-119116490D01*
X110179586Y-119017371D01*
X110152679Y-118935222D01*
X110132458Y-118872875D01*
X110119866Y-118833159D01*
X110115849Y-118818901D01*
X110121061Y-118827900D01*
X110138172Y-118861659D01*
X110166188Y-118918457D01*
X110204085Y-118996176D01*
X110250841Y-119092701D01*
X110305436Y-119205916D01*
X110366845Y-119333704D01*
X110434048Y-119473951D01*
X110506021Y-119624539D01*
X110581744Y-119783352D01*
X110646354Y-119918843D01*
X110719141Y-120071035D01*
X110787401Y-120213292D01*
X110850102Y-120343483D01*
X110906210Y-120459480D01*
X110954693Y-120559154D01*
X110994519Y-120640375D01*
X111024653Y-120701016D01*
X111044063Y-120738946D01*
X111051716Y-120752037D01*
X111052084Y-120752024D01*
X111060815Y-120749635D01*
X111068886Y-120742202D01*
X111076423Y-120728178D01*
X111083551Y-120706014D01*
X111090398Y-120674161D01*
X111097087Y-120631072D01*
X111103746Y-120575199D01*
X111110500Y-120504992D01*
X111117476Y-120418903D01*
X111124797Y-120315385D01*
X111132592Y-120192888D01*
X111140985Y-120049865D01*
X111150102Y-119884767D01*
X111160069Y-119696046D01*
X111171012Y-119482153D01*
X111183057Y-119241540D01*
X111196330Y-118972659D01*
X111196792Y-118963284D01*
X111203149Y-118840354D01*
X111209476Y-118728380D01*
X111215557Y-118630505D01*
X111221172Y-118549873D01*
X111226105Y-118489628D01*
X111230137Y-118452913D01*
X111233050Y-118442871D01*
X111233306Y-118443413D01*
X111237833Y-118466498D01*
X111242920Y-118512577D01*
X111247962Y-118575229D01*
X111252356Y-118648035D01*
X111252457Y-118650011D01*
X111255076Y-118699959D01*
X111259160Y-118776322D01*
X111264535Y-118875898D01*
X111271026Y-118995482D01*
X111278457Y-119131870D01*
X111286656Y-119281860D01*
X111295446Y-119442245D01*
X111304655Y-119609824D01*
X111314106Y-119781393D01*
X111316971Y-119833286D01*
X111327360Y-120020011D01*
X111336452Y-120179596D01*
X111344461Y-120314167D01*
X111351603Y-120425852D01*
X111358095Y-120516777D01*
X111364150Y-120589068D01*
X111369985Y-120644854D01*
X111375814Y-120686260D01*
X111381855Y-120715414D01*
X111388321Y-120734441D01*
X111395428Y-120745470D01*
X111403392Y-120750626D01*
X111412428Y-120752037D01*
X111419148Y-120740835D01*
X111437623Y-120705089D01*
X111466561Y-120647248D01*
X111504745Y-120569835D01*
X111550958Y-120475376D01*
X111603982Y-120366396D01*
X111662601Y-120245418D01*
X111725597Y-120114968D01*
X111791753Y-119977571D01*
X111859852Y-119835750D01*
X111928676Y-119692031D01*
X111997009Y-119548938D01*
X112063632Y-119408996D01*
X112127330Y-119274729D01*
X112186884Y-119148663D01*
X112241077Y-119033321D01*
X112265500Y-118981728D01*
X112297163Y-118916685D01*
X112322859Y-118866112D01*
X112340427Y-118834226D01*
X112347704Y-118825248D01*
X112346819Y-118829916D01*
X112338263Y-118859205D01*
X112321324Y-118913224D01*
X112296772Y-118989627D01*
X112265375Y-119086071D01*
X112227900Y-119200209D01*
X112185116Y-119329698D01*
X112137792Y-119472192D01*
X112086696Y-119625347D01*
X112032597Y-119786818D01*
X112003798Y-119872737D01*
X111951475Y-120029579D01*
X111902743Y-120176612D01*
X111858349Y-120311529D01*
X111819041Y-120432022D01*
X111785565Y-120535782D01*
X111758669Y-120620502D01*
X111739099Y-120683874D01*
X111727603Y-120723590D01*
X111724927Y-120737341D01*
X111726534Y-120737031D01*
X111731563Y-120733711D01*
X111739613Y-120725526D01*
X111751758Y-120710961D01*
X111769070Y-120688501D01*
X111781350Y-120671886D01*
X112097448Y-120671886D01*
X112098483Y-120674423D01*
X112109792Y-120676438D01*
X112135756Y-120672469D01*
X112179103Y-120661807D01*
X112242557Y-120643741D01*
X112328845Y-120617564D01*
X112440691Y-120582565D01*
X112459283Y-120576689D01*
X112547447Y-120548702D01*
X112625994Y-120523573D01*
X112690208Y-120502825D01*
X112735376Y-120487978D01*
X112756783Y-120480554D01*
X112767278Y-120470807D01*
X112785415Y-120439886D01*
X112803885Y-120397551D01*
X112819139Y-120353263D01*
X112827624Y-120316482D01*
X112825792Y-120296669D01*
X112818223Y-120297034D01*
X112787529Y-120308049D01*
X112737541Y-120329930D01*
X112672443Y-120360520D01*
X112596422Y-120397663D01*
X112513666Y-120439202D01*
X112428361Y-120482980D01*
X112344693Y-120526840D01*
X112266849Y-120568626D01*
X112199016Y-120606180D01*
X112145380Y-120637346D01*
X112110129Y-120659967D01*
X112097448Y-120671886D01*
X111781350Y-120671886D01*
X111792622Y-120656634D01*
X111823488Y-120613844D01*
X111862742Y-120558616D01*
X111911455Y-120489438D01*
X111970702Y-120404793D01*
X112041555Y-120303169D01*
X112125089Y-120183050D01*
X112222375Y-120042922D01*
X112334487Y-119881272D01*
X112462499Y-119696583D01*
X112496548Y-119647480D01*
X112590054Y-119512957D01*
X112678053Y-119386824D01*
X112759114Y-119271103D01*
X112831808Y-119167816D01*
X112894703Y-119078985D01*
X112946371Y-119006634D01*
X112985380Y-118952784D01*
X113010301Y-118919457D01*
X113019703Y-118908676D01*
X113019754Y-118908779D01*
X113013716Y-118924178D01*
X112995164Y-118963281D01*
X112965409Y-119023502D01*
X112925758Y-119102257D01*
X112877522Y-119196961D01*
X112822009Y-119305028D01*
X112760530Y-119423874D01*
X112694393Y-119550914D01*
X112691015Y-119557383D01*
X112625106Y-119684123D01*
X112563979Y-119802596D01*
X112508936Y-119910211D01*
X112461282Y-120004375D01*
X112422320Y-120082497D01*
X112393354Y-120141985D01*
X112375686Y-120180246D01*
X112370621Y-120194690D01*
X112378617Y-120190670D01*
X112406033Y-120169401D01*
X112449871Y-120132425D01*
X112507080Y-120082381D01*
X112574609Y-120021906D01*
X112649409Y-119953638D01*
X112707379Y-119900570D01*
X112776756Y-119837947D01*
X112836448Y-119785070D01*
X112883418Y-119744592D01*
X112914627Y-119719162D01*
X112927039Y-119711429D01*
X112924471Y-119717727D01*
X112906803Y-119744586D01*
X112874703Y-119789369D01*
X112830612Y-119848755D01*
X112776971Y-119919427D01*
X112716221Y-119998065D01*
X112646462Y-120088213D01*
X112587822Y-120165613D01*
X112546198Y-120222946D01*
X112520569Y-120261763D01*
X112509920Y-120283615D01*
X112513230Y-120290055D01*
X112529483Y-120282634D01*
X112534919Y-120277547D01*
X112535632Y-120256449D01*
X112532607Y-120249492D01*
X112542109Y-120250441D01*
X112543914Y-120250487D01*
X112565609Y-120240770D01*
X112608634Y-120216627D01*
X112670221Y-120179765D01*
X112747599Y-120131894D01*
X112837999Y-120074719D01*
X112938651Y-120009950D01*
X113046786Y-119939293D01*
X113076362Y-119919844D01*
X113182261Y-119850538D01*
X113279513Y-119787394D01*
X113365414Y-119732135D01*
X113437258Y-119686483D01*
X113492341Y-119652159D01*
X113527958Y-119630885D01*
X113541405Y-119624385D01*
X113539402Y-119630945D01*
X113524057Y-119658599D01*
X113496214Y-119703783D01*
X113458533Y-119762222D01*
X113413675Y-119829642D01*
X113384665Y-119873007D01*
X113335657Y-119949546D01*
X113296791Y-120017146D01*
X113263277Y-120085155D01*
X113230320Y-120162919D01*
X113193128Y-120259786D01*
X113172129Y-120315905D01*
X113171912Y-120316482D01*
X113145673Y-120386266D01*
G37*
G36*
X111754205Y-120692571D02*
G01*
X111753128Y-120700471D01*
X111744256Y-120702520D01*
X111742470Y-120700332D01*
X111744256Y-120682622D01*
X111748744Y-120680287D01*
X111754205Y-120692571D01*
G37*
%TD*%
M02*
