%TF.GenerationSoftware,KiCad,Pcbnew,9.0.1*%
%TF.CreationDate,2025-07-01T21:06:15-04:00*%
%TF.ProjectId,Tiny Solar Power Suppy,54696e79-2053-46f6-9c61-7220506f7765,rev?*%
%TF.SameCoordinates,Original*%
%TF.FileFunction,Copper,L1,Top*%
%TF.FilePolarity,Positive*%
%FSLAX46Y46*%
G04 Gerber Fmt 4.6, Leading zero omitted, Abs format (unit mm)*
G04 Created by KiCad (PCBNEW 9.0.1) date 2025-07-01 21:06:15*
%MOMM*%
%LPD*%
G01*
G04 APERTURE LIST*
G04 Aperture macros list*
%AMRoundRect*
0 Rectangle with rounded corners*
0 $1 Rounding radius*
0 $2 $3 $4 $5 $6 $7 $8 $9 X,Y pos of 4 corners*
0 Add a 4 corners polygon primitive as box body*
4,1,4,$2,$3,$4,$5,$6,$7,$8,$9,$2,$3,0*
0 Add four circle primitives for the rounded corners*
1,1,$1+$1,$2,$3*
1,1,$1+$1,$4,$5*
1,1,$1+$1,$6,$7*
1,1,$1+$1,$8,$9*
0 Add four rect primitives between the rounded corners*
20,1,$1+$1,$2,$3,$4,$5,0*
20,1,$1+$1,$4,$5,$6,$7,0*
20,1,$1+$1,$6,$7,$8,$9,0*
20,1,$1+$1,$8,$9,$2,$3,0*%
G04 Aperture macros list end*
%TA.AperFunction,ComponentPad*%
%ADD10C,1.700000*%
%TD*%
%TA.AperFunction,ComponentPad*%
%ADD11R,1.700000X1.700000*%
%TD*%
%TA.AperFunction,SMDPad,CuDef*%
%ADD12R,3.302000X2.667000*%
%TD*%
%TA.AperFunction,SMDPad,CuDef*%
%ADD13R,1.181100X0.558800*%
%TD*%
%TA.AperFunction,ComponentPad*%
%ADD14C,1.600000*%
%TD*%
%TA.AperFunction,ComponentPad*%
%ADD15RoundRect,0.250000X0.550000X0.550000X-0.550000X0.550000X-0.550000X-0.550000X0.550000X-0.550000X0*%
%TD*%
%TA.AperFunction,SMDPad,CuDef*%
%ADD16RoundRect,0.250000X-0.262500X-0.450000X0.262500X-0.450000X0.262500X0.450000X-0.262500X0.450000X0*%
%TD*%
%TA.AperFunction,SMDPad,CuDef*%
%ADD17RoundRect,0.250000X-0.250000X-0.475000X0.250000X-0.475000X0.250000X0.475000X-0.250000X0.475000X0*%
%TD*%
%TA.AperFunction,SMDPad,CuDef*%
%ADD18RoundRect,0.250000X0.325000X0.650000X-0.325000X0.650000X-0.325000X-0.650000X0.325000X-0.650000X0*%
%TD*%
%TA.AperFunction,SMDPad,CuDef*%
%ADD19R,1.300000X0.600000*%
%TD*%
%TA.AperFunction,SMDPad,CuDef*%
%ADD20R,2.350000X1.550000*%
%TD*%
%TA.AperFunction,ViaPad*%
%ADD21C,0.800000*%
%TD*%
%TA.AperFunction,Conductor*%
%ADD22C,0.250000*%
%TD*%
%TA.AperFunction,Conductor*%
%ADD23C,0.350000*%
%TD*%
G04 APERTURE END LIST*
D10*
%TO.P,J1,2,Pin_2*%
%TO.N,/OUT_P*%
X126200000Y-123340000D03*
D11*
%TO.P,J1,1,Pin_1*%
%TO.N,GNDD*%
X126200000Y-120800000D03*
%TD*%
D12*
%TO.P,L1,2,2*%
%TO.N,Net-(J3-Pin_1)*%
X120000000Y-120865400D03*
%TO.P,L1,1,1*%
%TO.N,Net-(U1-SW)*%
X120000000Y-115734600D03*
%TD*%
D13*
%TO.P,U1,5,VIN*%
%TO.N,Net-(J3-Pin_1)*%
X113465250Y-119462499D03*
%TO.P,U1,4,SHDN*%
%TO.N,Net-(Q1-D)*%
X113465250Y-121362501D03*
%TO.P,U1,3,FB*%
%TO.N,Net-(U1-FB)*%
X110734750Y-121362501D03*
%TO.P,U1,2,GND*%
%TO.N,GNDD*%
X110734750Y-120412500D03*
%TO.P,U1,1,SW*%
%TO.N,Net-(U1-SW)*%
X110734750Y-119462499D03*
%TD*%
D14*
%TO.P,J3,2,Pin_2*%
%TO.N,/BAT_P*%
X99355000Y-120687500D03*
D15*
%TO.P,J3,1,Pin_1*%
%TO.N,Net-(J3-Pin_1)*%
X106975000Y-120687500D03*
%TD*%
D16*
%TO.P,R2,1*%
%TO.N,Net-(U1-FB)*%
X108825000Y-125200000D03*
%TO.P,R2,2*%
%TO.N,GNDD*%
X110650000Y-125200000D03*
%TD*%
%TO.P,R1,1*%
%TO.N,/OUT_P*%
X113425000Y-125200000D03*
%TO.P,R1,2*%
%TO.N,Net-(U1-FB)*%
X115250000Y-125200000D03*
%TD*%
D17*
%TO.P,C1,1*%
%TO.N,Net-(J3-Pin_1)*%
X118150000Y-125200000D03*
%TO.P,C1,2*%
%TO.N,GNDD*%
X120050000Y-125200000D03*
%TD*%
%TO.P,C3,1*%
%TO.N,/OUT_P*%
X118150000Y-129200000D03*
%TO.P,C3,2*%
%TO.N,Net-(U1-FB)*%
X120050000Y-129200000D03*
%TD*%
D18*
%TO.P,C2,1*%
%TO.N,/OUT_P*%
X113600000Y-129000000D03*
%TO.P,C2,2*%
%TO.N,GNDD*%
X110650000Y-129000000D03*
%TD*%
D16*
%TO.P,R4,1*%
%TO.N,/SOLAR_P*%
X104475000Y-129200000D03*
%TO.P,R4,2*%
%TO.N,GNDD*%
X106300000Y-129200000D03*
%TD*%
D19*
%TO.P,Q1,1,G*%
%TO.N,/SOLAR_P*%
X98700000Y-126150000D03*
%TO.P,Q1,2,S*%
%TO.N,GNDD*%
X98700000Y-128050000D03*
%TO.P,Q1,3,D*%
%TO.N,Net-(Q1-D)*%
X100800000Y-127100000D03*
%TD*%
D20*
%TO.P,D1,1*%
%TO.N,/OUT_P*%
X113050000Y-115800000D03*
%TO.P,D1,2*%
%TO.N,Net-(U1-SW)*%
X108750000Y-115800000D03*
%TD*%
%TO.P,D2,1*%
%TO.N,/BAT_P*%
X103750000Y-115800000D03*
%TO.P,D2,2*%
%TO.N,/SOLAR_P*%
X99450000Y-115800000D03*
%TD*%
D16*
%TO.P,R3,1*%
%TO.N,Net-(J3-Pin_1)*%
X104475000Y-125200000D03*
%TO.P,R3,2*%
%TO.N,Net-(Q1-D)*%
X106300000Y-125200000D03*
%TD*%
D11*
%TO.P,J2,1,Pin_1*%
%TO.N,/BAT_P*%
X95085000Y-126900000D03*
D10*
%TO.P,J2,2,Pin_2*%
%TO.N,GNDD*%
X95085000Y-124360000D03*
%TD*%
D11*
%TO.P,J4,1,Pin_1*%
%TO.N,/SOLAR_P*%
X95085000Y-120540000D03*
D10*
%TO.P,J4,2,Pin_2*%
%TO.N,GNDD*%
X95085000Y-118000000D03*
%TD*%
D21*
%TO.N,GNDD*%
X109212500Y-120412500D03*
X108400000Y-129000000D03*
X110650000Y-127100000D03*
X102200000Y-130226000D03*
X123100000Y-124600000D03*
%TO.N,Net-(J3-Pin_1)*%
X111800000Y-118000000D03*
X114107800Y-118400000D03*
X115657800Y-118400000D03*
%TO.N,Net-(U1-FB)*%
X117625000Y-126775000D03*
X108900000Y-127300000D03*
%TD*%
D22*
%TO.N,Net-(U1-FB)*%
X120050000Y-129200000D02*
X117625000Y-126775000D01*
%TO.N,GNDD*%
X120650000Y-124600000D02*
X123100000Y-124600000D01*
X105274000Y-130226000D02*
X106300000Y-129200000D01*
X98700000Y-128050000D02*
X98700000Y-128600000D01*
X108400000Y-129000000D02*
X106500000Y-129000000D01*
X98700000Y-128600000D02*
X100326000Y-130226000D01*
X106500000Y-129000000D02*
X106300000Y-129200000D01*
X123100000Y-124600000D02*
X123200000Y-124600000D01*
X110650000Y-129000000D02*
X108400000Y-129000000D01*
X110650000Y-129000000D02*
X110650000Y-127100000D01*
X110650000Y-127100000D02*
X110650000Y-125200000D01*
X102200000Y-130226000D02*
X105274000Y-130226000D01*
X120050000Y-125200000D02*
X120650000Y-124600000D01*
X110734750Y-120412500D02*
X109212500Y-120412500D01*
X100326000Y-130226000D02*
X102200000Y-130226000D01*
%TO.N,Net-(J3-Pin_1)*%
X113100000Y-118000000D02*
X111800000Y-118000000D01*
X113465250Y-119462499D02*
X113465250Y-118365250D01*
X118150000Y-125200000D02*
X118150000Y-124450000D01*
X104475000Y-125200000D02*
X104475000Y-123187500D01*
X118743700Y-122121700D02*
X116569608Y-122121700D01*
X118150000Y-124450000D02*
X120000000Y-122600000D01*
X104475000Y-123187500D02*
X106975000Y-120687500D01*
X114107800Y-118819949D02*
X113465250Y-119462499D01*
X120000000Y-120865400D02*
X118743700Y-122121700D01*
X115657800Y-121209892D02*
X115657800Y-118400000D01*
X113465250Y-118365250D02*
X113100000Y-118000000D01*
X114107800Y-118400000D02*
X114107800Y-118819949D01*
X120000000Y-122600000D02*
X120000000Y-120865400D01*
X116569608Y-122121700D02*
X115657800Y-121209892D01*
D23*
%TO.N,/OUT_P*%
X119650000Y-130700000D02*
X118150000Y-129200000D01*
D22*
X112800000Y-125500000D02*
X113125000Y-125500000D01*
D23*
X116100000Y-129200000D02*
X113425000Y-126525000D01*
X113425000Y-126525000D02*
X113425000Y-125200000D01*
X118150000Y-129200000D02*
X116100000Y-129200000D01*
X113050000Y-115800000D02*
X114882800Y-117632800D01*
D22*
X113600000Y-129000000D02*
X113600000Y-129900000D01*
X112800000Y-126600000D02*
X112800000Y-125500000D01*
X113125000Y-125500000D02*
X113425000Y-125200000D01*
D23*
X126200000Y-123340000D02*
X126200000Y-128200000D01*
X114882800Y-123742200D02*
X113425000Y-125200000D01*
X123700000Y-130700000D02*
X119650000Y-130700000D01*
X114882800Y-117632800D02*
X114882800Y-123742200D01*
D22*
X113600000Y-127400000D02*
X112800000Y-126600000D01*
X113600000Y-129000000D02*
X113600000Y-127400000D01*
D23*
X126200000Y-128200000D02*
X123700000Y-130700000D01*
D22*
%TO.N,Net-(U1-FB)*%
X116050000Y-125200000D02*
X115250000Y-125200000D01*
%TO.N,Net-(U1-SW)*%
X120000000Y-115734600D02*
X118743700Y-114478300D01*
X110734750Y-117784750D02*
X108750000Y-115800000D01*
X110734750Y-119462499D02*
X110734750Y-117784750D01*
X110071700Y-114478300D02*
X108750000Y-115800000D01*
X118743700Y-114478300D02*
X110071700Y-114478300D01*
D23*
%TO.N,/BAT_P*%
X99355000Y-122630000D02*
X99355000Y-120687500D01*
X95085000Y-126900000D02*
X99355000Y-122630000D01*
X103750000Y-116292500D02*
X103750000Y-115800000D01*
X99355000Y-120687500D02*
X103750000Y-116292500D01*
%TO.N,/SOLAR_P*%
X104475000Y-129200000D02*
X100200000Y-129200000D01*
X98700000Y-126150000D02*
X96724000Y-128126000D01*
X93859000Y-128126000D02*
X92900000Y-127167000D01*
X92900000Y-127167000D02*
X92900000Y-120800000D01*
X95085000Y-120540000D02*
X95085000Y-120165000D01*
X92900000Y-120800000D02*
X93160000Y-120540000D01*
X100200000Y-129200000D02*
X99726000Y-128726000D01*
X99726000Y-128726000D02*
X99726000Y-127176000D01*
X96724000Y-128126000D02*
X93859000Y-128126000D01*
X99726000Y-127176000D02*
X98700000Y-126150000D01*
X95085000Y-120165000D02*
X99450000Y-115800000D01*
X93160000Y-120540000D02*
X95085000Y-120540000D01*
D22*
%TO.N,Net-(Q1-D)*%
X100800000Y-127100000D02*
X104400000Y-127100000D01*
X108700000Y-122800000D02*
X112700000Y-122800000D01*
X106300000Y-125200000D02*
X108700000Y-122800000D01*
X113465250Y-122034750D02*
X113465250Y-121362501D01*
X104400000Y-127100000D02*
X106300000Y-125200000D01*
X112700000Y-122800000D02*
X113465250Y-122034750D01*
%TO.N,Net-(U1-FB)*%
X111842899Y-120757101D02*
X111237499Y-121362501D01*
X114381800Y-120757101D02*
X111842899Y-120757101D01*
X112749701Y-123600000D02*
X114381800Y-121967901D01*
X110000000Y-123600000D02*
X112749701Y-123600000D01*
X114381800Y-121967901D02*
X114381800Y-120757101D01*
X111237499Y-121362501D02*
X110734750Y-121362501D01*
X108825000Y-125200000D02*
X108825000Y-124775000D01*
X108825000Y-124775000D02*
X110000000Y-123600000D01*
X117625000Y-126775000D02*
X116050000Y-125200000D01*
X108900000Y-125275000D02*
X108825000Y-125200000D01*
X108900000Y-127300000D02*
X108900000Y-125275000D01*
%TD*%
M02*
