%TF.GenerationSoftware,KiCad,Pcbnew,9.0.1*%
%TF.CreationDate,2025-07-01T21:06:15-04:00*%
%TF.ProjectId,Tiny Solar Power Suppy,54696e79-2053-46f6-9c61-7220506f7765,rev?*%
%TF.SameCoordinates,Original*%
%TF.FileFunction,Legend,Top*%
%TF.FilePolarity,Positive*%
%FSLAX46Y46*%
G04 Gerber Fmt 4.6, Leading zero omitted, Abs format (unit mm)*
G04 Created by KiCad (PCBNEW 9.0.1) date 2025-07-01 21:06:15*
%MOMM*%
%LPD*%
G01*
G04 APERTURE LIST*
%ADD10C,0.300000*%
%ADD11C,0.100000*%
%ADD12C,0.150000*%
%ADD13C,0.120000*%
%ADD14C,0.152400*%
%ADD15C,0.200000*%
G04 APERTURE END LIST*
D10*
X105854510Y-115029400D02*
X106997368Y-115029400D01*
X106425939Y-115600828D02*
X106425939Y-114457971D01*
X96554510Y-115029400D02*
X97697368Y-115029400D01*
X97125939Y-115600828D02*
X97125939Y-114457971D01*
D11*
X128633333Y-117864895D02*
X128633333Y-118436323D01*
X128633333Y-118436323D02*
X128595238Y-118550609D01*
X128595238Y-118550609D02*
X128519047Y-118626800D01*
X128519047Y-118626800D02*
X128404762Y-118664895D01*
X128404762Y-118664895D02*
X128328571Y-118664895D01*
X129433333Y-118664895D02*
X128976190Y-118664895D01*
X129204762Y-118664895D02*
X129204762Y-117864895D01*
X129204762Y-117864895D02*
X129128571Y-117979180D01*
X129128571Y-117979180D02*
X129052381Y-118055371D01*
X129052381Y-118055371D02*
X128976190Y-118093466D01*
X119635104Y-118166666D02*
X119635104Y-117785714D01*
X119635104Y-117785714D02*
X120435104Y-117785714D01*
X119635104Y-118852380D02*
X119635104Y-118395237D01*
X119635104Y-118623809D02*
X120435104Y-118623809D01*
X120435104Y-118623809D02*
X120320819Y-118547618D01*
X120320819Y-118547618D02*
X120244628Y-118471428D01*
X120244628Y-118471428D02*
X120206533Y-118395237D01*
X111490476Y-119977395D02*
X111490476Y-120625014D01*
X111490476Y-120625014D02*
X111528571Y-120701204D01*
X111528571Y-120701204D02*
X111566666Y-120739300D01*
X111566666Y-120739300D02*
X111642857Y-120777395D01*
X111642857Y-120777395D02*
X111795238Y-120777395D01*
X111795238Y-120777395D02*
X111871428Y-120739300D01*
X111871428Y-120739300D02*
X111909523Y-120701204D01*
X111909523Y-120701204D02*
X111947619Y-120625014D01*
X111947619Y-120625014D02*
X111947619Y-119977395D01*
X112747618Y-120777395D02*
X112290475Y-120777395D01*
X112519047Y-120777395D02*
X112519047Y-119977395D01*
X112519047Y-119977395D02*
X112442856Y-120091680D01*
X112442856Y-120091680D02*
X112366666Y-120167871D01*
X112366666Y-120167871D02*
X112290475Y-120205966D01*
D12*
X110480750Y-117215519D02*
X110480750Y-117453614D01*
X110242655Y-117358376D02*
X110480750Y-117453614D01*
X110480750Y-117453614D02*
X110718845Y-117358376D01*
X110337893Y-117644090D02*
X110480750Y-117453614D01*
X110480750Y-117453614D02*
X110623607Y-117644090D01*
X110480750Y-117215519D02*
X110480750Y-117453614D01*
X110242655Y-117358376D02*
X110480750Y-117453614D01*
X110480750Y-117453614D02*
X110718845Y-117358376D01*
X110337893Y-117644090D02*
X110480750Y-117453614D01*
X110480750Y-117453614D02*
X110623607Y-117644090D01*
D11*
X105933333Y-117064895D02*
X105933333Y-117636323D01*
X105933333Y-117636323D02*
X105895238Y-117750609D01*
X105895238Y-117750609D02*
X105819047Y-117826800D01*
X105819047Y-117826800D02*
X105704762Y-117864895D01*
X105704762Y-117864895D02*
X105628571Y-117864895D01*
X106238095Y-117064895D02*
X106733333Y-117064895D01*
X106733333Y-117064895D02*
X106466667Y-117369657D01*
X106466667Y-117369657D02*
X106580952Y-117369657D01*
X106580952Y-117369657D02*
X106657143Y-117407752D01*
X106657143Y-117407752D02*
X106695238Y-117445847D01*
X106695238Y-117445847D02*
X106733333Y-117522038D01*
X106733333Y-117522038D02*
X106733333Y-117712514D01*
X106733333Y-117712514D02*
X106695238Y-117788704D01*
X106695238Y-117788704D02*
X106657143Y-117826800D01*
X106657143Y-117826800D02*
X106580952Y-117864895D01*
X106580952Y-117864895D02*
X106352381Y-117864895D01*
X106352381Y-117864895D02*
X106276190Y-117826800D01*
X106276190Y-117826800D02*
X106238095Y-117788704D01*
X109604167Y-123964895D02*
X109337500Y-123583942D01*
X109147024Y-123964895D02*
X109147024Y-123164895D01*
X109147024Y-123164895D02*
X109451786Y-123164895D01*
X109451786Y-123164895D02*
X109527976Y-123202990D01*
X109527976Y-123202990D02*
X109566071Y-123241085D01*
X109566071Y-123241085D02*
X109604167Y-123317276D01*
X109604167Y-123317276D02*
X109604167Y-123431561D01*
X109604167Y-123431561D02*
X109566071Y-123507752D01*
X109566071Y-123507752D02*
X109527976Y-123545847D01*
X109527976Y-123545847D02*
X109451786Y-123583942D01*
X109451786Y-123583942D02*
X109147024Y-123583942D01*
X109908928Y-123241085D02*
X109947024Y-123202990D01*
X109947024Y-123202990D02*
X110023214Y-123164895D01*
X110023214Y-123164895D02*
X110213690Y-123164895D01*
X110213690Y-123164895D02*
X110289881Y-123202990D01*
X110289881Y-123202990D02*
X110327976Y-123241085D01*
X110327976Y-123241085D02*
X110366071Y-123317276D01*
X110366071Y-123317276D02*
X110366071Y-123393466D01*
X110366071Y-123393466D02*
X110327976Y-123507752D01*
X110327976Y-123507752D02*
X109870833Y-123964895D01*
X109870833Y-123964895D02*
X110366071Y-123964895D01*
X114204167Y-123964895D02*
X113937500Y-123583942D01*
X113747024Y-123964895D02*
X113747024Y-123164895D01*
X113747024Y-123164895D02*
X114051786Y-123164895D01*
X114051786Y-123164895D02*
X114127976Y-123202990D01*
X114127976Y-123202990D02*
X114166071Y-123241085D01*
X114166071Y-123241085D02*
X114204167Y-123317276D01*
X114204167Y-123317276D02*
X114204167Y-123431561D01*
X114204167Y-123431561D02*
X114166071Y-123507752D01*
X114166071Y-123507752D02*
X114127976Y-123545847D01*
X114127976Y-123545847D02*
X114051786Y-123583942D01*
X114051786Y-123583942D02*
X113747024Y-123583942D01*
X114966071Y-123964895D02*
X114508928Y-123964895D01*
X114737500Y-123964895D02*
X114737500Y-123164895D01*
X114737500Y-123164895D02*
X114661309Y-123279180D01*
X114661309Y-123279180D02*
X114585119Y-123355371D01*
X114585119Y-123355371D02*
X114508928Y-123393466D01*
X118966667Y-123888704D02*
X118928571Y-123926800D01*
X118928571Y-123926800D02*
X118814286Y-123964895D01*
X118814286Y-123964895D02*
X118738095Y-123964895D01*
X118738095Y-123964895D02*
X118623809Y-123926800D01*
X118623809Y-123926800D02*
X118547619Y-123850609D01*
X118547619Y-123850609D02*
X118509524Y-123774419D01*
X118509524Y-123774419D02*
X118471428Y-123622038D01*
X118471428Y-123622038D02*
X118471428Y-123507752D01*
X118471428Y-123507752D02*
X118509524Y-123355371D01*
X118509524Y-123355371D02*
X118547619Y-123279180D01*
X118547619Y-123279180D02*
X118623809Y-123202990D01*
X118623809Y-123202990D02*
X118738095Y-123164895D01*
X118738095Y-123164895D02*
X118814286Y-123164895D01*
X118814286Y-123164895D02*
X118928571Y-123202990D01*
X118928571Y-123202990D02*
X118966667Y-123241085D01*
X119728571Y-123964895D02*
X119271428Y-123964895D01*
X119500000Y-123964895D02*
X119500000Y-123164895D01*
X119500000Y-123164895D02*
X119423809Y-123279180D01*
X119423809Y-123279180D02*
X119347619Y-123355371D01*
X119347619Y-123355371D02*
X119271428Y-123393466D01*
X118966667Y-127988704D02*
X118928571Y-128026800D01*
X118928571Y-128026800D02*
X118814286Y-128064895D01*
X118814286Y-128064895D02*
X118738095Y-128064895D01*
X118738095Y-128064895D02*
X118623809Y-128026800D01*
X118623809Y-128026800D02*
X118547619Y-127950609D01*
X118547619Y-127950609D02*
X118509524Y-127874419D01*
X118509524Y-127874419D02*
X118471428Y-127722038D01*
X118471428Y-127722038D02*
X118471428Y-127607752D01*
X118471428Y-127607752D02*
X118509524Y-127455371D01*
X118509524Y-127455371D02*
X118547619Y-127379180D01*
X118547619Y-127379180D02*
X118623809Y-127302990D01*
X118623809Y-127302990D02*
X118738095Y-127264895D01*
X118738095Y-127264895D02*
X118814286Y-127264895D01*
X118814286Y-127264895D02*
X118928571Y-127302990D01*
X118928571Y-127302990D02*
X118966667Y-127341085D01*
X119233333Y-127264895D02*
X119728571Y-127264895D01*
X119728571Y-127264895D02*
X119461905Y-127569657D01*
X119461905Y-127569657D02*
X119576190Y-127569657D01*
X119576190Y-127569657D02*
X119652381Y-127607752D01*
X119652381Y-127607752D02*
X119690476Y-127645847D01*
X119690476Y-127645847D02*
X119728571Y-127722038D01*
X119728571Y-127722038D02*
X119728571Y-127912514D01*
X119728571Y-127912514D02*
X119690476Y-127988704D01*
X119690476Y-127988704D02*
X119652381Y-128026800D01*
X119652381Y-128026800D02*
X119576190Y-128064895D01*
X119576190Y-128064895D02*
X119347619Y-128064895D01*
X119347619Y-128064895D02*
X119271428Y-128026800D01*
X119271428Y-128026800D02*
X119233333Y-127988704D01*
X111966667Y-127388704D02*
X111928571Y-127426800D01*
X111928571Y-127426800D02*
X111814286Y-127464895D01*
X111814286Y-127464895D02*
X111738095Y-127464895D01*
X111738095Y-127464895D02*
X111623809Y-127426800D01*
X111623809Y-127426800D02*
X111547619Y-127350609D01*
X111547619Y-127350609D02*
X111509524Y-127274419D01*
X111509524Y-127274419D02*
X111471428Y-127122038D01*
X111471428Y-127122038D02*
X111471428Y-127007752D01*
X111471428Y-127007752D02*
X111509524Y-126855371D01*
X111509524Y-126855371D02*
X111547619Y-126779180D01*
X111547619Y-126779180D02*
X111623809Y-126702990D01*
X111623809Y-126702990D02*
X111738095Y-126664895D01*
X111738095Y-126664895D02*
X111814286Y-126664895D01*
X111814286Y-126664895D02*
X111928571Y-126702990D01*
X111928571Y-126702990D02*
X111966667Y-126741085D01*
X112271428Y-126741085D02*
X112309524Y-126702990D01*
X112309524Y-126702990D02*
X112385714Y-126664895D01*
X112385714Y-126664895D02*
X112576190Y-126664895D01*
X112576190Y-126664895D02*
X112652381Y-126702990D01*
X112652381Y-126702990D02*
X112690476Y-126741085D01*
X112690476Y-126741085D02*
X112728571Y-126817276D01*
X112728571Y-126817276D02*
X112728571Y-126893466D01*
X112728571Y-126893466D02*
X112690476Y-127007752D01*
X112690476Y-127007752D02*
X112233333Y-127464895D01*
X112233333Y-127464895D02*
X112728571Y-127464895D01*
X105254167Y-128064895D02*
X104987500Y-127683942D01*
X104797024Y-128064895D02*
X104797024Y-127264895D01*
X104797024Y-127264895D02*
X105101786Y-127264895D01*
X105101786Y-127264895D02*
X105177976Y-127302990D01*
X105177976Y-127302990D02*
X105216071Y-127341085D01*
X105216071Y-127341085D02*
X105254167Y-127417276D01*
X105254167Y-127417276D02*
X105254167Y-127531561D01*
X105254167Y-127531561D02*
X105216071Y-127607752D01*
X105216071Y-127607752D02*
X105177976Y-127645847D01*
X105177976Y-127645847D02*
X105101786Y-127683942D01*
X105101786Y-127683942D02*
X104797024Y-127683942D01*
X105939881Y-127531561D02*
X105939881Y-128064895D01*
X105749405Y-127226800D02*
X105558928Y-127798228D01*
X105558928Y-127798228D02*
X106054167Y-127798228D01*
X99723809Y-125041085D02*
X99647619Y-125002990D01*
X99647619Y-125002990D02*
X99571428Y-124926800D01*
X99571428Y-124926800D02*
X99457142Y-124812514D01*
X99457142Y-124812514D02*
X99380952Y-124774419D01*
X99380952Y-124774419D02*
X99304761Y-124774419D01*
X99342857Y-124964895D02*
X99266666Y-124926800D01*
X99266666Y-124926800D02*
X99190476Y-124850609D01*
X99190476Y-124850609D02*
X99152380Y-124698228D01*
X99152380Y-124698228D02*
X99152380Y-124431561D01*
X99152380Y-124431561D02*
X99190476Y-124279180D01*
X99190476Y-124279180D02*
X99266666Y-124202990D01*
X99266666Y-124202990D02*
X99342857Y-124164895D01*
X99342857Y-124164895D02*
X99495238Y-124164895D01*
X99495238Y-124164895D02*
X99571428Y-124202990D01*
X99571428Y-124202990D02*
X99647619Y-124279180D01*
X99647619Y-124279180D02*
X99685714Y-124431561D01*
X99685714Y-124431561D02*
X99685714Y-124698228D01*
X99685714Y-124698228D02*
X99647619Y-124850609D01*
X99647619Y-124850609D02*
X99571428Y-124926800D01*
X99571428Y-124926800D02*
X99495238Y-124964895D01*
X99495238Y-124964895D02*
X99342857Y-124964895D01*
X100447618Y-124964895D02*
X99990475Y-124964895D01*
X100219047Y-124964895D02*
X100219047Y-124164895D01*
X100219047Y-124164895D02*
X100142856Y-124279180D01*
X100142856Y-124279180D02*
X100066666Y-124355371D01*
X100066666Y-124355371D02*
X99990475Y-124393466D01*
X110309524Y-116164895D02*
X110309524Y-115364895D01*
X110309524Y-115364895D02*
X110500000Y-115364895D01*
X110500000Y-115364895D02*
X110614286Y-115402990D01*
X110614286Y-115402990D02*
X110690476Y-115479180D01*
X110690476Y-115479180D02*
X110728571Y-115555371D01*
X110728571Y-115555371D02*
X110766667Y-115707752D01*
X110766667Y-115707752D02*
X110766667Y-115822038D01*
X110766667Y-115822038D02*
X110728571Y-115974419D01*
X110728571Y-115974419D02*
X110690476Y-116050609D01*
X110690476Y-116050609D02*
X110614286Y-116126800D01*
X110614286Y-116126800D02*
X110500000Y-116164895D01*
X110500000Y-116164895D02*
X110309524Y-116164895D01*
X111528571Y-116164895D02*
X111071428Y-116164895D01*
X111300000Y-116164895D02*
X111300000Y-115364895D01*
X111300000Y-115364895D02*
X111223809Y-115479180D01*
X111223809Y-115479180D02*
X111147619Y-115555371D01*
X111147619Y-115555371D02*
X111071428Y-115593466D01*
X101009524Y-116164895D02*
X101009524Y-115364895D01*
X101009524Y-115364895D02*
X101200000Y-115364895D01*
X101200000Y-115364895D02*
X101314286Y-115402990D01*
X101314286Y-115402990D02*
X101390476Y-115479180D01*
X101390476Y-115479180D02*
X101428571Y-115555371D01*
X101428571Y-115555371D02*
X101466667Y-115707752D01*
X101466667Y-115707752D02*
X101466667Y-115822038D01*
X101466667Y-115822038D02*
X101428571Y-115974419D01*
X101428571Y-115974419D02*
X101390476Y-116050609D01*
X101390476Y-116050609D02*
X101314286Y-116126800D01*
X101314286Y-116126800D02*
X101200000Y-116164895D01*
X101200000Y-116164895D02*
X101009524Y-116164895D01*
X101771428Y-115441085D02*
X101809524Y-115402990D01*
X101809524Y-115402990D02*
X101885714Y-115364895D01*
X101885714Y-115364895D02*
X102076190Y-115364895D01*
X102076190Y-115364895D02*
X102152381Y-115402990D01*
X102152381Y-115402990D02*
X102190476Y-115441085D01*
X102190476Y-115441085D02*
X102228571Y-115517276D01*
X102228571Y-115517276D02*
X102228571Y-115593466D01*
X102228571Y-115593466D02*
X102190476Y-115707752D01*
X102190476Y-115707752D02*
X101733333Y-116164895D01*
X101733333Y-116164895D02*
X102228571Y-116164895D01*
X102666667Y-125564895D02*
X102400000Y-125183942D01*
X102209524Y-125564895D02*
X102209524Y-124764895D01*
X102209524Y-124764895D02*
X102514286Y-124764895D01*
X102514286Y-124764895D02*
X102590476Y-124802990D01*
X102590476Y-124802990D02*
X102628571Y-124841085D01*
X102628571Y-124841085D02*
X102666667Y-124917276D01*
X102666667Y-124917276D02*
X102666667Y-125031561D01*
X102666667Y-125031561D02*
X102628571Y-125107752D01*
X102628571Y-125107752D02*
X102590476Y-125145847D01*
X102590476Y-125145847D02*
X102514286Y-125183942D01*
X102514286Y-125183942D02*
X102209524Y-125183942D01*
X102933333Y-124764895D02*
X103428571Y-124764895D01*
X103428571Y-124764895D02*
X103161905Y-125069657D01*
X103161905Y-125069657D02*
X103276190Y-125069657D01*
X103276190Y-125069657D02*
X103352381Y-125107752D01*
X103352381Y-125107752D02*
X103390476Y-125145847D01*
X103390476Y-125145847D02*
X103428571Y-125222038D01*
X103428571Y-125222038D02*
X103428571Y-125412514D01*
X103428571Y-125412514D02*
X103390476Y-125488704D01*
X103390476Y-125488704D02*
X103352381Y-125526800D01*
X103352381Y-125526800D02*
X103276190Y-125564895D01*
X103276190Y-125564895D02*
X103047619Y-125564895D01*
X103047619Y-125564895D02*
X102971428Y-125526800D01*
X102971428Y-125526800D02*
X102933333Y-125488704D01*
X93833333Y-128964895D02*
X93833333Y-129536323D01*
X93833333Y-129536323D02*
X93795238Y-129650609D01*
X93795238Y-129650609D02*
X93719047Y-129726800D01*
X93719047Y-129726800D02*
X93604762Y-129764895D01*
X93604762Y-129764895D02*
X93528571Y-129764895D01*
X94176190Y-129041085D02*
X94214286Y-129002990D01*
X94214286Y-129002990D02*
X94290476Y-128964895D01*
X94290476Y-128964895D02*
X94480952Y-128964895D01*
X94480952Y-128964895D02*
X94557143Y-129002990D01*
X94557143Y-129002990D02*
X94595238Y-129041085D01*
X94595238Y-129041085D02*
X94633333Y-129117276D01*
X94633333Y-129117276D02*
X94633333Y-129193466D01*
X94633333Y-129193466D02*
X94595238Y-129307752D01*
X94595238Y-129307752D02*
X94138095Y-129764895D01*
X94138095Y-129764895D02*
X94633333Y-129764895D01*
X93833333Y-115064895D02*
X93833333Y-115636323D01*
X93833333Y-115636323D02*
X93795238Y-115750609D01*
X93795238Y-115750609D02*
X93719047Y-115826800D01*
X93719047Y-115826800D02*
X93604762Y-115864895D01*
X93604762Y-115864895D02*
X93528571Y-115864895D01*
X94557143Y-115331561D02*
X94557143Y-115864895D01*
X94366667Y-115026800D02*
X94176190Y-115598228D01*
X94176190Y-115598228D02*
X94671429Y-115598228D01*
%TO.C,J1*%
D13*
X130350000Y-120370000D02*
X136350000Y-120370000D01*
X136350000Y-121230000D01*
X130350000Y-121230000D01*
X130350000Y-120370000D01*
G36*
X130350000Y-120370000D02*
G01*
X136350000Y-120370000D01*
X136350000Y-121230000D01*
X130350000Y-121230000D01*
X130350000Y-120370000D01*
G37*
X136350000Y-123770000D02*
X130350000Y-123770000D01*
X136350000Y-122910000D02*
X136350000Y-123770000D01*
X130350000Y-124720000D02*
X130350000Y-119420000D01*
X130350000Y-122910000D02*
X136350000Y-122910000D01*
X130350000Y-119420000D02*
X127590000Y-119420000D01*
X127590000Y-124720000D02*
X130350000Y-124720000D01*
X127590000Y-122070000D02*
X130350000Y-122070000D01*
X127590000Y-119420000D02*
X127590000Y-124720000D01*
X127360000Y-121230000D02*
X127590000Y-121230000D01*
X127360000Y-120370000D02*
X127590000Y-120370000D01*
X127277358Y-123770000D02*
X127590000Y-123770000D01*
X127277358Y-122910000D02*
X127590000Y-122910000D01*
X124930000Y-120800000D02*
X124930000Y-119530000D01*
X124930000Y-119530000D02*
X126200000Y-119530000D01*
D14*
%TO.C,L1*%
X120076200Y-113283500D02*
G75*
G02*
X119923800Y-113283500I-76200J0D01*
G01*
X119923800Y-113283500D02*
G75*
G02*
X120076200Y-113283500I76200J0D01*
G01*
X123556000Y-122173500D02*
X123556000Y-114426500D01*
X123556000Y-114426500D02*
X121983740Y-114426500D01*
X121983740Y-122173500D02*
X123556000Y-122173500D01*
X118016260Y-114426500D02*
X116444000Y-114426500D01*
X116444000Y-122173500D02*
X118016260Y-122173500D01*
X116444000Y-114426500D02*
X116444000Y-122173500D01*
%TO.C,U1*%
X113001700Y-120750361D02*
X113001700Y-120074639D01*
X113001700Y-118837700D02*
X111198300Y-118837700D01*
X111198300Y-121987300D02*
X113001700Y-121987300D01*
%TO.C,J3*%
D13*
X105195000Y-121322500D02*
X103841667Y-121322500D01*
X103841667Y-120052500D01*
X105195000Y-120052500D01*
X105195000Y-121322500D01*
G36*
X105195000Y-121322500D02*
G01*
X103841667Y-121322500D01*
X103841667Y-120052500D01*
X105195000Y-120052500D01*
X105195000Y-121322500D01*
G37*
X105195000Y-121322500D02*
X101135000Y-121322500D01*
X101135000Y-120052500D01*
X105195000Y-120052500D01*
X105195000Y-121322500D01*
X108355000Y-123347500D02*
X108355000Y-121964500D01*
X108355000Y-123347500D02*
X106972000Y-123347500D01*
X108115000Y-123107500D02*
X108115000Y-118267500D01*
X108115000Y-123107500D02*
X98215000Y-123107500D01*
X108115000Y-118267500D02*
X98215000Y-118267500D01*
X103841667Y-121322500D02*
X103841667Y-120052500D01*
X98215000Y-123107500D02*
X98215000Y-118267500D01*
%TO.C,R2*%
X109510436Y-124465000D02*
X109964564Y-124465000D01*
X109510436Y-125935000D02*
X109964564Y-125935000D01*
%TO.C,R1*%
X114110436Y-124465000D02*
X114564564Y-124465000D01*
X114110436Y-125935000D02*
X114564564Y-125935000D01*
%TO.C,C1*%
X118838748Y-124465000D02*
X119361252Y-124465000D01*
X118838748Y-125935000D02*
X119361252Y-125935000D01*
%TO.C,C3*%
X118838748Y-128465000D02*
X119361252Y-128465000D01*
X118838748Y-129935000D02*
X119361252Y-129935000D01*
%TO.C,C2*%
X112836252Y-128090000D02*
X111413748Y-128090000D01*
X112836252Y-129910000D02*
X111413748Y-129910000D01*
%TO.C,R4*%
X105160436Y-128465000D02*
X105614564Y-128465000D01*
X105160436Y-129935000D02*
X105614564Y-129935000D01*
D11*
%TO.C,Q1*%
X98925000Y-125725000D02*
X98925000Y-125775000D01*
X98925000Y-125775000D02*
X98150000Y-125775000D01*
X98925000Y-128750000D02*
X98925000Y-128400000D01*
X99300000Y-125450000D02*
X98925000Y-125725000D01*
X99400000Y-128750000D02*
X98925000Y-128750000D01*
X99575000Y-125450000D02*
X99300000Y-125450000D01*
X100200000Y-125450000D02*
X100575000Y-125450000D01*
X100575000Y-125450000D02*
X100575000Y-125750000D01*
X100575000Y-128450000D02*
X100575000Y-128750000D01*
X100575000Y-128525000D02*
X100575000Y-128400000D01*
X100575000Y-128750000D02*
X100125000Y-128750000D01*
D15*
%TO.C,D1*%
X108300000Y-117162000D02*
X113825000Y-117162000D01*
X113500000Y-114438000D02*
X108300000Y-114438000D01*
%TO.C,D2*%
X99000000Y-117162000D02*
X104525000Y-117162000D01*
X104200000Y-114438000D02*
X99000000Y-114438000D01*
D13*
%TO.C,R3*%
X105160436Y-124465000D02*
X105614564Y-124465000D01*
X105160436Y-125935000D02*
X105614564Y-125935000D01*
%TO.C,J2*%
X84935000Y-123930000D02*
X90935000Y-123930000D01*
X84935000Y-124790000D02*
X84935000Y-123930000D01*
X90935000Y-122980000D02*
X90935000Y-128280000D01*
X90935000Y-124790000D02*
X84935000Y-124790000D01*
X90935000Y-128280000D02*
X93695000Y-128280000D01*
X93695000Y-122980000D02*
X90935000Y-122980000D01*
X93695000Y-125630000D02*
X90935000Y-125630000D01*
X93695000Y-128280000D02*
X93695000Y-122980000D01*
X93925000Y-126470000D02*
X93695000Y-126470000D01*
X93925000Y-127330000D02*
X93695000Y-127330000D01*
X94007642Y-123930000D02*
X93695000Y-123930000D01*
X94007642Y-124790000D02*
X93695000Y-124790000D01*
X96355000Y-126900000D02*
X96355000Y-128170000D01*
X96355000Y-128170000D02*
X95085000Y-128170000D01*
X90935000Y-127330000D02*
X84935000Y-127330000D01*
X84935000Y-126470000D01*
X90935000Y-126470000D01*
X90935000Y-127330000D01*
G36*
X90935000Y-127330000D02*
G01*
X84935000Y-127330000D01*
X84935000Y-126470000D01*
X90935000Y-126470000D01*
X90935000Y-127330000D01*
G37*
%TO.C,J4*%
X84935000Y-117570000D02*
X90935000Y-117570000D01*
X84935000Y-118430000D02*
X84935000Y-117570000D01*
X90935000Y-116620000D02*
X90935000Y-121920000D01*
X90935000Y-118430000D02*
X84935000Y-118430000D01*
X90935000Y-121920000D02*
X93695000Y-121920000D01*
X93695000Y-116620000D02*
X90935000Y-116620000D01*
X93695000Y-119270000D02*
X90935000Y-119270000D01*
X93695000Y-121920000D02*
X93695000Y-116620000D01*
X93925000Y-120110000D02*
X93695000Y-120110000D01*
X93925000Y-120970000D02*
X93695000Y-120970000D01*
X94007642Y-117570000D02*
X93695000Y-117570000D01*
X94007642Y-118430000D02*
X93695000Y-118430000D01*
X96355000Y-120540000D02*
X96355000Y-121810000D01*
X96355000Y-121810000D02*
X95085000Y-121810000D01*
X90935000Y-120970000D02*
X84935000Y-120970000D01*
X84935000Y-120110000D01*
X90935000Y-120110000D01*
X90935000Y-120970000D01*
G36*
X90935000Y-120970000D02*
G01*
X84935000Y-120970000D01*
X84935000Y-120110000D01*
X90935000Y-120110000D01*
X90935000Y-120970000D01*
G37*
%TD*%
M02*
