%TF.GenerationSoftware,KiCad,Pcbnew,9.0.1*%
%TF.CreationDate,2025-07-01T21:06:53-04:00*%
%TF.ProjectId,Tiny Solar Power Suppy,54696e79-2053-46f6-9c61-7220506f7765,rev?*%
%TF.SameCoordinates,Original*%
%TF.FileFunction,Drillmap*%
%TF.FilePolarity,Positive*%
%FSLAX45Y45*%
G04 Gerber Fmt 4.5, Leading zero omitted, Abs format (unit mm)*
G04 Created by KiCad (PCBNEW 9.0.1) date 2025-07-01 21:06:53*
%MOMM*%
%LPD*%
G01*
G04 APERTURE LIST*
%ADD10C,0.050000*%
%ADD11C,0.200000*%
G04 APERTURE END LIST*
D10*
X9090000Y-13130000D02*
X9090000Y-11350000D01*
X12800000Y-13320000D02*
X9280000Y-13320000D01*
X12990000Y-11350000D02*
X12990000Y-13130000D01*
X9280000Y-11160000D02*
X12800000Y-11160000D01*
X9090000Y-11350000D02*
G75*
G02*
X9280000Y-11160000I190000J0D01*
G01*
X9280000Y-13320000D02*
G75*
G02*
X9090000Y-13130000I0J190000D01*
G01*
X12990000Y-13130000D02*
G75*
G02*
X12800000Y-13320000I-190000J0D01*
G01*
X12800000Y-11160000D02*
G75*
G02*
X12990000Y-11350000I0J-190000D01*
G01*
X9382956Y-13130000D02*
G75*
G02*
X9177044Y-13130000I-102956J0D01*
G01*
X9177044Y-13130000D02*
G75*
G02*
X9382956Y-13130000I102956J0D01*
G01*
X12902956Y-11350000D02*
G75*
G02*
X12697044Y-11350000I-102956J0D01*
G01*
X12697044Y-11350000D02*
G75*
G02*
X12902956Y-11350000I102956J0D01*
G01*
X9382956Y-11350000D02*
G75*
G02*
X9177044Y-11350000I-102956J0D01*
G01*
X9177044Y-11350000D02*
G75*
G02*
X9382956Y-11350000I102956J0D01*
G01*
X12902956Y-13130000D02*
G75*
G02*
X12697044Y-13130000I-102956J0D01*
G01*
X12697044Y-13130000D02*
G75*
G02*
X12902956Y-13130000I102956J0D01*
G01*
D11*
X9348277Y-13633984D02*
X9348277Y-13433984D01*
X9348277Y-13433984D02*
X9395896Y-13433984D01*
X9395896Y-13433984D02*
X9424467Y-13443508D01*
X9424467Y-13443508D02*
X9443515Y-13462555D01*
X9443515Y-13462555D02*
X9453039Y-13481603D01*
X9453039Y-13481603D02*
X9462563Y-13519698D01*
X9462563Y-13519698D02*
X9462563Y-13548269D01*
X9462563Y-13548269D02*
X9453039Y-13586365D01*
X9453039Y-13586365D02*
X9443515Y-13605412D01*
X9443515Y-13605412D02*
X9424467Y-13624460D01*
X9424467Y-13624460D02*
X9395896Y-13633984D01*
X9395896Y-13633984D02*
X9348277Y-13633984D01*
X9548277Y-13633984D02*
X9548277Y-13500650D01*
X9548277Y-13538746D02*
X9557801Y-13519698D01*
X9557801Y-13519698D02*
X9567324Y-13510174D01*
X9567324Y-13510174D02*
X9586372Y-13500650D01*
X9586372Y-13500650D02*
X9605420Y-13500650D01*
X9672086Y-13633984D02*
X9672086Y-13500650D01*
X9672086Y-13433984D02*
X9662563Y-13443508D01*
X9662563Y-13443508D02*
X9672086Y-13453031D01*
X9672086Y-13453031D02*
X9681610Y-13443508D01*
X9681610Y-13443508D02*
X9672086Y-13433984D01*
X9672086Y-13433984D02*
X9672086Y-13453031D01*
X9795896Y-13633984D02*
X9776848Y-13624460D01*
X9776848Y-13624460D02*
X9767324Y-13605412D01*
X9767324Y-13605412D02*
X9767324Y-13433984D01*
X9900658Y-13633984D02*
X9881610Y-13624460D01*
X9881610Y-13624460D02*
X9872086Y-13605412D01*
X9872086Y-13605412D02*
X9872086Y-13433984D01*
X10129229Y-13633984D02*
X10129229Y-13433984D01*
X10129229Y-13433984D02*
X10195896Y-13576841D01*
X10195896Y-13576841D02*
X10262563Y-13433984D01*
X10262563Y-13433984D02*
X10262563Y-13633984D01*
X10443515Y-13633984D02*
X10443515Y-13529222D01*
X10443515Y-13529222D02*
X10433991Y-13510174D01*
X10433991Y-13510174D02*
X10414944Y-13500650D01*
X10414944Y-13500650D02*
X10376848Y-13500650D01*
X10376848Y-13500650D02*
X10357801Y-13510174D01*
X10443515Y-13624460D02*
X10424467Y-13633984D01*
X10424467Y-13633984D02*
X10376848Y-13633984D01*
X10376848Y-13633984D02*
X10357801Y-13624460D01*
X10357801Y-13624460D02*
X10348277Y-13605412D01*
X10348277Y-13605412D02*
X10348277Y-13586365D01*
X10348277Y-13586365D02*
X10357801Y-13567317D01*
X10357801Y-13567317D02*
X10376848Y-13557793D01*
X10376848Y-13557793D02*
X10424467Y-13557793D01*
X10424467Y-13557793D02*
X10443515Y-13548269D01*
X10538753Y-13500650D02*
X10538753Y-13700650D01*
X10538753Y-13510174D02*
X10557801Y-13500650D01*
X10557801Y-13500650D02*
X10595896Y-13500650D01*
X10595896Y-13500650D02*
X10614944Y-13510174D01*
X10614944Y-13510174D02*
X10624467Y-13519698D01*
X10624467Y-13519698D02*
X10633991Y-13538746D01*
X10633991Y-13538746D02*
X10633991Y-13595888D01*
X10633991Y-13595888D02*
X10624467Y-13614936D01*
X10624467Y-13614936D02*
X10614944Y-13624460D01*
X10614944Y-13624460D02*
X10595896Y-13633984D01*
X10595896Y-13633984D02*
X10557801Y-13633984D01*
X10557801Y-13633984D02*
X10538753Y-13624460D01*
X10719705Y-13614936D02*
X10729229Y-13624460D01*
X10729229Y-13624460D02*
X10719705Y-13633984D01*
X10719705Y-13633984D02*
X10710182Y-13624460D01*
X10710182Y-13624460D02*
X10719705Y-13614936D01*
X10719705Y-13614936D02*
X10719705Y-13633984D01*
X10719705Y-13510174D02*
X10729229Y-13519698D01*
X10729229Y-13519698D02*
X10719705Y-13529222D01*
X10719705Y-13529222D02*
X10710182Y-13519698D01*
X10710182Y-13519698D02*
X10719705Y-13510174D01*
X10719705Y-13510174D02*
X10719705Y-13529222D01*
M02*
